<svg width="549" height="340" viewBox="0 0 549 340" fill="none" xmlns="http://www.w3.org/2000/svg">
<path d="M117.051 31.8714C117.051 15.1385 130.596 1.59277 147.329 1.59277H474.816C491.549 1.59277 505.095 15.1385 505.095 31.8714V261.351C505.095 278.084 491.549 291.63 474.816 291.63H147.329C130.596 291.63 117.051 278.084 117.051 261.351V31.8714Z" fill="white"/>
<path d="M474.818 293.224H147.331C129.722 293.224 115.459 278.962 115.459 261.352V31.8722C115.459 14.2628 129.722 0 147.331 0H474.818C492.428 0 506.69 14.2628 506.69 31.8722V261.352C506.69 278.962 492.428 293.224 474.818 293.224ZM147.331 3.18722C131.475 3.18722 118.646 16.0158 118.646 31.8722V261.352C118.646 277.209 131.475 290.037 147.331 290.037H474.818C490.675 290.037 503.503 277.209 503.503 261.352V31.8722C503.503 16.0158 490.675 3.18722 474.818 3.18722H147.331Z" fill="#E1E4E5"/>
<path d="M367.087 89.2422H476.01C478.719 89.2422 480.95 91.4732 480.95 94.1824C480.95 96.8915 478.719 99.1226 476.01 99.1226H367.087C364.378 99.1226 362.146 96.8915 362.146 94.1824C362.146 91.4732 364.378 89.2422 367.087 89.2422Z" fill="white"/>
<path d="M476.012 100.716H367.089C363.503 100.716 360.555 97.7679 360.555 94.1822C360.555 90.5966 363.503 87.6484 367.089 87.6484H476.012C479.597 87.6484 482.546 90.5966 482.546 94.1822C482.546 97.7679 479.677 100.716 476.012 100.716ZM367.089 90.8357C365.256 90.8357 363.742 92.3496 363.742 94.1822C363.742 96.0149 365.256 97.5288 367.089 97.5288H476.012C477.844 97.5288 479.358 96.0149 479.358 94.1822C479.358 92.3496 477.844 90.8357 476.012 90.8357H367.089Z" fill="#E1E4E5"/>
<path d="M340.634 126.851C340.634 124.142 342.866 121.911 345.575 121.911H476.33C479.04 121.911 481.271 124.142 481.271 126.851C481.271 129.56 479.04 131.791 476.33 131.791H345.575C342.866 131.791 340.634 129.64 340.634 126.851ZM152.11 25.4975C152.11 29.0831 149.321 31.8719 146.134 31.8719C142.947 31.8719 140.158 29.0831 140.158 25.4975C140.158 21.9119 142.947 19.123 146.134 19.123C149.321 19.123 152.11 21.9119 152.11 25.4975Z" fill="white"/>
<path d="M476.33 133.386H345.575C341.989 133.386 339.041 130.438 339.041 126.852C339.041 123.266 341.989 120.318 345.575 120.318H476.33C479.916 120.318 482.864 123.266 482.864 126.852C482.864 130.438 479.916 133.386 476.33 133.386ZM345.575 123.505C343.742 123.505 342.228 125.019 342.228 126.852C342.228 128.685 343.742 130.199 345.575 130.199H476.33C478.163 130.199 479.677 128.685 479.677 126.852C479.677 125.019 478.163 123.505 476.33 123.505H345.575ZM146.134 33.4664C141.991 33.4664 138.564 29.8808 138.564 25.4983C138.564 21.1159 141.991 17.5303 146.134 17.5303C150.277 17.5303 153.704 21.1159 153.704 25.4983C153.704 29.8808 150.277 33.4664 146.134 33.4664ZM146.134 20.7175C143.744 20.7175 141.752 22.8689 141.752 25.4983C141.752 28.1278 143.744 30.2792 146.134 30.2792C148.525 30.2792 150.517 28.1278 150.517 25.4983C150.517 22.8689 148.525 20.7175 146.134 20.7175Z" fill="#E1E4E5"/>
<path d="M168.843 31.8719C172.364 31.8719 175.218 29.018 175.218 25.4975C175.218 21.977 172.364 19.123 168.843 19.123C165.323 19.123 162.469 21.977 162.469 25.4975C162.469 29.018 165.323 31.8719 168.843 31.8719Z" fill="white"/>
<path d="M168.843 33.4664C164.461 33.4664 160.875 29.8808 160.875 25.4983C160.875 21.1159 164.461 17.5303 168.843 17.5303C173.225 17.5303 176.811 21.1159 176.811 25.4983C176.811 29.8808 173.225 33.4664 168.843 33.4664ZM168.843 20.7175C166.214 20.7175 164.062 22.8689 164.062 25.4983C164.062 28.1278 166.214 30.2792 168.843 30.2792C171.473 30.2792 173.624 28.1278 173.624 25.4983C173.624 22.8689 171.473 20.7175 168.843 20.7175Z" fill="#E1E4E5"/>
<path d="M191.154 31.8719C194.674 31.8719 197.528 29.018 197.528 25.4975C197.528 21.977 194.674 19.123 191.154 19.123C187.633 19.123 184.779 21.977 184.779 25.4975C184.779 29.018 187.633 31.8719 191.154 31.8719Z" fill="white"/>
<path d="M191.154 33.4664C186.771 33.4664 183.186 29.8808 183.186 25.4983C183.186 21.1159 186.771 17.5303 191.154 17.5303C195.536 17.5303 199.122 21.1159 199.122 25.4983C199.122 29.8808 195.536 33.4664 191.154 33.4664ZM191.154 20.7175C188.524 20.7175 186.373 22.8689 186.373 25.4983C186.373 28.1278 188.524 30.2792 191.154 30.2792C193.783 30.2792 195.934 28.1278 195.934 25.4983C195.934 22.8689 193.783 20.7175 191.154 20.7175Z" fill="#E1E4E5"/>
<path d="M389.398 167.33C389.398 157.37 397.446 149.322 407.406 149.322H464.059C474.019 149.322 482.067 157.37 482.067 167.33C482.067 177.29 474.019 185.338 464.059 185.338H407.406C397.526 185.338 389.398 177.29 389.398 167.33ZM389.398 210.915C389.398 208.206 391.63 205.975 394.339 205.975H477.206C479.916 205.975 482.147 208.206 482.147 210.915C482.147 213.624 479.916 215.856 477.206 215.856H394.339C391.63 215.856 389.398 213.624 389.398 210.915ZM389.398 243.584C389.398 240.875 391.63 238.644 394.339 238.644H477.206C479.916 238.644 482.147 240.875 482.147 243.584C482.147 246.294 479.916 248.525 477.206 248.525H394.339C391.63 248.525 389.398 246.294 389.398 243.584Z" fill="white"/>
<path d="M477.208 250.118H394.34C390.755 250.118 387.807 247.17 387.807 243.584C387.807 239.999 390.755 237.05 394.34 237.05H477.208C480.794 237.05 483.742 239.999 483.742 243.584C483.742 245.337 483.105 247.01 481.83 248.206C480.555 249.481 478.961 250.118 477.208 250.118ZM394.34 240.238C392.508 240.238 390.994 241.752 390.994 243.584C390.994 245.417 392.508 246.931 394.34 246.931H477.208C478.085 246.931 478.961 246.612 479.599 245.975C480.236 245.337 480.555 244.461 480.555 243.584C480.555 241.752 479.041 240.238 477.208 240.238H394.34ZM477.208 217.449H394.34C390.755 217.449 387.807 214.501 387.807 210.915C387.807 207.33 390.755 204.381 394.34 204.381H477.208C478.961 204.381 480.555 205.099 481.83 206.294C483.105 207.489 483.742 209.162 483.742 210.915C483.742 212.668 483.105 214.341 481.83 215.537C480.555 216.732 478.961 217.449 477.208 217.449ZM394.34 207.569C392.508 207.569 390.994 209.083 390.994 210.915C390.994 212.748 392.508 214.262 394.34 214.262H477.208C479.041 214.262 480.555 212.748 480.555 210.915C480.555 210.039 480.236 209.162 479.599 208.525C478.961 207.887 478.164 207.569 477.208 207.569H394.34ZM464.061 186.931H407.408C396.572 186.931 387.807 178.166 387.807 167.33C387.807 156.493 396.572 147.729 407.408 147.729H464.061C474.897 147.729 483.662 156.493 483.662 167.33C483.662 178.166 474.897 186.931 464.061 186.931ZM407.408 150.916C398.325 150.916 390.994 158.246 390.994 167.33C390.994 176.414 398.325 183.744 407.408 183.744H464.061C473.145 183.744 480.475 176.414 480.475 167.33C480.475 158.246 473.145 150.916 464.061 150.916H407.408Z" fill="#E1E4E5"/>
<path d="M252.746 249.081C304.806 249.081 347.009 206.878 347.009 154.819C347.009 102.759 304.806 60.5566 252.746 60.5566C200.687 60.5566 158.484 102.759 158.484 154.819C158.484 206.878 200.687 249.081 252.746 249.081Z" fill="white"/>
<path d="M252.746 250.755C199.918 250.755 156.891 207.727 156.891 154.899C156.891 102.071 199.838 58.9639 252.746 58.9639C305.575 58.9639 348.602 101.991 348.602 154.82C348.602 207.648 305.575 250.755 252.746 250.755ZM252.746 62.1511C201.591 62.1511 160.078 103.744 160.078 154.82C160.078 205.895 201.671 247.488 252.746 247.488C303.822 247.488 345.415 205.895 345.415 154.82C345.415 103.744 303.822 62.1511 252.746 62.1511Z" fill="#E1E4E5"/>
<path d="M158.484 154.82C158.484 143.187 160.556 132.032 164.46 121.753L280.794 168.047L311.949 228.126C295.774 241.194 275.216 249.003 252.746 249.003C200.635 249.162 158.484 206.931 158.484 154.82Z" fill="white"/>
<path d="M252.746 250.754C199.918 250.754 156.891 207.726 156.891 154.898C156.891 143.344 158.962 132.03 162.946 121.273L163.504 119.759L281.909 166.93L282.148 167.487L313.941 228.762L312.905 229.559C295.933 243.184 274.579 250.754 252.746 250.754ZM165.337 123.902C161.831 133.783 160.078 144.221 160.078 154.818C160.078 205.893 201.671 247.487 252.746 247.487C273.463 247.487 293.702 240.475 309.957 227.726L279.678 169.32L165.337 123.902Z" fill="#E1E4E5"/>
<path d="M254.738 154.98L317.367 86.2949C335.614 103.506 346.929 127.888 346.929 154.9C346.929 186.214 331.71 213.943 308.204 231.074L254.738 154.98Z" fill="white"/>
<path d="M307.885 233.305L252.746 154.899L317.367 84.0635L318.562 85.179C338.004 103.506 348.682 128.286 348.682 154.899C348.682 185.417 333.941 214.341 309.24 232.349L307.885 233.305ZM256.81 155.139L308.602 228.843C331.71 211.393 345.415 183.824 345.415 154.899C345.415 129.641 335.534 106.215 317.526 88.6053L256.81 155.139Z" fill="#E1E4E5"/>
<path d="M252.906 223.903C290.972 223.903 321.83 193.045 321.83 154.979C321.83 116.914 290.972 86.0557 252.906 86.0557C214.841 86.0557 183.982 116.914 183.982 154.979C183.982 193.045 214.841 223.903 252.906 223.903Z" fill="white"/>
<path d="M252.906 225.496C214.022 225.496 182.389 193.863 182.389 154.979C182.389 116.095 214.022 84.4619 252.906 84.4619C291.79 84.4619 323.423 116.095 323.423 154.979C323.423 193.863 291.79 225.496 252.906 225.496ZM252.906 87.6491C215.775 87.6491 185.576 117.848 185.576 154.979C185.576 192.11 215.775 222.309 252.906 222.309C290.037 222.309 320.236 192.11 320.236 154.979C320.236 117.848 290.037 87.6491 252.906 87.6491Z" fill="#E1E4E5"/>
<path opacity="0.76" fill-rule="evenodd" clip-rule="evenodd" d="M98.3241 127.489L189.558 270.117H7.08984L98.3241 127.489Z" fill="url(#paint0_linear_177_595)"/>
<path opacity="0.76" fill-rule="evenodd" clip-rule="evenodd" d="M301.113 29.4033L332.029 77.5304H270.197L301.113 29.4033Z" fill="url(#paint1_linear_177_595)"/>
<path d="M28.8451 178.645C22.7097 178.645 17.7695 173.865 17.7695 167.968C17.7695 162.072 22.7894 157.291 28.8451 157.291C34.9805 157.291 39.9207 162.072 39.9207 167.968C39.9207 173.865 34.9805 178.645 28.8451 178.645ZM28.8451 161.434C25.0205 161.434 21.9129 164.383 21.9129 167.968C21.9129 171.554 25.0205 174.502 28.8451 174.502C32.6698 174.502 35.7773 171.554 35.7773 167.968C35.7773 164.383 32.6698 161.434 28.8451 161.434Z" fill="#E1E4E5"/>
<path d="M46.6114 97.2096C38.9621 103.903 25.8148 101.353 25.8148 101.353C25.8148 101.353 25.0976 87.9667 32.747 81.2735C40.3963 74.5803 53.5436 77.1301 53.5436 77.1301C53.5436 77.1301 54.2607 90.5165 46.6114 97.2096Z" fill="url(#paint2_linear_177_595)"/>
<path d="M182.3 54.7655C182.972 52.2577 181.484 49.6799 178.976 49.008C176.468 48.3361 173.891 49.8243 173.219 52.3322C172.547 54.84 174.035 57.4178 176.543 58.0897C179.051 58.7616 181.628 57.2733 182.3 54.7655Z" fill="#E1E4E5"/>
<path d="M163.173 91.4169C163.845 88.909 162.357 86.3313 159.849 85.6594C157.341 84.9874 154.764 86.4757 154.092 88.9836C153.42 91.4914 154.908 94.0691 157.416 94.7411C159.924 95.413 162.501 93.9247 163.173 91.4169Z" fill="#E1E4E5"/>
<path d="M271.542 26.8807C272.214 24.3729 270.726 21.7952 268.218 21.1232C265.71 20.4513 263.133 21.9396 262.461 24.4474C261.789 26.9553 263.277 29.533 265.785 30.2049C268.293 30.8769 270.871 29.3886 271.542 26.8807Z" fill="#E1E4E5"/>
<path d="M412.223 42.0512C412.668 40.3935 411.684 38.6896 410.026 38.2454C408.368 37.8013 406.664 38.785 406.22 40.4427C405.776 42.1005 406.76 43.8044 408.418 44.2486C410.075 44.6927 411.779 43.7089 412.223 42.0512Z" fill="#E1E4E5"/>
<path d="M544.299 222.389C546.895 222.389 549 220.284 549 217.688C549 215.091 546.895 212.986 544.299 212.986C541.702 212.986 539.598 215.091 539.598 217.688C539.598 220.284 541.702 222.389 544.299 222.389Z" fill="#E1E4E5"/>
<path d="M426.133 282.069L437.368 270.834C437.766 270.436 438.404 270.436 438.882 270.834C439.28 271.232 439.28 271.87 438.882 272.348L427.647 283.583C427.248 283.981 426.611 283.981 426.133 283.583C425.734 283.184 425.734 282.547 426.133 282.069Z" fill="#E1E4E5"/>
<path d="M433.066 282.149L436.333 278.882C436.732 278.483 437.369 278.483 437.847 278.882C438.246 279.28 438.246 279.918 437.847 280.396L434.58 283.663C434.182 284.061 433.544 284.061 433.066 283.663C432.668 283.185 432.668 282.547 433.066 282.149Z" fill="#E1E4E5"/>
<path d="M528.68 113.943H528.76C529.397 122.947 536.409 123.107 536.409 123.107C536.409 123.107 528.68 123.266 528.68 133.704C528.68 123.266 520.951 123.107 520.951 123.107C520.951 123.107 528.043 122.947 528.68 113.943Z" fill="#E1E4E5"/>
<path d="M272.506 177.688L245.016 278.085L254.817 266.85C251.231 268.763 247.008 270.277 242.307 271.313C237.686 272.348 232.586 272.986 227.327 273.225C222.068 273.544 216.491 273.464 210.833 273.225C205.176 272.986 199.439 272.587 193.543 272.03C184.937 271.312 177.288 277.687 176.571 286.292C175.854 294.5 181.75 301.83 189.718 303.105C195.774 304.061 201.909 304.938 208.204 305.735C214.499 306.452 220.953 307.009 227.646 307.169C234.339 307.328 241.271 307.089 248.443 306.053C255.614 305.017 263.024 303.185 270.275 299.998C274.897 298.005 278.243 294.181 279.677 289.719L279.996 288.683L312.904 189.959C316.649 178.883 310.593 166.851 299.518 163.186C288.442 159.521 276.41 165.497 272.745 176.572C272.745 176.891 272.586 177.289 272.506 177.688Z" fill="#F8AE9D"/>
<path d="M333.544 315.535C333.943 318.403 335.138 320.555 336.333 320.395C337.528 320.236 338.166 317.846 337.767 314.977C337.369 312.109 336.174 309.957 334.979 310.117C333.783 310.356 333.146 312.746 333.544 315.535Z" fill="#B55E63"/>
<path fill-rule="evenodd" clip-rule="evenodd" d="M286.452 280.475C286.452 280.396 286.372 280.316 286.292 280.236C286.133 280.077 285.734 279.838 285.256 279.44C282.786 277.607 282.308 273.384 281.591 266.372C281.352 264.061 281.033 261.432 280.715 258.484C279.041 246.133 277.846 238.962 273.862 221.432C273.464 219.679 273.145 217.926 272.906 216.093C272.587 214.101 272.268 212.189 271.79 210.197C271.472 209.002 271.233 207.727 271.312 206.452C271.472 204.858 271.551 203.345 271.551 201.751C271.631 200.476 271.631 199.201 271.631 197.926V196.811C271.631 194.978 271.631 193.145 271.551 191.313C271.392 178.086 271.233 170.676 280.715 164.142C283.185 162.468 286.213 160.795 290.117 159.202C293.224 157.847 296.89 156.492 301.113 155.138C302.945 154.5 304.778 153.943 306.611 153.385L311.232 152.11L358.881 138.883C359.359 138.724 359.837 138.724 360.315 138.724C361.351 138.803 363.423 138.883 366.292 139.122L367.646 139.202C368.363 139.281 369.16 139.281 369.957 139.361C374.021 139.68 378.961 140.158 384.379 140.795C386.132 141.034 387.885 141.194 389.718 141.433C395.216 142.15 399.678 144.062 403.263 146.771C409.478 151.552 412.905 159.042 414.1 167.648C414.817 172.508 414.817 177.767 414.339 183.106C414.18 185.257 413.861 187.329 413.542 189.48C413.223 191.392 412.905 193.305 412.427 195.217C411.152 200.954 410.036 206.691 409.08 212.428L408.682 214.819C408.602 215.376 408.522 215.934 408.443 216.412C408.363 217.05 408.203 217.687 408.124 218.325C405.494 235.695 404.219 252.587 404.459 264.46L404.538 266.611C404.857 274.579 405.733 283.583 407.486 293.543C407.566 294.021 407.646 294.579 407.725 295.057C407.805 295.455 407.885 295.854 407.964 296.332C408.044 296.65 408.044 297.049 407.964 297.368C412.905 302.627 415.136 309.718 410.435 315.136C410.116 315.455 409.877 315.774 409.558 316.093C407.088 318.403 403.582 318.802 400.235 318.961L308.125 322.547C299.44 322.865 290.595 319.28 289.001 310.754C288.364 307.407 288.125 303.344 288.523 298.563C288.523 298.563 288.842 298.244 289.4 297.766C287.966 297.288 286.93 296.013 286.93 294.419C286.93 292.188 286.85 290.117 286.85 288.204C286.77 286.133 286.691 284.061 286.611 281.989C286.531 281.352 286.452 280.874 286.452 280.475Z" fill="white"/>
<path d="M286.452 280.476L283.265 280.794V280.635V280.476H286.452ZM306.611 153.305L305.655 150.278H305.734H305.814L306.611 153.305ZM408.044 297.368L405.734 299.519L404.618 298.324L404.937 296.73L408.044 297.368ZM288.523 298.404H291.711V298.563V298.722L288.523 298.404ZM289.4 297.607L290.436 294.579L295.535 296.332L291.551 299.997L289.4 297.607ZM288.125 277.607C289.081 278.245 289.639 279.36 289.639 280.476H283.265C283.265 281.432 283.743 282.308 284.539 282.866L288.125 277.607ZM287.169 276.89C287.647 277.209 287.966 277.448 288.125 277.607L284.46 282.866C284.061 282.547 283.663 282.308 283.265 281.99L287.169 276.89ZM284.779 266.053C285.177 269.639 285.416 272.189 285.894 274.101C286.372 276.014 286.85 276.651 287.169 276.89L283.344 281.99C281.193 280.396 280.237 277.926 279.679 275.535C279.121 273.145 278.802 270.117 278.404 266.691L284.779 266.053ZM283.822 258.085C284.221 261.113 284.539 263.743 284.779 266.053L278.404 266.691C278.165 264.38 277.926 261.751 277.528 258.882L283.822 258.085ZM276.89 220.715C280.954 238.404 282.149 245.576 283.822 258.085L277.528 258.962C275.854 246.691 274.739 239.679 270.675 222.149L276.89 220.715ZM275.934 215.536C276.253 217.369 276.492 219.042 276.89 220.636L270.675 222.07C270.277 220.237 269.958 218.325 269.639 216.572L275.934 215.536ZM274.818 209.48C275.297 211.552 275.695 213.624 276.014 215.616L269.719 216.652C269.4 214.66 269.081 212.827 268.683 210.994L274.818 209.48ZM274.42 206.691C274.34 207.409 274.5 208.285 274.818 209.401L268.603 210.915C268.285 209.64 267.966 207.966 268.046 206.213L274.42 206.691ZM274.659 201.831C274.579 203.504 274.5 205.098 274.42 206.771L268.046 206.213C268.205 204.699 268.285 203.186 268.285 201.672L274.659 201.831ZM274.739 198.006C274.739 199.281 274.739 200.636 274.659 201.911L268.285 201.672C268.364 200.476 268.364 199.201 268.364 198.006H274.739ZM274.739 197.688V198.006H268.364V197.688H274.739ZM274.739 196.811V197.688H268.364V196.811H274.739ZM274.739 191.313C274.739 193.066 274.818 194.899 274.818 196.811H268.444C268.444 194.899 268.444 193.066 268.364 191.313H274.739ZM282.468 166.771C278.324 169.64 276.492 172.508 275.536 176.014C274.5 179.839 274.579 184.461 274.659 191.233L268.285 191.313C268.205 184.859 268.125 179.202 269.32 174.341C270.675 169.242 273.464 165.098 278.802 161.433L282.468 166.771ZM291.312 162.15C287.567 163.744 284.699 165.258 282.468 166.771L278.802 161.513C281.512 159.68 284.779 157.927 288.763 156.254L291.312 162.15ZM302.069 158.086C297.846 159.521 294.34 160.795 291.312 162.07L288.842 156.174C292.109 154.819 295.774 153.385 300.077 151.951L302.069 158.086ZM307.567 156.333C305.734 156.891 303.902 157.449 302.069 158.086L300.077 152.031C301.91 151.393 303.822 150.835 305.655 150.278L307.567 156.333ZM312.029 155.138L307.408 156.413L305.734 150.278L310.356 149.003L312.029 155.138ZM359.758 141.911L312.109 155.138L310.436 149.003L358.085 135.776L359.758 141.911ZM360.156 141.911C359.997 141.911 359.838 141.911 359.678 141.991L358.005 135.855C358.802 135.616 359.599 135.537 360.475 135.616L360.156 141.911ZM366.053 142.23C363.184 142.071 361.192 141.911 360.236 141.831L360.475 135.457C361.511 135.537 363.662 135.616 366.531 135.855L366.053 142.23ZM367.407 142.389C366.929 142.389 366.451 142.31 366.053 142.31L366.531 135.935C366.929 135.935 367.407 136.015 367.885 136.015L367.407 142.389ZM369.718 142.549C368.921 142.469 368.124 142.389 367.407 142.389L367.885 136.015C368.602 136.094 369.399 136.094 370.196 136.174L369.718 142.549ZM383.981 143.983C379.2 143.425 374.419 142.947 369.638 142.549L370.116 136.174C374.18 136.493 379.2 136.971 384.698 137.608L383.981 143.983ZM388.841 144.541C387.168 144.302 385.574 144.142 383.981 143.903L384.698 137.608C386.292 137.768 387.965 138.007 389.638 138.246L388.841 144.541ZM389.24 144.62L388.841 144.541L389.718 138.246L390.116 138.326L389.24 144.62ZM401.271 149.321C398.244 147.011 394.339 145.337 389.24 144.62L390.116 138.326C396.172 139.122 401.112 141.194 405.176 144.302L401.271 149.321ZM410.913 168.126C409.718 159.999 406.61 153.465 401.271 149.321L405.176 144.302C412.267 149.8 415.933 158.086 417.208 167.25L410.913 168.126ZM411.152 182.867C411.63 177.688 411.55 172.748 410.913 168.126L417.208 167.25C417.925 172.429 418.004 177.847 417.526 183.425L411.152 182.867ZM410.355 189.002C410.674 186.931 410.913 184.859 411.152 182.867L417.526 183.425C417.287 185.576 417.048 187.807 416.729 190.038L410.355 189.002ZM409.319 194.58C409.718 192.747 410.116 190.915 410.355 189.002L416.65 190.038C416.331 192.03 415.933 194.022 415.534 196.014L409.319 194.58ZM405.893 211.95C406.849 206.134 407.965 200.317 409.24 194.58L415.455 195.935C414.18 201.592 413.064 207.249 412.188 212.986L405.893 211.95ZM405.574 214.341L405.973 211.95L412.267 212.986L411.869 215.377L405.574 214.341ZM405.256 216.014C405.335 215.456 405.415 214.899 405.495 214.42L411.789 215.377C411.71 215.934 411.63 216.492 411.55 217.05L405.256 216.014ZM405.016 218.006C405.096 217.369 405.255 216.652 405.335 216.014L411.63 216.97C411.55 217.608 411.471 218.245 411.311 218.883L405.016 218.006ZM401.351 264.619C401.112 252.508 402.387 235.456 405.016 217.926L411.311 218.883C408.682 236.173 407.487 252.826 407.726 264.46L401.351 264.619ZM401.351 266.771L401.271 264.619L407.646 264.46L407.726 266.611L401.351 266.771ZM404.379 294.181C402.626 284.061 401.67 274.978 401.431 266.85L407.805 266.611C408.124 274.42 409.001 283.264 410.674 293.065L404.379 294.181ZM404.618 295.695C404.538 295.217 404.459 294.738 404.379 294.26L410.674 293.065C410.753 293.623 410.833 294.101 410.993 294.579L404.618 295.695ZM404.857 296.97C404.777 296.571 404.698 296.093 404.618 295.695L410.913 294.579C410.992 294.978 411.072 295.376 411.152 295.774L404.857 296.97ZM404.857 296.81C404.857 296.89 404.857 296.89 404.857 296.97L411.152 295.774C411.311 296.491 411.311 297.288 411.152 297.926L404.857 296.81ZM410.355 295.217C413.064 298.165 415.295 301.75 416.012 305.575C416.73 309.559 415.933 313.623 412.905 317.208L408.124 312.985C409.797 311.073 410.196 309.001 409.797 306.77C409.319 304.459 407.965 301.91 405.734 299.519L410.355 295.217ZM412.825 317.208C412.506 317.607 412.108 318.005 411.71 318.404L407.327 313.782C407.566 313.543 407.805 313.304 408.044 313.065L412.825 317.208ZM411.71 318.324C408.283 321.511 403.582 321.91 400.315 321.989L400.076 315.615C403.503 315.455 405.893 315.057 407.327 313.623L411.71 318.324ZM400.315 322.069L308.284 325.575L308.045 319.2L400.156 315.615L400.315 322.069ZM308.284 325.575C303.503 325.734 298.484 324.858 294.42 322.627C290.197 320.316 286.93 316.571 285.894 311.153L292.189 309.957C292.826 313.145 294.659 315.455 297.448 316.969C300.316 318.563 304.061 319.28 307.966 319.121L308.284 325.575ZM285.894 311.232C285.177 307.647 284.938 303.264 285.336 298.165L291.711 298.722C291.312 303.264 291.631 307.089 292.189 310.117L285.894 311.232ZM285.336 298.404C285.336 297.766 285.496 297.368 285.575 297.209C285.735 296.89 285.894 296.571 286.213 296.252L286.292 296.173L286.372 296.093C286.691 295.774 287.01 295.535 287.328 295.217L291.631 299.918C291.392 300.157 291.153 300.316 291.073 300.475L291.153 300.396C291.153 300.396 291.233 300.316 291.312 300.236C291.472 299.997 291.551 299.838 291.711 299.599C291.711 299.519 291.79 299.28 291.87 299.201C291.87 299.041 291.95 298.643 291.95 298.404H285.336ZM290.037 294.181C290.037 294.26 290.037 294.26 290.117 294.34C290.197 294.42 290.276 294.499 290.356 294.499L288.284 300.555C285.735 299.679 283.663 297.288 283.663 294.181H290.037ZM289.958 287.886C290.037 289.878 290.037 291.95 290.037 294.181L283.663 294.26C283.663 292.029 283.583 289.958 283.583 288.125L289.958 287.886ZM289.719 281.591C289.798 283.344 289.958 285.496 289.958 287.886L283.583 288.045C283.504 285.974 283.424 283.982 283.344 281.91L289.719 281.591ZM289.559 280.077C289.639 280.635 289.639 281.113 289.639 281.591L283.265 281.91C283.265 281.511 283.265 281.193 283.185 280.794L289.559 280.077Z" fill="#E1E4E5"/>
<path d="M358.562 141.034C358.562 141.034 354.259 157.21 338.163 161.672C317.685 167.329 314.578 160.477 314.578 160.477C315.056 157.528 315.295 154.66 315.136 151.632C315.056 150.437 314.976 149.321 314.817 148.126C314.419 144.859 313.781 141.194 312.825 137.13C312.586 136.174 312.347 135.138 312.108 134.102V133.943C326.132 128.684 337.127 120.796 343.821 109.083L345.813 107.489L347.167 106.453L347.566 107.25L347.645 109.959C347.884 122.708 350.036 130.278 358.562 141.034ZM364.219 166.532L333.462 280.077L344.458 267.328C340.394 269.48 335.693 271.153 330.514 272.348C325.335 273.543 319.598 274.181 313.701 274.499C307.725 274.818 301.59 274.738 295.216 274.499C288.921 274.26 282.387 273.782 275.853 273.225H275.773C266.052 272.348 257.527 279.599 256.73 289.4C255.933 298.722 262.467 306.929 271.471 308.443C278.244 309.559 285.176 310.595 292.188 311.392C299.2 312.188 306.53 312.826 314.02 312.985C321.51 313.144 329.319 312.826 337.287 311.71C345.335 310.515 353.621 308.443 361.749 304.937C366.928 302.706 370.673 298.324 372.346 293.384L372.745 292.189L409.637 180.476C413.78 167.887 407.087 154.341 394.657 150.198C382.227 146.054 368.761 152.748 364.617 165.337C364.538 165.735 364.378 166.214 364.219 166.532Z" fill="#F8AE9D"/>
<path fill-rule="evenodd" clip-rule="evenodd" d="M1.59375 323.663V317.687C1.59375 314.261 5.02001 311.472 9.24308 311.472H539.756C543.979 311.472 547.406 314.261 547.406 317.687V323.663C547.406 327.089 543.979 329.878 539.756 329.878H516.011C512.665 329.878 509.956 332.587 509.956 335.934C509.956 336.969 508.203 337.846 506.051 337.846H28.5258C26.3744 337.846 24.7011 336.969 24.7011 335.934C24.7011 332.587 21.992 329.878 18.6454 329.878H9.24308C5.02001 329.878 1.59375 327.089 1.59375 323.663Z" fill="white"/>
<path d="M3.18722 317.766V323.742H0V317.766H3.18722ZM9.24294 313.144C5.57764 313.144 3.18722 315.535 3.18722 317.766H0C0 313.144 4.46211 310.037 9.24294 309.957V313.144ZM539.756 313.144H9.24294V309.957H539.756V313.144ZM545.812 317.766C545.812 315.535 543.421 313.144 539.756 313.144V309.957C544.537 309.957 548.999 313.144 548.999 317.766H545.812ZM545.812 323.662V317.686H548.999V323.662H545.812ZM539.756 328.284C543.421 328.284 545.812 325.973 545.812 323.662H548.999C548.999 328.284 544.537 331.471 539.756 331.471V328.284ZM516.011 328.284H539.756V331.471H516.011V328.284ZM506.051 336.252C506.928 336.252 507.645 336.092 508.123 335.853C508.681 335.614 508.362 335.534 508.362 335.933H511.549C511.549 337.367 510.354 338.323 509.557 338.722C508.601 339.2 507.406 339.439 506.131 339.439V336.252H506.051ZM28.5256 336.252H506.051V339.439H28.5256V336.252ZM26.2946 335.933C26.2946 335.534 25.9759 335.614 26.5336 335.853C26.932 336.092 27.6491 336.252 28.5256 336.252V339.439C27.2507 339.439 26.0555 339.2 25.0994 338.722C24.2229 338.323 23.1074 337.447 23.1074 335.933H26.2946ZM9.24294 328.284H18.6453V331.471H9.24294V328.284ZM3.18722 323.662C3.18722 325.893 5.57764 328.284 9.24294 328.284V331.471C4.46211 331.471 0 328.284 0 323.662H3.18722ZM23.1074 335.933C23.1074 333.463 21.1153 331.471 18.6453 331.471V328.284C22.8683 328.284 26.2946 331.71 26.2946 335.933H23.1074ZM516.011 331.471C513.541 331.471 511.549 333.463 511.549 335.933H508.362C508.362 331.71 511.788 328.284 516.011 328.284V331.471Z" fill="#E1E4E5"/>
<path d="M65.818 164.222L90.6783 269.401L91.3158 272.19L92.9891 279.281C93.7062 282.309 96.4153 284.54 99.6026 284.54H267.091C271.474 284.54 274.74 280.476 273.705 276.174L246.534 161.195C245.816 158.167 243.107 155.936 239.92 155.936H72.4315C68.0491 155.856 64.7821 159.92 65.818 164.222Z" fill="#81DC7F"/>
<path d="M147.169 224.62C147.966 231.871 154.499 237.688 161.75 237.688C169.001 237.688 174.18 231.792 173.384 224.62C172.587 217.369 166.053 211.553 158.802 211.553C151.551 211.553 146.372 217.369 147.169 224.62Z" fill="white"/>
<path d="M233.306 155.855L262.23 284.46H267.09C271.473 284.46 274.66 280.396 273.704 276.093L246.533 161.114C245.816 158.087 243.106 155.855 239.919 155.855H233.306ZM184.86 283.424L189.481 309.161H174.342L169.721 283.424H184.86Z" fill="#3F6F3E"/>
<path d="M210.595 306.771L207.169 301.91C205.973 300.157 203.981 299.201 201.83 299.201H155.775C153.305 299.201 151.073 300.556 149.958 302.707L147.647 307.169C146.532 309.241 148.046 311.711 150.436 311.711H208.045C210.515 311.711 212.029 308.843 210.595 306.771Z" fill="#3F6F3E"/>
<path fill-rule="evenodd" clip-rule="evenodd" d="M332.426 108.684V127.409L346.131 116.333C346.131 116.333 350.355 98.4048 353.781 85.0982C355.932 76.7317 361.111 48.5248 340.076 49.7997C322.865 19.282 272.666 38.1663 272.268 75.4568C281.909 129.64 273.702 146.771 273.702 146.771C302.068 148.444 316.49 135.297 332.426 108.684Z" fill="#3F6F3E"/>
<path fill-rule="evenodd" clip-rule="evenodd" d="M312.507 101.593L314.818 117.927L301.511 109.959C301.511 109.959 295.615 94.8201 290.993 83.6649C288.045 76.653 279.997 52.6691 298.483 51.1552C309.718 22.3905 355.853 32.5896 360.794 65.0196C359.2 113.465 368.443 127.409 368.443 127.409C343.901 132.509 329.718 122.788 312.507 101.593Z" fill="#3F6F3E"/>
<path d="M304.86 137.768C304.86 137.768 351.234 133.226 347.968 104.382C344.701 75.5375 348.525 55.5376 318.725 57.2109C288.924 58.8842 284.462 70.5176 283.187 80.398C281.992 90.2783 292.669 138.166 304.86 137.768Z" fill="#F8AE9D"/>
<path fill-rule="evenodd" clip-rule="evenodd" d="M346.291 88.2864C340.394 89.2425 341.112 93.0672 339.518 92.7485C331.39 91.0752 298.562 93.3062 294.339 75.5375C289.08 86.6131 287.805 89.3222 276.172 92.3501V59.8404L349.478 52.9082C349.558 52.9082 348.362 87.9677 346.291 88.2864Z" fill="#3F6F3E"/>
<path opacity="0.76" fill-rule="evenodd" clip-rule="evenodd" d="M65.2591 4.78027L94.741 50.1982H35.7773L65.2591 4.78027Z" fill="url(#paint3_linear_177_595)"/>
<path opacity="0.76" fill-rule="evenodd" clip-rule="evenodd" d="M462.865 27.8877L482.786 58.9631H442.945L462.865 27.8877Z" fill="url(#paint4_linear_177_595)"/>
<path fill-rule="evenodd" clip-rule="evenodd" d="M510.356 275.934H503.184C502.467 273.942 500.555 272.508 498.324 272.508H453.782C450.914 272.508 448.523 274.819 448.523 277.767V290.834C448.523 299.838 454.978 307.328 463.503 308.842C464.22 309.002 464.778 309.559 464.778 310.356C464.778 311.153 465.416 311.79 466.213 311.79H486.212C487.009 311.79 487.726 311.153 487.726 310.276C487.726 309.559 488.284 308.922 489.001 308.762C493.862 307.727 497.925 304.778 500.555 300.794H504.14C510.993 300.794 516.571 295.217 516.571 288.364V282.069C516.571 278.643 513.782 275.934 510.356 275.934ZM509.399 288.364C509.399 291.312 507.009 293.703 504.061 293.703H503.264C503.423 292.747 503.503 291.791 503.503 290.834V283.026H509.399V288.364Z" fill="white"/>
<path d="M510.355 274.341H504.14C503.821 273.863 503.502 273.385 503.104 272.907C501.829 271.632 500.076 270.915 498.244 270.915H453.702C449.957 270.915 446.85 273.943 446.85 277.768V290.835C446.85 300.477 453.702 308.684 463.104 310.437C463.184 312.11 464.459 313.385 466.132 313.385H486.132C487.805 313.385 489.24 312.03 489.24 310.357C494.18 309.321 498.403 306.373 501.271 302.469H503.981C511.71 302.469 518.004 296.174 518.004 288.445V282.07C518.164 277.768 514.658 274.341 510.355 274.341ZM505.096 284.62H507.805V288.365C507.805 290.118 506.61 291.552 505.016 291.951C505.016 291.552 505.096 291.234 505.096 290.835V284.62ZM488.682 307.17C487.248 307.488 486.212 308.684 486.132 310.118H466.371C466.292 308.684 465.256 307.488 463.822 307.249C455.854 305.815 450.116 298.883 450.116 290.755V277.688C450.116 275.696 451.79 274.023 453.782 274.023H498.323C499.279 274.023 500.236 274.421 500.873 275.058C501.51 275.696 501.909 276.652 501.909 277.608V290.835C501.909 298.724 496.331 305.576 488.682 307.17ZM514.976 288.365C514.976 294.341 510.116 299.202 504.14 299.202H503.263C503.821 297.927 504.299 296.652 504.618 295.218C508.204 294.979 511.072 291.951 511.072 288.285V282.947C511.072 282.07 510.355 281.353 509.479 281.353H505.096V277.688C505.096 277.608 505.096 277.529 505.096 277.449H510.355C512.905 277.449 514.976 279.521 514.976 282.07V288.365Z" fill="#E1E4E5"/>
<defs>
<linearGradient id="paint0_linear_177_595" x1="99.0521" y1="350.112" x2="95.6139" y2="-27.6567" gradientUnits="userSpaceOnUse">
<stop stop-color="white"/>
<stop offset="1" stop-color="#EEEEEE"/>
</linearGradient>
<linearGradient id="paint1_linear_177_595" x1="301.348" y1="104.447" x2="300.194" y2="-22.9594" gradientUnits="userSpaceOnUse">
<stop stop-color="white"/>
<stop offset="1" stop-color="#EEEEEE"/>
</linearGradient>
<linearGradient id="paint2_linear_177_595" x1="16.6677" y1="119.91" x2="74.1087" y2="43.3866" gradientUnits="userSpaceOnUse">
<stop stop-color="white"/>
<stop offset="1" stop-color="#EEEEEE"/>
</linearGradient>
<linearGradient id="paint3_linear_177_595" x1="65.4876" y1="75.6709" x2="64.4087" y2="-44.6244" gradientUnits="userSpaceOnUse">
<stop stop-color="white"/>
<stop offset="1" stop-color="#EEEEEE"/>
</linearGradient>
<linearGradient id="paint4_linear_177_595" x1="463.024" y1="76.3924" x2="462.276" y2="-5.91527" gradientUnits="userSpaceOnUse">
<stop stop-color="white"/>
<stop offset="1" stop-color="#EEEEEE"/>
</linearGradient>
</defs>
</svg>
