<svg width="376" height="159" viewBox="0 0 376 159" fill="none" xmlns="http://www.w3.org/2000/svg">
<path d="M226.46 157.598H141.572V32.6148C141.572 16.3493 153.029 3.11621 167.112 3.11621H200.921C215.003 3.11621 226.46 16.3493 226.46 32.6148V157.598Z" fill="#E6E6E6"/>
<path d="M197.452 32.2439H170.95C168.823 32.2439 167.092 30.2446 167.092 27.7871V19.5994C167.092 17.1418 168.823 15.1426 170.95 15.1426H197.452C199.579 15.1426 201.31 17.1418 201.31 19.5994V27.7871C201.31 30.2446 199.579 32.2439 197.452 32.2439Z" fill="#FBFFFB"/>
<path d="M184.838 67.7754V6.59082H184.508V67.7754H184.838Z" fill="#E6E6E6"/>
<path d="M216.51 135.421H209.758C207.81 135.421 206.225 133.59 206.225 131.34V107.581C206.225 105.33 207.81 103.499 209.758 103.499H216.51C218.458 103.499 220.044 105.33 220.044 107.581V131.34C220.044 133.59 218.458 135.421 216.51 135.421Z" fill="#FBFFFB"/>
<path d="M172.423 152.141H153.827C151.878 152.141 150.293 150.31 150.293 148.06V106.059C150.293 103.809 151.878 101.978 153.827 101.978H172.423C174.372 101.978 175.957 103.809 175.957 106.059V148.06C175.957 150.31 174.372 152.141 172.423 152.141Z" fill="#FBFFFB"/>
<path d="M176.412 105.209H149.856C148.856 105.209 148.011 104.499 147.703 103.401C147.395 102.303 147.718 101.156 148.528 100.478L161.948 89.2452C162.751 88.5739 163.826 88.5802 164.623 89.2616L177.758 100.495C178.557 101.178 178.872 102.324 178.561 103.414C178.249 104.505 177.406 105.209 176.412 105.209Z" fill="#CCCCCC"/>
<path d="M219.276 105.588H207.01C206.011 105.588 205.165 104.879 204.857 103.781C204.549 102.682 204.873 101.535 205.682 100.858L211.881 95.6694C212.684 94.9976 213.758 95.0039 214.555 95.6857L220.622 100.874C221.421 101.557 221.736 102.703 221.425 103.793C221.113 104.884 220.27 105.588 219.276 105.588Z" fill="#CCCCCC"/>
<path d="M213.803 83.3599H206.211C204.494 83.3599 203.098 81.7466 203.098 79.7637V55.0337C203.098 53.0508 204.494 51.4375 206.211 51.4375H213.803C215.52 51.4375 216.917 53.0508 216.917 55.0337V79.7637C216.917 81.7467 215.52 83.3599 213.803 83.3599Z" fill="#FBFFFB"/>
<path d="M187.809 83.3599H180.217C178.5 83.3599 177.104 81.7466 177.104 79.7637V55.0337C177.104 53.0508 178.5 51.4375 180.217 51.4375H187.809C189.526 51.4375 190.922 53.0508 190.922 55.0337V79.7637C190.922 81.7467 189.526 83.3599 187.809 83.3599Z" fill="#FBFFFB"/>
<path d="M161.487 83.3599H153.895C152.178 83.3599 150.781 81.7466 150.781 79.7637V55.0337C150.781 53.0508 152.178 51.4375 153.895 51.4375H161.487C163.204 51.4375 164.6 53.0508 164.6 55.0337V79.7637C164.6 81.7467 163.204 83.3599 161.487 83.3599Z" fill="#FBFFFB"/>
<path d="M216.094 54.2865H151.933C150.784 54.2865 150.08 53.3465 149.893 52.4153C149.705 51.4834 149.978 50.2814 151.009 49.6958L183.434 31.2922C184.018 30.9608 184.715 30.9638 185.297 31.3015L217.034 49.705C217.933 50.2268 218.364 51.2946 218.132 52.4254C217.9 53.5558 217.1 54.2865 216.094 54.2865Z" fill="#CCCCCC"/>
<path d="M226.296 158.412H144.875V148.868C144.875 141.348 154.513 135.23 166.359 135.23H226.296V158.412Z" fill="#3B3B3B"/>
<path d="M194.709 121.74H190.432V139.982H194.709V121.74Z" fill="#3B3B3B"/>
<path d="M226.293 121.74H222.016V139.982H226.293V121.74Z" fill="#3B3B3B"/>
<path d="M223.334 123.261H194.051V123.641H223.334V123.261Z" fill="#3B3B3B"/>
<path d="M220.044 67.3955H148.975V67.7755H220.044V67.3955Z" fill="#E6E6E6"/>
<path d="M223.334 129.342H194.051V129.722H223.334V129.342Z" fill="#3B3B3B"/>
<path d="M223.334 132.38H194.051V132.76H223.334V132.38Z" fill="#3B3B3B"/>
<path d="M200.633 16.764H167.4C166.883 16.764 166.446 16.397 166.286 15.8284C166.127 15.2602 166.294 14.6664 166.713 14.3157L183.508 0.258363C183.923 -0.0886355 184.48 -0.0864098 184.892 0.266897L201.33 14.3242C201.744 14.6776 201.907 15.2706 201.746 15.8351C201.585 16.3992 201.148 16.764 200.633 16.764Z" fill="#CCCCCC"/>
<path d="M157.53 127.44H151.607V128.2H157.53V127.44Z" fill="#E6E6E6"/>
<path d="M130.111 157.598H45.2227V32.6148C45.2227 16.3493 56.6797 3.11621 70.7621 3.11621H104.571C118.654 3.11621 130.111 16.3493 130.111 32.6148V157.598Z" fill="#E6E6E6"/>
<path d="M101.102 32.2439H74.6007C72.4731 32.2439 70.7422 30.2446 70.7422 27.7871V19.5994C70.7422 17.1418 72.4731 15.1426 74.6007 15.1426H101.102C103.23 15.1426 104.961 17.1418 104.961 19.5994V27.7871C104.961 30.2446 103.23 32.2439 101.102 32.2439Z" fill="#FBFFFB"/>
<path d="M88.4883 67.7755V6.59082H88.1587V67.7755H88.4883Z" fill="#E6E6E6"/>
<path d="M120.162 135.421H113.411C111.462 135.421 109.877 133.59 109.877 131.34V107.581C109.877 105.33 111.462 103.499 113.411 103.499H120.162C122.111 103.499 123.696 105.33 123.696 107.581V131.34C123.696 133.59 122.111 135.421 120.162 135.421Z" fill="#FBFFFB"/>
<path d="M76.0753 152.141H57.4791C55.5305 152.141 53.9453 150.31 53.9453 148.06V106.059C53.9453 103.809 55.5305 101.978 57.4791 101.978H76.0753C78.0239 101.978 79.6091 103.809 79.6091 106.059V148.06C79.6091 150.31 78.0239 152.141 76.0753 152.141Z" fill="#FBFFFB"/>
<path d="M80.0622 105.209H53.506C52.5065 105.209 51.6615 104.499 51.3532 103.401C51.0451 102.303 51.3688 101.156 52.178 100.478L65.5984 89.2452C66.4013 88.5739 67.4763 88.5802 68.273 89.2616L81.4087 100.495C82.2078 101.178 82.5226 102.324 82.2113 103.414C81.8998 104.505 81.0563 105.209 80.0622 105.209Z" fill="#CCCCCC"/>
<path d="M122.926 105.588H110.66C109.661 105.588 108.816 104.879 108.508 103.781C108.199 102.682 108.523 101.535 109.332 100.858L115.531 95.6694C116.334 94.9976 117.409 95.0039 118.206 95.6857L124.273 100.874C125.072 101.557 125.387 102.703 125.075 103.793C124.764 104.884 123.92 105.588 122.926 105.588Z" fill="#CCCCCC"/>
<path d="M117.458 83.3599H109.865C108.149 83.3599 106.752 81.7466 106.752 79.7637V55.0337C106.752 53.0508 108.149 51.4375 109.865 51.4375H117.458C119.174 51.4375 120.571 53.0508 120.571 55.0337V79.7637C120.571 81.7467 119.174 83.3599 117.458 83.3599Z" fill="#FBFFFB"/>
<path d="M91.4634 83.3599H83.8712C82.1544 83.3599 80.7578 81.7466 80.7578 79.7637V55.0337C80.7578 53.0508 82.1544 51.4375 83.8712 51.4375H91.4634C93.1802 51.4375 94.5768 53.0508 94.5768 55.0337V79.7637C94.5768 81.7467 93.1802 83.3599 91.4634 83.3599Z" fill="#FBFFFB"/>
<path d="M65.1412 83.3599H57.5489C55.8321 83.3599 54.4355 81.7466 54.4355 79.7637V55.0337C54.4355 53.0508 55.8321 51.4375 57.5489 51.4375H65.1412C66.8579 51.4375 68.2545 53.0508 68.2545 55.0337V79.7637C68.2545 81.7467 66.8579 83.3599 65.1412 83.3599Z" fill="#FBFFFB"/>
<path d="M119.748 54.2865H55.5874C54.4382 54.2865 53.7347 53.3465 53.5472 52.4153C53.3597 51.4834 53.6322 50.2814 54.6636 49.6958L87.0879 31.2922C87.6722 30.9608 88.3688 30.9638 88.9515 31.3015L120.688 49.705C121.587 50.2268 122.018 51.2946 121.787 52.4254C121.554 53.5558 120.754 54.2865 119.748 54.2865Z" fill="#CCCCCC"/>
<path d="M129.946 158.412H85.3633V148.868C85.3633 141.348 90.6405 135.23 97.1271 135.23H129.946V158.412Z" fill="#3B3B3B"/>
<path d="M98.3593 121.74H94.082V139.982H98.3593V121.74Z" fill="#3B3B3B"/>
<path d="M129.945 121.74H125.668V139.982H129.945V121.74Z" fill="#3B3B3B"/>
<path d="M126.984 123.261H97.7012V123.641H126.984V123.261Z" fill="#3B3B3B"/>
<path d="M123.694 67.3955H52.625V67.7755H123.694V67.3955Z" fill="#E6E6E6"/>
<path d="M126.984 129.342H97.7012V129.722H126.984V129.342Z" fill="#3B3B3B"/>
<path d="M126.984 132.38H97.7012V132.76H126.984V132.38Z" fill="#3B3B3B"/>
<path d="M104.284 16.764H71.0506C70.5333 16.764 70.096 16.397 69.9365 15.8284C69.7769 15.2602 69.9445 14.6664 70.3633 14.3157L87.1581 0.258363C87.5736 -0.0886355 88.1299 -0.0864098 88.5422 0.266897L104.981 14.3242C105.394 14.6776 105.557 15.2706 105.396 15.8351C105.235 16.3992 104.798 16.764 104.284 16.764Z" fill="#CCCCCC"/>
<path d="M61.1802 127.44H55.2578V128.2H61.1802V127.44Z" fill="#E6E6E6"/>
<path d="M319.702 157.598H234.814V32.6148C234.814 16.3493 246.271 3.11621 260.354 3.11621H294.163C308.245 3.11621 319.702 16.3493 319.702 32.6148V157.598Z" fill="#E6E6E6"/>
<path d="M290.694 32.2439H264.192C262.065 32.2439 260.334 30.2446 260.334 27.7871V19.5994C260.334 17.1418 262.065 15.1426 264.192 15.1426H290.694C292.821 15.1426 294.552 17.1418 294.552 19.5994V27.7871C294.552 30.2446 292.821 32.2439 290.694 32.2439Z" fill="#FBFFFB"/>
<path d="M278.08 67.7754V6.59082H277.751V67.7754H278.08Z" fill="#E6E6E6"/>
<path d="M309.754 135.421H303.003C301.054 135.421 299.469 133.59 299.469 131.34V107.581C299.469 105.33 301.054 103.499 303.003 103.499H309.754C311.703 103.499 313.288 105.33 313.288 107.581V131.34C313.288 133.59 311.703 135.421 309.754 135.421Z" fill="#FBFFFB"/>
<path d="M265.665 152.141H247.069C245.12 152.141 243.535 150.31 243.535 148.06V106.059C243.535 103.809 245.12 101.978 247.069 101.978H265.665C267.614 101.978 269.199 103.809 269.199 106.059V148.06C269.199 150.31 267.614 152.141 265.665 152.141Z" fill="#FBFFFB"/>
<path d="M269.654 105.209H243.098C242.098 105.209 241.253 104.499 240.945 103.401C240.637 102.303 240.961 101.156 241.77 100.478L255.19 89.2452C255.993 88.5739 257.068 88.5802 257.865 89.2616L271 100.495C271.8 101.178 272.114 102.324 271.803 103.414C271.492 104.505 270.648 105.209 269.654 105.209Z" fill="#CCCCCC"/>
<path d="M312.518 105.588H300.252C299.253 105.588 298.408 104.879 298.099 103.781C297.791 102.682 298.115 101.535 298.924 100.858L305.123 95.6694C305.926 94.9976 307.001 95.0039 307.797 95.6857L313.864 100.874C314.663 101.557 314.978 102.703 314.667 103.793C314.356 104.884 313.512 105.588 312.518 105.588Z" fill="#CCCCCC"/>
<path d="M307.047 83.3599H299.455C297.738 83.3599 296.342 81.7466 296.342 79.7637V55.0337C296.342 53.0508 297.738 51.4375 299.455 51.4375H307.047C308.764 51.4375 310.161 53.0508 310.161 55.0337V79.7637C310.161 81.7467 308.764 83.3599 307.047 83.3599Z" fill="#FBFFFB"/>
<path d="M281.053 83.3599H273.461C271.744 83.3599 270.348 81.7466 270.348 79.7637V55.0337C270.348 53.0508 271.744 51.4375 273.461 51.4375H281.053C282.77 51.4375 284.167 53.0508 284.167 55.0337V79.7637C284.167 81.7467 282.77 83.3599 281.053 83.3599Z" fill="#FBFFFB"/>
<path d="M254.731 83.3599H247.139C245.422 83.3599 244.025 81.7466 244.025 79.7637V55.0337C244.025 53.0508 245.422 51.4375 247.139 51.4375H254.731C256.448 51.4375 257.844 53.0508 257.844 55.0337V79.7637C257.844 81.7467 256.448 83.3599 254.731 83.3599Z" fill="#FBFFFB"/>
<path d="M309.338 54.2865H245.177C244.028 54.2865 243.325 53.3465 243.137 52.4153C242.95 51.4834 243.222 50.2814 244.253 49.6958L276.678 31.2922C277.262 30.9608 277.959 30.9638 278.541 31.3015L310.278 49.705C311.177 50.2268 311.608 51.2946 311.376 52.4254C311.144 53.5558 310.344 54.2865 309.338 54.2865Z" fill="#CCCCCC"/>
<path d="M319.538 158.412H274.955V148.868C274.955 141.348 280.232 135.23 286.719 135.23H319.538V158.412Z" fill="#3B3B3B"/>
<path d="M287.951 121.74H283.674V139.982H287.951V121.74Z" fill="#3B3B3B"/>
<path d="M319.537 121.74H315.26V139.982H319.537V121.74Z" fill="#3B3B3B"/>
<path d="M316.576 123.261H287.293V123.641H316.576V123.261Z" fill="#3B3B3B"/>
<path d="M313.286 67.3955H242.217V67.7755H313.286V67.3955Z" fill="#E6E6E6"/>
<path d="M316.576 129.342H287.293V129.722H316.576V129.342Z" fill="#3B3B3B"/>
<path d="M316.576 132.38H287.293V132.76H316.576V132.38Z" fill="#3B3B3B"/>
<path d="M293.876 16.764H260.642C260.125 16.764 259.688 16.397 259.528 15.8284C259.369 15.2602 259.536 14.6664 259.955 14.3157L276.75 0.258363C277.165 -0.0886355 277.722 -0.0864098 278.134 0.266897L294.572 14.3242C294.986 14.6776 295.149 15.2706 294.988 15.8351C294.827 16.3992 294.39 16.764 293.876 16.764Z" fill="#CCCCCC"/>
<path d="M250.772 127.44H244.85V128.2H250.772V127.44Z" fill="#E6E6E6"/>
<path d="M59.4313 157.269C59.4585 157.534 59.4662 157.78 59.4507 158.023H47.9161C47.8112 157.78 47.7218 157.529 47.6441 157.269C46.2338 152.589 48.5532 144.799 45.6122 133.248C43.4289 124.678 39.3535 117.974 37.4537 114.85C35.1188 111.009 32.4731 107.464 29.4078 101.801C28.7435 100.576 28.0597 99.2481 27.3526 97.7987C27.1156 97.3141 24.3844 91.6915 24.6331 91.5165C24.7496 91.4357 25.4722 92.571 25.717 92.9524C27.8771 96.3269 29.132 97.8032 30.9307 100.231C32.0224 101.703 33.3122 103.52 35.1227 106.325C39.7653 113.509 42.0846 117.099 42.8927 119.786C43.1064 120.504 44.2447 124.39 46.3892 129.21C47.4848 131.669 48.0326 132.898 48.3318 132.8C49.1787 132.517 48.0365 122.335 44.4467 112.158C43.8329 110.426 43.3745 109.318 42.5042 107.222C41.0901 103.803 33.2151 84.799 27.4264 73.4237C26.6999 71.9923 26.0045 70.6864 25.3635 69.5422C25.2391 69.3268 25.1187 69.1159 25.0022 68.914C24.1941 67.5229 23.4792 66.4235 22.8848 65.7145C22.5701 65.3376 21.7698 64.2696 20.1653 62.1247C19.5281 61.2721 19.0619 60.6394 18.7473 60.1772C18.7006 60.1099 18.6579 60.0426 18.623 59.9843C18.2422 59.4099 18.1334 59.1317 18.2228 58.9836C18.351 58.7727 18.8444 58.8938 19.3844 59.1137C19.4427 59.1362 19.5048 59.1631 19.5631 59.19C20.1498 59.4413 20.7442 59.7689 20.9423 59.8811C22.7605 60.8907 24.536 62.6991 26.1793 64.8485C26.7893 65.6427 27.3759 66.4819 27.9431 67.3434C29.7691 70.1255 31.362 73.1545 32.5663 75.6449C34.0426 78.7142 34.9284 80.9714 34.9284 80.9714C39.0504 91.4851 43.6231 103.511 43.864 103.408C44.1282 103.296 39.0582 88.326 37.5819 80.195C37.0885 77.4713 36.9991 75.5148 37.6479 75.1379C37.6712 75.1244 37.6946 75.1109 37.7217 75.102C37.8228 75.0616 37.916 75.0661 37.9665 75.0706C37.9665 75.0706 38.5687 74.9808 39.2019 75.1379C39.9906 75.3353 40.8881 77.8706 41.7622 81.429C44.0349 90.6011 46.195 106.549 46.195 106.549C48.3551 122.501 51.634 135.411 52.411 135.268C52.8423 135.187 52.2246 131.18 52.7995 124.498C53.2036 119.813 53.662 119.957 55.1306 111.485C57.4616 98.0455 58.6271 91.328 58.6271 91.2921C58.6154 91.0094 58.5844 90.4395 58.6582 89.8472C58.7359 89.2055 58.934 88.5324 59.4041 88.151C60.119 87.5677 61.2689 87.819 61.7351 88.151C62.1081 88.4202 62.2984 88.9139 62.3412 89.6228C62.5976 94.0832 57.0498 107.016 55.1306 124.498C54.1748 133.208 53.6504 137.96 55.1306 144.242C56.5952 150.471 59.1477 154.437 59.4313 157.269Z" fill="#3B3B3B"/>
<path d="M75.1394 44.8495C71.9523 44.1797 67.9937 46.6438 67.7579 49.3368C67.5638 51.5535 69.9227 53.5775 69.7004 53.8241C69.4926 54.0545 68.031 51.6223 66.2039 51.5804C63.4431 51.5171 60.1295 56.9177 61.1533 60.1063C61.9752 62.6659 65.4966 63.5031 65.4269 63.6961C65.3611 63.8782 62.6781 61.8918 59.9878 62.3499C56.1359 63.0059 52.4474 68.6431 53.3833 72.222C54.4289 76.2209 61.1983 77.4592 61.1533 77.6067C61.1058 77.7627 54.3402 73.7619 51.8293 76.2606C50.1451 77.9364 50.3866 81.843 51.4408 84.3377C53.6409 89.5446 60.5045 91.3898 63.8729 88.825C66.4919 86.8307 64.7257 83.9003 67.3694 77.6067C70.6159 69.8781 76.2621 67.1968 76.305 61.4525C76.3088 60.9301 76.3214 59.2482 75.5279 58.7601C74.2608 57.9806 71.8153 60.7857 71.6429 60.555C71.4565 60.3054 74.7301 57.5738 76.6935 52.9266C77.311 51.4649 78.716 48.1394 77.4705 46.1957C76.8363 45.2061 75.7771 44.9835 75.1394 44.8495Z" fill="#81DC7F"/>
<path d="M57.2683 36.3231C54.0812 35.6533 50.1226 38.1175 49.8868 40.8104C49.6927 43.0272 52.0516 45.0511 51.8293 45.2977C51.6215 45.5282 50.1599 43.096 48.3328 43.0541C45.572 42.9907 42.2584 48.3913 43.2822 51.5799C44.1041 54.1395 47.6255 54.9767 47.5558 55.1698C47.49 55.3518 44.807 53.3654 42.1167 53.8236C38.2648 54.4796 34.5763 60.1167 35.5122 63.6956C36.5578 67.6946 43.3272 68.9329 43.2822 69.0804C43.2347 69.2363 36.4691 65.2356 33.9582 67.7342C32.274 69.41 32.5156 73.3166 33.5697 75.8113C35.7698 81.0182 42.6334 82.8634 46.0018 80.2986C48.6208 78.3043 46.8546 75.3739 49.4983 69.0804C52.7448 61.3517 58.3911 58.6704 58.4339 52.9261C58.4377 52.4037 58.4503 50.7218 57.6569 50.2337C56.3897 49.4542 53.9442 52.2594 53.7718 52.0286C53.5854 51.7791 56.859 49.0475 58.8224 44.4002C59.4399 42.9385 60.8449 39.613 59.5994 37.6693C58.9653 36.6797 57.906 36.4571 57.2683 36.3231Z" fill="#81DC7F"/>
<path d="M35.6301 26.3603C38.651 27.7112 40.9131 32.2002 39.8968 34.6391C39.0602 36.6467 36.1334 36.9501 36.2115 37.2945C36.2845 37.6164 38.6306 36.4236 40.2078 37.4898C42.591 39.1009 42.9754 45.7052 40.6608 47.8071C38.8027 49.4944 35.421 48.0846 35.3932 48.2913C35.367 48.4862 38.5532 48.4103 40.6405 50.4235C43.629 53.3061 44.2262 60.3383 41.8102 62.8261C39.1105 65.606 32.7775 62.5794 32.7492 62.7323C32.7192 62.894 40.2979 63.5623 41.3097 67.2076C41.9884 69.6526 40.0164 72.8387 37.9896 74.3305C33.7593 77.4443 27.0715 74.8784 25.3583 70.6596C24.0262 67.3792 26.8573 65.9452 27.4478 58.9833C28.173 50.434 24.5698 44.742 27.1302 39.8171C27.363 39.3693 28.1127 37.9273 29.01 37.9896C30.4431 38.089 31.2606 41.9563 31.5119 41.8634C31.7837 41.763 30.2268 37.459 30.6532 32.3116C30.7874 30.6925 31.0926 27.009 33.0335 26.1025C34.0217 25.641 35.0256 26.0899 35.6301 26.3603Z" fill="#81DC7F"/>
<path d="M1.32015 28.8009C-0.584586 31.8275 -0.379017 37.016 1.61957 38.4293C3.26474 39.5927 5.8667 38.0154 5.96267 38.3537C6.05237 38.6699 3.52103 39.1363 2.69596 41.0197C1.44925 43.8655 4.22539 49.6563 7.1569 49.9735C9.51011 50.2282 11.6904 46.9264 11.8108 47.0827C11.9243 47.2301 9.21105 49.161 8.40177 52.1596C7.24304 56.4529 10.0411 62.7365 13.239 63.3146C16.8122 63.9606 20.7139 57.4524 20.8095 57.5632C20.9106 57.6803 14.8553 62.9865 15.7156 66.6834C16.2926 69.163 19.445 70.6058 21.8483 70.5906C26.8645 70.559 31.2807 64.2159 30.7406 59.598C30.3206 56.0073 27.2685 56.5746 23.5053 51.0938C18.8839 44.3632 19.2408 37.3241 14.7781 34.7883C14.3722 34.5577 13.0656 33.8152 12.3407 34.4293C11.1831 35.4101 12.3108 39.1718 12.0561 39.2511C11.7805 39.3369 11.0692 34.7452 8.29529 30.6865C7.42279 29.4098 5.43775 26.5054 3.38127 26.9587C2.33425 27.1895 1.70125 28.1953 1.32015 28.8009Z" fill="#81DC7F"/>
<path d="M4.0389 62.006C2.13416 65.0326 2.33973 70.2211 4.33832 71.6344C5.98349 72.7978 8.58545 71.2205 8.68142 71.5588C8.77112 71.875 6.23978 72.3414 5.41471 74.2247C4.168 77.0706 6.94414 82.8613 9.87565 83.1786C12.2289 83.4333 14.4092 80.1315 14.5295 80.2878C14.6431 80.4352 11.9298 82.3661 11.1205 85.3646C9.96179 89.658 12.7599 95.9415 15.9577 96.5197C19.5309 97.1657 23.4327 90.6575 23.5282 90.7682C23.6293 90.8853 17.5741 96.1916 18.4344 99.8885C19.0114 102.368 22.1637 103.811 24.5671 103.796C29.5833 103.764 33.9994 97.421 33.4593 92.8031C33.0394 89.2124 29.9873 89.7797 26.224 84.2989C21.6026 77.5683 21.9596 70.5291 17.4968 67.9934C17.091 67.7628 15.7843 67.0203 15.0595 67.6344C13.9018 68.6151 15.0296 72.3769 14.7748 72.4562C14.4993 72.542 13.788 67.9503 11.014 63.8915C10.1415 62.6149 8.1565 59.7104 6.10002 60.1638C5.053 60.3946 4.42 61.4004 4.0389 62.006Z" fill="#81DC7F"/>
<path d="M150.34 157.4C150.367 157.664 150.374 157.911 150.359 158.154H138.824C138.719 157.911 138.63 157.66 138.552 157.4C137.142 152.719 139.461 144.929 136.52 133.379C134.337 124.808 130.262 118.104 128.362 114.981C126.027 111.14 123.381 107.595 120.316 101.932C119.652 100.707 118.968 99.379 118.261 97.9296C118.024 97.4449 115.293 91.8224 115.541 91.6474C115.658 91.5666 116.38 92.7019 116.625 93.0833C118.785 96.4577 120.04 97.9341 121.839 100.362C122.931 101.834 124.22 103.651 126.031 106.455C130.673 113.64 132.993 117.229 133.801 119.917C134.015 120.635 135.153 124.521 137.297 129.341C138.393 131.8 138.941 133.029 139.24 132.93C140.087 132.648 138.945 122.466 135.355 112.289C134.741 110.557 134.283 109.448 133.412 107.353C131.998 103.934 124.123 84.9299 118.335 73.5546C117.608 72.1231 116.913 70.8173 116.272 69.6731C116.147 69.4577 116.027 69.2468 115.91 69.0448C115.102 67.6538 114.387 66.5544 113.793 65.8454C113.478 65.4685 112.678 64.4005 111.074 62.2556C110.436 61.403 109.97 60.7703 109.655 60.3081C109.609 60.2408 109.566 60.1735 109.531 60.1151C109.15 59.5408 109.042 59.2625 109.131 59.1145C109.259 58.9035 109.753 59.0247 110.293 59.2446C110.351 59.267 110.413 59.2939 110.471 59.3209C111.058 59.5721 111.652 59.8997 111.851 60.0119C113.669 61.0216 115.444 62.8299 117.088 64.9794C117.697 65.7736 118.284 66.6127 118.851 67.4743C120.677 70.2564 122.27 73.2853 123.475 75.7758C124.951 78.8451 125.837 81.1022 125.837 81.1022C129.959 91.6159 134.531 103.642 134.772 103.539C135.036 103.427 129.966 88.4569 128.49 80.3259C127.997 77.6021 127.907 75.6456 128.556 75.2687C128.579 75.2553 128.603 75.2418 128.63 75.2328C128.731 75.1924 128.824 75.1969 128.875 75.2014C128.875 75.2014 129.477 75.1117 130.11 75.2687C130.899 75.4662 131.796 78.0015 132.67 81.5599C134.943 90.7319 137.103 106.68 137.103 106.68C139.263 122.632 142.542 135.542 143.319 135.398C143.75 135.318 143.133 131.311 143.708 124.629C144.112 119.944 144.57 120.088 146.039 111.616C148.37 98.1764 149.535 91.4589 149.535 91.423C149.524 91.1403 149.493 90.5704 149.566 89.9781C149.644 89.3364 149.842 88.6633 150.312 88.2819C151.027 87.6985 152.177 87.9498 152.643 88.2819C153.016 88.5511 153.207 89.0447 153.249 89.7537C153.506 94.2141 147.958 107.146 146.039 124.629C145.083 133.339 144.559 138.091 146.039 144.373C147.503 150.601 150.056 154.568 150.34 157.4Z" fill="#3B3B3B"/>
<path d="M166.048 44.9803C162.86 44.3106 158.902 46.7747 158.666 49.4676C158.472 51.6844 160.831 53.7083 160.609 53.9549C160.401 54.1854 158.939 51.7532 157.112 51.7113C154.351 51.648 151.038 57.0486 152.062 60.2371C152.883 62.7967 156.405 63.6339 156.335 63.827C156.269 64.0091 153.586 62.0226 150.896 62.4808C147.044 63.1368 143.356 68.774 144.291 72.3528C145.337 76.3518 152.106 77.5901 152.062 77.7376C152.014 77.8935 145.248 73.8928 142.737 76.3914C141.053 78.0673 141.295 81.9739 142.349 84.4685C144.549 89.6754 151.413 91.5207 154.781 88.9558C157.4 86.9616 155.634 84.0311 158.278 77.7376C161.524 70.0089 167.17 67.3277 167.213 61.5833C167.217 61.061 167.23 59.379 166.436 58.891C165.169 58.1115 162.723 60.9166 162.551 60.6859C162.365 60.4363 165.638 57.7047 167.602 53.0575C168.219 51.5958 169.624 48.2702 168.379 46.3265C167.745 45.3369 166.685 45.1144 166.048 44.9803Z" fill="#81DC7F"/>
<path d="M148.177 36.454C144.989 35.7842 141.031 38.2483 140.795 40.9413C140.601 43.158 142.96 45.182 142.738 45.4286C142.53 45.659 141.068 43.2268 139.241 43.1849C136.48 43.1216 133.167 48.5222 134.19 51.7108C135.012 54.2703 138.534 55.1076 138.464 55.3006C138.398 55.4827 135.715 53.4962 133.025 53.9544C129.173 54.6104 125.485 60.2476 126.42 63.8265C127.466 67.8254 134.235 69.0637 134.19 69.2112C134.143 69.3672 127.377 65.3664 124.866 67.865C123.182 69.5409 123.424 73.4475 124.478 75.9422C126.678 81.1491 133.542 82.9943 136.91 80.4295C139.529 78.4352 137.763 75.5048 140.406 69.2112C143.653 61.4826 149.299 58.8013 149.342 53.057C149.346 52.5346 149.358 50.8527 148.565 50.3646C147.298 49.5851 144.852 52.3902 144.68 52.1595C144.494 51.9099 147.767 49.1783 149.731 44.5311C150.348 43.0694 151.753 39.7438 150.508 37.8002C149.873 36.8106 148.814 36.588 148.177 36.454Z" fill="#81DC7F"/>
<path d="M126.538 26.4901C129.559 27.8411 131.821 32.3301 130.805 34.769C129.968 36.7766 127.042 37.08 127.12 37.4244C127.193 37.7463 129.539 36.5535 131.116 37.6197C133.499 39.2308 133.884 45.8351 131.569 47.937C129.711 49.6242 126.329 48.2144 126.301 48.4212C126.275 48.6161 129.461 48.5401 131.549 50.5534C134.537 53.436 135.134 60.4682 132.718 62.956C130.019 65.7359 123.686 62.7093 123.657 62.8622C123.627 63.0238 131.206 63.6922 132.218 67.3375C132.897 69.7825 130.925 72.9685 128.898 74.4604C124.667 77.5742 117.98 75.0083 116.266 70.7894C114.934 67.5091 117.766 66.0751 118.356 59.1132C119.081 50.5639 115.478 44.8718 118.038 39.947C118.271 39.4992 119.021 38.0572 119.918 38.1194C121.351 38.2189 122.169 42.0862 122.42 41.9933C122.692 41.8929 121.135 37.5889 121.561 32.4414C121.696 30.8224 122.001 27.1389 123.942 26.2324C124.93 25.7708 125.934 26.2198 126.538 26.4901Z" fill="#81DC7F"/>
<path d="M92.2284 28.9308C90.3236 31.9574 90.5292 37.1459 92.5278 38.5592C94.1729 39.7226 96.7749 38.1453 96.8709 38.4836C96.9606 38.7998 94.4292 39.2662 93.6042 41.1496C92.3574 43.9954 95.1336 49.7861 98.0651 50.1034C100.418 50.3581 102.599 47.0563 102.719 47.2126C102.833 47.36 100.119 49.2909 99.31 52.2895C98.1512 56.5828 100.949 62.8663 104.147 63.4445C107.72 64.0905 111.622 57.5823 111.718 57.6931C111.819 57.8101 105.764 63.1164 106.624 66.8133C107.201 69.2928 110.353 70.7357 112.757 70.7205C117.773 70.6889 122.189 64.3458 121.649 59.7279C121.229 56.1372 118.177 56.7045 114.413 51.2237C109.792 44.4931 110.149 37.4539 105.686 34.9182C105.28 34.6876 103.974 33.9451 103.249 34.5592C102.091 35.5399 103.219 39.3017 102.964 39.381C102.689 39.4668 101.977 34.8751 99.2035 30.8163C98.331 29.5397 96.346 26.6353 94.2895 27.0886C93.2425 27.3194 92.6095 28.3252 92.2284 28.9308Z" fill="#81DC7F"/>
<path d="M94.9471 62.1358C93.0424 65.1624 93.2479 70.351 95.2465 71.7643C96.8917 72.9276 99.4936 71.3503 99.5896 71.6887C99.6793 72.0048 97.148 72.4712 96.3229 74.3546C95.0762 77.2005 97.8523 82.9912 100.784 83.3085C103.137 83.5632 105.317 80.2614 105.438 80.4177C105.551 80.5651 102.838 82.4959 102.029 85.4945C100.87 89.7879 103.668 96.0714 106.866 96.6496C110.439 97.2956 114.341 90.7874 114.436 90.8981C114.538 91.0152 108.482 96.3215 109.343 100.018C109.92 102.498 113.072 103.941 115.475 103.926C120.491 103.894 124.908 97.5509 124.368 92.9329C123.948 89.3423 120.895 89.9096 117.132 84.4288C112.511 77.6982 112.868 70.659 108.405 68.1233C107.999 67.8927 106.693 67.1502 105.968 67.7643C104.81 68.745 105.938 72.5068 105.683 72.5861C105.407 72.6718 104.696 68.0802 101.922 64.0214C101.05 62.7448 99.0647 59.8403 97.0082 60.2937C95.9612 60.5244 95.3282 61.5303 94.9471 62.1358Z" fill="#81DC7F"/>
<path d="M316.567 157.4C316.54 157.664 316.532 157.911 316.547 158.154H328.082C328.187 157.911 328.276 157.66 328.354 157.4C329.764 152.719 327.445 144.929 330.386 133.379C332.569 124.808 336.645 118.104 338.545 114.981C340.879 111.14 343.525 107.595 346.59 101.932C347.255 100.707 347.939 99.379 348.646 97.9296C348.883 97.4449 351.614 91.8224 351.365 91.6474C351.249 91.5666 350.526 92.7019 350.281 93.0833C348.121 96.4577 346.866 97.9341 345.067 100.362C343.976 101.834 342.686 103.651 340.876 106.455C336.233 113.64 333.914 117.229 333.105 119.917C332.892 120.635 331.754 124.521 329.609 129.341C328.513 131.8 327.966 133.029 327.666 132.93C326.82 132.648 327.962 122.466 331.551 112.289C332.165 110.557 332.624 109.448 333.494 107.353C334.908 103.934 342.783 84.9299 348.572 73.5546C349.298 72.1231 349.994 70.8173 350.635 69.6731C350.759 69.4577 350.88 69.2468 350.996 69.0448C351.804 67.6538 352.519 66.5544 353.113 65.8454C353.428 65.4685 354.228 64.4005 355.833 62.2556C356.47 61.403 356.936 60.7703 357.251 60.3081C357.298 60.2408 357.34 60.1735 357.375 60.1151C357.756 59.5408 357.865 59.2625 357.775 59.1145C357.647 58.9035 357.154 59.0247 356.614 59.2446C356.556 59.267 356.493 59.2939 356.435 59.3209C355.848 59.5721 355.254 59.8997 355.056 60.0119C353.238 61.0216 351.462 62.8299 349.819 64.9794C349.209 65.7736 348.622 66.6127 348.055 67.4743C346.229 70.2564 344.636 73.2853 343.432 75.7758C341.956 78.8451 341.07 81.1022 341.07 81.1022C336.948 91.6159 332.375 103.642 332.134 103.539C331.87 103.427 336.94 88.4569 338.416 80.3259C338.91 77.6021 338.999 75.6456 338.35 75.2687C338.327 75.2553 338.304 75.2418 338.276 75.2328C338.175 75.1924 338.082 75.1969 338.032 75.2014C338.032 75.2014 337.43 75.1117 336.796 75.2687C336.008 75.4662 335.11 78.0015 334.236 81.5599C331.963 90.7319 329.803 106.68 329.803 106.68C327.643 122.632 324.364 135.542 323.587 135.398C323.156 135.318 323.774 131.311 323.199 124.629C322.795 119.944 322.336 120.088 320.868 111.616C318.537 98.1764 317.371 91.4589 317.371 91.423C317.383 91.1403 317.414 90.5704 317.34 89.9781C317.262 89.3364 317.064 88.6633 316.594 88.2819C315.879 87.6985 314.729 87.9498 314.263 88.2819C313.89 88.5511 313.7 89.0447 313.657 89.7537C313.401 94.2141 318.948 107.146 320.868 124.629C321.823 133.339 322.348 138.091 320.868 144.373C319.403 150.601 316.851 154.568 316.567 157.4Z" fill="#3B3B3B"/>
<path d="M300.861 44.9803C304.048 44.3106 308.007 46.7747 308.243 49.4676C308.437 51.6844 306.078 53.7083 306.3 53.9549C306.508 54.1854 307.969 51.7532 309.797 51.7113C312.557 51.648 315.871 57.0486 314.847 60.2371C314.025 62.7967 310.504 63.6339 310.574 63.827C310.639 64.0091 313.322 62.0226 316.013 62.4808C319.865 63.1368 323.553 68.774 322.617 72.3528C321.571 76.3518 314.802 77.5901 314.847 77.7376C314.895 77.8935 321.66 73.8928 324.171 76.3914C325.855 78.0673 325.614 81.9739 324.56 84.4685C322.36 89.6754 315.496 91.5207 312.128 88.9558C309.509 86.9616 311.275 84.0311 308.631 77.7376C305.385 70.0089 299.738 67.3277 299.695 61.5833C299.692 61.061 299.679 59.379 300.472 58.891C301.74 58.1115 304.185 60.9166 304.358 60.6859C304.544 60.4363 301.27 57.7047 299.307 53.0575C298.689 51.5958 297.284 48.2702 298.53 46.3265C299.164 45.3369 300.223 45.1144 300.861 44.9803Z" fill="#81DC7F"/>
<path d="M318.732 36.454C321.919 35.7842 325.878 38.2483 326.114 40.9413C326.308 43.158 323.949 45.182 324.171 45.4286C324.379 45.659 325.841 43.2268 327.668 43.1849C330.428 43.1216 333.742 48.5222 332.718 51.7108C331.896 54.2703 328.375 55.1076 328.445 55.3006C328.51 55.4827 331.193 53.4962 333.884 53.9544C337.736 54.6104 341.424 60.2476 340.488 63.8265C339.443 67.8254 332.673 69.0637 332.718 69.2112C332.766 69.3672 339.531 65.3664 342.042 67.865C343.726 69.5409 343.485 73.4475 342.431 75.9422C340.231 81.1491 333.367 82.9943 329.999 80.4295C327.38 78.4352 329.146 75.5048 326.502 69.2112C323.256 61.4826 317.609 58.8013 317.567 53.057C317.563 52.5346 317.55 50.8527 318.344 50.3646C319.611 49.5851 322.056 52.3902 322.229 52.1595C322.415 51.9099 319.141 49.1783 317.178 44.5311C316.561 43.0694 315.156 39.7438 316.401 37.8002C317.035 36.8106 318.094 36.588 318.732 36.454Z" fill="#81DC7F"/>
<path d="M340.373 26.4901C337.352 27.8411 335.09 32.3301 336.106 34.769C336.943 36.7766 339.87 37.08 339.792 37.4244C339.719 37.7463 337.372 36.5535 335.795 37.6197C333.412 39.2308 333.028 45.8351 335.342 47.937C337.2 49.6242 340.582 48.2144 340.61 48.4212C340.636 48.6161 337.45 48.5401 335.363 50.5534C332.374 53.436 331.777 60.4682 334.193 62.956C336.893 65.7359 343.226 62.7093 343.254 62.8622C343.284 63.0238 335.705 63.6922 334.693 67.3375C334.015 69.7825 335.987 72.9685 338.014 74.4604C342.244 77.5742 348.932 75.0083 350.645 70.7894C351.977 67.5091 349.146 66.0751 348.555 59.1132C347.83 50.5639 351.433 44.8718 348.873 39.947C348.64 39.4992 347.89 38.0572 346.993 38.1194C345.56 38.2189 344.743 42.0862 344.491 41.9933C344.219 41.8929 345.776 37.5889 345.35 32.4414C345.216 30.8224 344.911 27.1389 342.97 26.2324C341.981 25.7708 340.977 26.2198 340.373 26.4901Z" fill="#81DC7F"/>
<path d="M374.68 28.9308C376.585 31.9574 376.379 37.1459 374.381 38.5592C372.736 39.7226 370.134 38.1453 370.038 38.4836C369.948 38.7998 372.479 39.2662 373.304 41.1496C374.551 43.9954 371.775 49.7861 368.843 50.1034C366.49 50.3581 364.31 47.0563 364.19 47.2126C364.076 47.36 366.789 49.2909 367.599 52.2895C368.757 56.5828 365.959 62.8663 362.761 63.4445C359.188 64.0905 355.286 57.5823 355.191 57.6931C355.09 57.8101 361.145 63.1164 360.285 66.8133C359.708 69.2928 356.555 70.7357 354.152 70.7205C349.136 70.6889 344.72 64.3458 345.26 59.7279C345.68 56.1372 348.732 56.7045 352.495 51.2237C357.116 44.4931 356.759 37.4539 361.222 34.9182C361.628 34.6876 362.935 33.9451 363.66 34.5592C364.817 35.5399 363.689 39.3017 363.944 39.381C364.22 39.4668 364.931 34.8751 367.705 30.8163C368.578 29.5397 370.563 26.6353 372.619 27.0886C373.666 27.3194 374.299 28.3252 374.68 28.9308Z" fill="#81DC7F"/>
<path d="M371.959 62.1358C373.864 65.1624 373.659 70.351 371.66 71.7643C370.015 72.9276 367.413 71.3503 367.317 71.6887C367.227 72.0048 369.759 72.4712 370.584 74.3546C371.83 77.2005 369.054 82.9912 366.123 83.3085C363.769 83.5632 361.589 80.2614 361.469 80.4177C361.355 80.5651 364.069 82.4959 364.878 85.4945C366.037 89.7879 363.238 96.0714 360.041 96.6496C356.467 97.2956 352.566 90.7874 352.47 90.8981C352.369 91.0152 358.424 96.3215 357.564 100.018C356.987 102.498 353.835 103.941 351.431 103.926C346.415 103.894 341.999 97.5509 342.539 92.9329C342.959 89.3423 346.011 89.9096 349.774 84.4288C354.396 77.6982 354.039 70.659 358.502 68.1233C358.907 67.8927 360.214 67.1502 360.939 67.7643C362.097 68.745 360.969 72.5068 361.223 72.5861C361.499 72.6718 362.21 68.0802 364.984 64.0214C365.857 62.7448 367.842 59.8403 369.898 60.2937C370.945 60.5244 371.578 61.5303 371.959 62.1358Z" fill="#81DC7F"/>
<path d="M328.845 157.734C328.845 158.015 328.701 158.236 328.519 158.236H28.709V157.231H328.519C328.701 157.231 328.845 157.459 328.845 157.734Z" fill="#3B3B3B"/>
</svg>
