<svg width="114" height="71" viewBox="0 0 114 71" fill="none" xmlns="http://www.w3.org/2000/svg">
<path d="M9.2068 37.015C4.13853 37.015 0.015625 41.1379 0.015625 46.2061V60.912C0.015625 65.9803 4.13853 70.1032 9.2068 70.1032H113.986V66.4267H110.31V40.6914H113.986V37.015H9.2068ZM3.6921 60.912V46.2061C3.6921 43.1656 6.16626 40.6914 9.2068 40.6914H38.6669C37.4999 42.2318 36.7811 44.129 36.7811 46.2061V60.912C36.7811 62.9891 37.4999 64.8864 38.6669 66.4267H9.2068C6.16626 66.4267 3.6921 63.9526 3.6921 60.912ZM45.9715 66.4267C43.5784 66.4267 41.5564 64.8848 40.7948 62.7503H106.633V66.4267H45.9715ZM106.633 40.6914V44.3679H69.8686V48.0444H106.633V59.0738H40.4568V55.3973H77.2215V51.7209H40.4568V46.2061C40.4568 43.1656 42.931 40.6914 45.9715 40.6914H106.633Z" fill="white"/>
<path d="M113.986 3.92647V0.25H9.2068C4.13853 0.25 0.015625 4.3729 0.015625 9.44118V24.1471C0.015625 29.2153 4.13853 33.3382 9.2068 33.3382H113.986V29.6618H110.31V3.92647H113.986ZM84.5745 3.92647H91.9274V13.3605L89.2709 11.5887C88.653 11.1751 87.8495 11.1751 87.2324 11.5887L84.5744 13.3605L84.5745 3.92647ZM3.6921 24.1471V9.44118C3.6921 6.40063 6.16626 3.92647 9.2068 3.92647H38.6669C37.4999 5.46681 36.7811 7.36408 36.7811 9.44118V24.1471C36.7811 26.2241 37.4999 28.1214 38.6669 29.6618H9.2068C6.16626 29.6618 3.6921 27.1876 3.6921 24.1471ZM45.9715 29.6618C43.5784 29.6618 41.5564 28.1198 40.7948 25.9853H106.633V29.6618H45.9715ZM106.633 22.3088H40.4568V18.6324H77.2215V14.9559H40.4568V9.44118C40.4568 6.40063 42.931 3.92647 45.9715 3.92647H80.898V16.7941C80.898 17.4728 81.2714 18.0957 81.8688 18.4157C82.4646 18.7358 83.1925 18.6988 83.7547 18.3238L88.2509 15.3267L92.7456 18.323C93.0525 18.5273 93.4087 18.6324 93.7657 18.6324C94.0636 18.6324 94.3615 18.561 94.6331 18.4157C95.2305 18.0957 95.6039 17.4728 95.6039 16.7941V3.92647H106.633L106.633 22.3088Z" fill="white"/>
</svg>
