<svg width="100" height="100" viewBox="0 0 100 100" fill="none" xmlns="http://www.w3.org/2000/svg">
<path d="M87.5 12.5H12.5V37.5H87.5V12.5ZM79.1667 29.1667H20.8333V20.8333H79.1667V29.1667ZM60.4167 45.8333C61.5833 45.8333 62.5 46.75 62.5 47.9167V54.1667H37.5V47.9167C37.5 46.75 38.4167 45.8333 39.5833 45.8333H60.4167ZM75 54.5417V41.6667H83.3333V54.5417C81.9583 54.3333 80.5833 54.1667 79.1667 54.1667C77.75 54.1667 76.375 54.3333 75 54.5417ZM54.1667 79.1667C54.1667 82.0833 54.7083 84.875 55.625 87.5H16.6667V41.6667H25V79.1667H54.1667ZM93.75 71.875L73.9583 91.6667L62.5 79.1667L67.3333 74.3333L73.9583 80.9583L88.9167 66L93.75 71.875Z" fill="white"/>
</svg>
