<svg width="122" height="99" viewBox="0 0 122 99" fill="none" xmlns="http://www.w3.org/2000/svg">
<path fill-rule="evenodd" clip-rule="evenodd" d="M114.173 26.662L61.1064 0.87825L9.51618 26.6734L10.5326 30.9789H113.18L114.173 26.662ZM20.16 26.4334L61.1352 5.94583L103.302 26.4334H20.16Z" fill="white"/>
<path d="M84.5686 38.4923H58.5526V81.9415H63.098V43.0378H80.0232V84.2143H114.061V79.6688H84.5686V38.4923Z" fill="white"/>
<path d="M16.7879 40.7651V69.0004H21.3333V40.7651H16.7879Z" fill="white"/>
<path d="M37.6702 40.7651V69.0004H42.2157V40.7651H37.6702Z" fill="white"/>
<path d="M100.317 40.7651V69.0004H104.863V40.7651H100.317Z" fill="white"/>
<path d="M53.7665 79.6688H9.94294V84.2143H53.7665V79.6688Z" fill="white"/>
<path d="M0.237061 93.4923V98.0378H121.414V93.4923H0.237061Z" fill="white"/>
</svg>
