<svg width="100" height="101" viewBox="0 0 100 101" fill="none" xmlns="http://www.w3.org/2000/svg">
<g clip-path="url(#clip0_70_657)">
<path d="M20.834 38.0846C20.834 30.3492 23.9069 22.9305 29.3767 17.4607C34.8465 11.9909 42.2652 8.91797 50.0007 8.91797C57.7361 8.91797 65.1548 11.9909 70.6246 17.4607C76.0944 22.9305 79.1673 30.3492 79.1673 38.0846V42.3971C86.234 43.4096 91.6673 49.4888 91.6673 56.8346V57.8763C91.6673 65.2721 85.2882 71.7555 77.784 71.4096C74.7007 80.243 66.859 86.1971 58.3965 87.7055C56.4382 88.4221 54.1215 88.0846 52.084 88.0846C50.4264 88.0846 48.8367 87.4261 47.6646 86.254C46.4925 85.0819 45.834 83.4922 45.834 81.8346C45.834 80.177 46.4925 78.5873 47.6646 77.4152C48.8367 76.2431 50.4264 75.5846 52.084 75.5846C55.3882 75.5846 59.0465 75.1055 61.2798 78.1221C66.6798 75.5513 70.834 70.1221 70.834 63.0846V38.0846C70.834 32.5593 68.6391 27.2603 64.732 23.3532C60.825 19.4462 55.526 17.2513 50.0007 17.2513C44.4753 17.2513 39.1763 19.4462 35.2693 23.3532C31.3623 27.2603 29.1673 32.5593 29.1673 38.0846V64.1263C29.1673 66.0602 28.3991 67.9148 27.0316 69.2823C25.6642 70.6497 23.8095 71.418 21.8757 71.418C18.2842 71.418 14.8398 69.9913 12.3002 67.4517C9.76069 64.9122 8.33398 61.4678 8.33398 57.8763V56.8346C8.33308 53.3272 9.59632 49.9369 11.8921 47.2853C14.1879 44.6336 17.3625 42.8982 20.834 42.3971V38.0846Z" fill="white"/>
</g>
<defs>
<clipPath id="clip0_70_657">
<rect width="100" height="100" fill="white" transform="translate(0 0.584473)"/>
</clipPath>
</defs>
</svg>
