<svg width="21" height="21" viewBox="0 0 21 21" fill="none" xmlns="http://www.w3.org/2000/svg">
<path d="M14.875 19.25C14.1458 19.25 13.526 18.9948 13.0156 18.4844C12.5052 17.974 12.25 17.3542 12.25 16.625C12.25 16.5229 12.2573 16.417 12.2719 16.3074C12.2865 16.1977 12.3083 16.0994 12.3375 16.0125L6.16875 12.425C5.92083 12.6438 5.64375 12.8153 5.3375 12.9395C5.03125 13.0638 4.71042 13.1256 4.375 13.125C3.64583 13.125 3.02604 12.8698 2.51562 12.3594C2.00521 11.849 1.75 11.2292 1.75 10.5C1.75 9.77083 2.00521 9.15104 2.51562 8.64062C3.02604 8.13021 3.64583 7.875 4.375 7.875C4.71042 7.875 5.03125 7.93713 5.3375 8.06138C5.64375 8.18563 5.92083 8.35683 6.16875 8.575L12.3375 4.9875C12.3083 4.9 12.2865 4.80171 12.2719 4.69263C12.2573 4.58354 12.25 4.47767 12.25 4.375C12.25 3.64583 12.5052 3.02604 13.0156 2.51562C13.526 2.00521 14.1458 1.75 14.875 1.75C15.6042 1.75 16.224 2.00521 16.7344 2.51562C17.2448 3.02604 17.5 3.64583 17.5 4.375C17.5 5.10417 17.2448 5.72396 16.7344 6.23438C16.224 6.74479 15.6042 7 14.875 7C14.5396 7 14.2188 6.93817 13.9125 6.8145C13.6062 6.69083 13.3292 6.51933 13.0813 6.3L6.9125 9.8875C6.94167 9.975 6.96354 10.0736 6.97813 10.1832C6.99271 10.2929 7 10.3985 7 10.5C7 10.6021 6.99271 10.708 6.97813 10.8176C6.96354 10.9273 6.94167 11.0256 6.9125 11.1125L13.0813 14.7C13.3292 14.4812 13.6062 14.31 13.9125 14.1864C14.2188 14.0627 14.5396 14.0006 14.875 14C15.6042 14 16.224 14.2552 16.7344 14.7656C17.2448 15.276 17.5 15.8958 17.5 16.625C17.5 17.3542 17.2448 17.974 16.7344 18.4844C16.224 18.9948 15.6042 19.25 14.875 19.25Z" fill="#DDDDDD" fill-opacity="0.866667"/>
</svg>
