<svg width="266" height="258" viewBox="0 0 266 258" fill="none" xmlns="http://www.w3.org/2000/svg">
<g clip-path="url(#clip0_517_2325)">
<path d="M104.215 234.059C90.7085 234.059 77.7747 232.793 65.9284 230.261C45.097 225.83 28.1573 217.542 16.8832 206.262C3.89221 193.198 -1.48731 176.566 0.859075 156.884C4.12112 129.375 25.7537 110.268 50.8199 88.1107C52.4223 86.7295 53.9675 85.2907 55.5699 83.9095C58.7175 81.0895 61.9796 78.1544 65.1272 75.3344C89.6211 53.1198 114.974 30.1571 148.224 27.5673C181.416 24.9775 210.145 34.3007 231.32 54.3859C250.492 72.572 262.681 99.218 265.6 129.432C267.088 144.626 264.284 158.668 257.245 171.156C250.835 182.551 240.82 192.795 227.543 201.543C198.07 220.938 159.498 228.995 132.257 232.333C122.757 233.484 113.371 234.059 104.215 234.059ZM158.983 28.3155C155.549 28.3155 152.001 28.4306 148.338 28.7183C115.489 31.2505 90.2506 54.0982 65.9284 76.1401C62.7808 78.9601 59.576 81.8952 56.3711 84.7152C54.7687 86.1539 53.1663 87.5352 51.6211 88.9164C26.7265 110.901 5.2657 129.893 2.00365 156.941C-0.285504 176.278 4.97956 192.565 17.7416 205.399C39.832 227.556 82.6392 237.167 132.199 231.124C165.163 227.096 272.181 207.816 264.513 129.49C259.477 77.9817 224.968 28.3155 158.983 28.3155Z" fill="#F0F0F0"/>
<path d="M128.306 84.0812C126.876 82.7 125.388 74.9882 123.614 74.24C124.987 77.2902 124.014 78.0959 123.957 81.3763C123.957 83.2755 123.728 85.1747 123.327 86.9588H92.4238V62.7299C92.4238 53.5793 99.8064 46.1553 108.906 46.1553C109.707 46.1553 110.565 46.2704 111.367 46.5006C116.803 47.9969 120.981 52.1981 122.469 57.6654C124.758 66.298 128.535 80.7433 128.306 84.0812Z" fill="#575156"/>
<path d="M94.198 113.893V94.959L83.1528 95.9373L87.0443 107.85L85.213 137.834C82.6949 138.41 81.0925 140.942 81.6648 143.474C82.2371 146.006 84.7552 147.618 87.2733 147.042C89.6196 146.524 91.2221 144.222 90.8787 141.805L94.198 113.893Z" fill="#FDE1CE"/>
<path d="M115.945 249.08H120.409L122.527 231.757H115.945V249.08Z" fill="#FDE1CE"/>
<path d="M114.459 246.835L121.498 246.433V249.483L128.194 254.144C129.052 254.72 129.281 255.928 128.651 256.792C128.308 257.31 127.736 257.597 127.106 257.597H118.694L117.263 254.605L116.691 257.597H113.543L114.459 246.835Z" fill="#8E5C48"/>
<path d="M90.1348 249.08H94.5986L96.7161 231.757H90.1348V249.08Z" fill="#FDE1CE"/>
<path d="M88.6481 246.835L95.6872 246.433V249.483L102.383 254.144C103.241 254.72 103.47 255.928 102.841 256.792C102.497 257.31 101.925 257.597 101.296 257.597H92.883L91.4523 254.605L90.88 257.597H87.7324L88.6481 246.835Z" fill="#8E5C48"/>
<path d="M111.997 74.5859L102.726 74.7586L96.202 81.6647L90.9941 82.4128C86.1297 83.161 82.4098 87.1896 82.0664 92.1389L82.9821 97.1458H88.4188L91.5664 115.735C90.3646 118.9 90.2501 121.375 92.7682 122.296L100.551 137.086L123.615 126.669C124.759 124.655 125.16 122.641 123.958 120.627L125.618 92.1389H131.169C131.169 86.8442 129.395 82.3553 124.13 81.7222C122.012 81.492 119.952 81.3769 117.834 81.3769L111.997 74.5859Z" fill="#E6E6E6"/>
<path d="M123.614 126.726C123.614 126.726 101.123 130.755 92.7678 122.353C92.7678 122.353 91.9094 123.791 90.6504 126.208C90.307 126.899 89.563 127.359 89.1624 128.223C88.7618 128.971 87.7889 129.892 87.3311 130.755C86.9877 131.446 87.56 132.366 87.1594 133.115C82.8672 142.15 77.8883 154.869 78.9757 163.214C79.6624 168.623 81.0931 181.227 82.5811 194.751C82.6955 195.787 81.7227 197.169 81.8943 198.204C82.0088 199.183 83.2106 199.931 83.2678 200.909C83.3251 201.6 82.5239 202.233 82.5811 202.924C82.6383 203.672 83.6684 204.362 83.7257 205.111C85.7859 223.815 87.6745 241.252 87.6745 241.252H98.2046L100.208 201.427L98.6052 186.924L102.44 157.574L107.705 185.486L108.391 201.197L113.943 242.058H123.671V202.521L124.415 200.449L123.671 197.802L124.415 194.982L123.671 191.874V126.726H123.614Z" fill="#575156"/>
<path d="M114.801 69.1763C111.31 73.8379 104.729 74.7587 100.093 71.2481C95.4577 67.7375 94.5421 61.1192 98.033 56.4576C101.524 51.796 108.105 50.8752 112.741 54.3858C114.687 55.8821 116.06 57.9539 116.632 60.3135C116.69 60.4286 116.69 60.5437 116.69 60.7163C117.319 63.709 116.632 66.7592 114.801 69.1763Z" fill="#FDE1CE"/>
<path d="M112.626 63.1331C112.397 61.982 111.825 61.0037 111.023 60.198C111.081 61.2914 110.966 62.3274 110.566 63.3633C107.819 63.5935 105.014 63.0755 102.554 61.7518C100.722 60.4857 98.3759 60.6008 95.6289 61.7518C95.6289 56.1119 100.15 51.5078 105.758 51.5078H107.59C113.198 51.5078 117.776 56.0543 117.776 61.7518C116.117 62.3849 114.4 62.8453 112.626 63.1331Z" fill="#575156"/>
<path d="M33.2492 193.371C49.3686 193.371 62.436 180.23 62.436 164.02C62.436 147.81 49.3686 134.669 33.2492 134.669C17.1299 134.669 4.0625 147.81 4.0625 164.02C4.0625 180.23 17.1299 193.371 33.2492 193.371Z" fill="#F0F0F0"/>
<path d="M177.81 58.7018C193.929 58.7018 206.997 45.5609 206.997 29.3509C206.997 13.1408 193.929 0 177.81 0C161.69 0 148.623 13.1408 148.623 29.3509C148.623 45.5609 161.69 58.7018 177.81 58.7018Z" fill="#F0F0F0"/>
<path d="M223.536 222.721C239.656 222.721 252.723 209.58 252.723 193.37C252.723 177.16 239.656 164.02 223.536 164.02C207.417 164.02 194.35 177.16 194.35 193.37C194.35 209.58 207.417 222.721 223.536 222.721Z" fill="#F0F0F0"/>
<path d="M230.462 32.574V99.1026C230.462 101.98 228.172 104.34 225.311 104.34H225.254H199.787C196.754 104.34 194.293 101.865 194.293 98.8149V80.9741V32.4589C194.293 29.6389 196.582 27.2793 199.444 27.2793H202.648C201.218 31.5381 220.847 33.3221 221.877 27.2793H225.197C228.172 27.2793 230.462 29.6389 230.462 32.574Z" fill="#F6A55A"/>
<path d="M207.627 22.3293C207.627 21.9264 207.913 21.6387 208.314 21.6387H212.949C213.35 21.6387 213.636 21.9264 213.636 22.3293C213.636 22.7321 213.35 23.0199 212.949 23.0199H208.314C207.913 23.0199 207.627 22.7321 207.627 22.3293Z" fill="#3F3D56"/>
<path d="M226.855 112.8H197.439C192.689 112.8 188.855 108.944 188.855 104.167V57.6662C188.511 57.436 188.34 57.0331 188.34 56.6302V51.9686C188.34 51.5658 188.511 51.1629 188.855 50.9327V49.6666C188.511 49.4364 188.34 49.0335 188.34 48.6307V43.9691C188.34 43.5662 188.511 43.1634 188.855 42.9332V40.6887C188.454 40.4585 188.168 40.0556 188.168 39.5952V34.9336C188.168 34.4732 188.397 34.0704 188.855 33.8401V27.5096C188.855 22.7329 192.689 18.877 197.439 18.877H226.855C231.605 18.877 235.439 22.7329 235.439 27.5096V41.0915C235.782 41.2642 235.954 41.6095 235.954 42.0124V50.9327C235.954 51.278 235.782 51.6809 235.439 51.8535V104.167C235.439 108.944 231.605 112.8 226.855 112.8ZM197.439 20.028C193.319 20.028 189.999 23.3659 189.999 27.5096V34.7034H189.427C189.37 34.7034 189.313 34.761 189.313 34.8185V39.4801C189.313 39.5377 189.37 39.5952 189.427 39.5952H189.999V43.6238L189.541 43.7389C189.484 43.7389 189.484 43.7964 189.427 43.854V48.5156C189.427 48.5731 189.484 48.6307 189.541 48.6307L189.999 48.7458V51.6233L189.541 51.7384C189.484 51.7384 189.484 51.796 189.427 51.8535V56.5151C189.427 56.5727 189.484 56.6302 189.541 56.6302L189.999 56.7453V104.167C189.999 108.311 193.319 111.649 197.439 111.649H226.855C230.975 111.649 234.294 108.311 234.294 104.167V50.8752H234.81V42.0699H234.294V27.5096C234.294 23.3659 230.975 20.028 226.855 20.028H197.439Z" fill="#575156"/>
<path d="M215.581 23.0199C215.961 23.0199 216.268 22.7107 216.268 22.3293C216.268 21.9479 215.961 21.6387 215.581 21.6387C215.202 21.6387 214.895 21.9479 214.895 22.3293C214.895 22.7107 215.202 23.0199 215.581 23.0199Z" fill="#3F3D56"/>
<path d="M107.647 155.33H32.0476C29.8157 155.33 27.9844 153.488 27.9844 151.243V114.181C27.9844 111.936 29.8157 110.095 32.0476 110.095H107.704C109.936 110.095 111.768 111.936 111.768 114.181V151.243C111.71 153.488 109.879 155.33 107.647 155.33Z" fill="white"/>
<path d="M108.163 155.617H31.5912C29.302 155.617 27.4707 153.775 27.4707 151.473V113.95C27.4707 111.648 29.302 109.807 31.5912 109.807H108.163C110.453 109.807 112.284 111.648 112.284 113.95V151.473C112.227 153.775 110.395 155.617 108.163 155.617ZM31.5912 111.015C29.9315 111.015 28.6153 112.339 28.6153 114.008V151.531C28.6153 153.2 29.9315 154.524 31.5912 154.524H108.163C109.823 154.524 111.139 153.2 111.139 151.531V113.95C111.139 112.281 109.823 110.958 108.163 110.958H31.5912V111.015Z" fill="#575156"/>
<path d="M73.9389 150.092C58.8305 150.092 43.0925 149.919 37.198 149.862C35.5956 149.804 34.2793 148.538 34.2793 146.869V115.792C34.2793 115.216 34.7371 114.756 35.3094 114.756H104.27C104.843 114.756 105.3 115.216 105.3 115.792V146.812C105.3 148.538 103.927 149.977 102.21 149.977C94.6558 150.034 79.6046 150.092 73.9389 150.092Z" fill="#F6A55A"/>
<path d="M100.264 134.956H37.942C36.8546 134.956 35.939 134.266 35.5384 133.287L28.4992 113.375C28.0414 112.051 28.7281 110.612 30.0444 110.094C30.3305 109.979 30.6167 109.922 30.9028 109.922L108.791 109.807C110.165 109.807 111.309 110.958 111.309 112.339C111.309 112.512 111.309 112.627 111.252 112.799H111.309L111.081 113.317L102.553 133.345C102.153 134.323 101.237 134.956 100.264 134.956ZM108.734 111.015L30.9028 111.13C30.1588 111.13 29.5293 111.763 29.5293 112.512C29.5293 112.684 29.5293 112.799 29.5865 112.972L36.6257 132.884C36.7974 133.46 37.3697 133.805 37.942 133.805H100.264C100.837 133.805 101.294 133.46 101.523 132.942L110.05 112.914C110.337 112.224 110.05 111.361 109.306 111.073C109.135 111.015 108.963 111.015 108.734 111.015Z" fill="#575156"/>
<path d="M69.7629 139.273C72.4495 139.273 74.6273 137.083 74.6273 134.381C74.6273 131.679 72.4495 129.489 69.7629 129.489C67.0763 129.489 64.8984 131.679 64.8984 134.381C64.8984 137.083 67.0763 139.273 69.7629 139.273Z" fill="white"/>
<path d="M4.86446 96.685C7.55102 96.685 9.72892 94.4949 9.72892 91.7932C9.72892 89.0915 7.55102 86.9014 4.86446 86.9014C2.17789 86.9014 0 89.0915 0 91.7932C0 94.4949 2.17789 96.685 4.86446 96.685Z" fill="#F0F0F0"/>
<path d="M215.295 197.112L202.247 184.163C200.988 182.897 199.214 182.148 197.44 182.148H197.383C195.551 182.148 193.835 182.897 192.518 184.22C186.452 190.378 186.338 200.277 192.232 206.55C192.347 206.723 192.518 206.838 192.633 207.01C193.434 207.816 194.292 208.507 195.265 209.14C197.841 210.809 200.874 211.672 203.907 211.672H204.021C208.256 211.672 212.32 209.945 215.353 206.895C217.985 204.19 217.985 199.817 215.295 197.112ZM214.551 206.09C209.573 211.154 201.732 211.96 195.78 208.104C194.979 207.528 194.178 206.953 193.491 206.262C187.654 200.45 187.597 190.954 193.377 185.084C194.464 183.99 195.895 183.357 197.44 183.357H197.497C198.985 183.357 200.473 183.933 201.503 185.026L214.551 197.975C216.726 200.162 216.726 203.788 214.551 206.09Z" fill="#575156"/>
<path d="M172.545 154.639L159.497 141.69C158.238 140.424 156.464 139.676 154.69 139.676H154.633C152.801 139.676 151.084 140.424 149.768 141.748C144.846 146.812 143.702 154.524 147.078 160.739C147.765 162.005 148.566 163.156 149.539 164.135C149.654 164.25 149.768 164.365 149.883 164.538C152.859 167.53 156.922 169.199 161.157 169.199H161.271C165.506 169.199 169.569 167.473 172.602 164.423C175.235 161.718 175.235 157.344 172.545 154.639ZM171.744 163.617C168.997 166.437 165.22 168.048 161.271 168.048H161.157C152.916 168.048 146.277 161.315 146.277 153.085C146.277 149.172 147.822 145.373 150.569 142.553C152.801 140.309 156.407 140.251 158.639 142.496L171.687 155.445C173.976 157.689 173.976 161.372 171.744 163.617Z" fill="#575156"/>
<path d="M212.605 204.765C214.551 202.808 214.493 199.643 212.548 197.686L201.731 186.924C199.785 184.968 196.638 185.025 194.692 186.982C189.026 192.737 189.999 202.578 197.496 206.952C202.361 209.772 208.599 208.794 212.605 204.765Z" fill="#F6A55A"/>
<path d="M169.855 162.293C171.801 160.337 171.743 157.171 169.798 155.215L158.981 144.453C157.035 142.496 153.888 142.554 151.942 144.51C146.276 150.265 147.249 160.107 154.746 164.48C159.611 167.3 165.849 166.322 169.855 162.293Z" fill="#F6A55A"/>
<path d="M200.302 210.06L199.958 210.981C198.356 210.348 196.753 209.772 195.266 209.139C168.425 198.147 155.606 185.255 147.079 160.796C146.678 159.645 146.278 158.494 145.877 157.286L146.793 156.998C147.079 158.149 147.537 159.3 148.109 160.336C148.567 161.66 149.082 162.983 149.54 164.249C157.609 184.91 169.455 196.708 192.232 206.664C193.377 207.182 194.522 207.643 195.781 208.161C197.154 208.966 198.699 209.657 200.302 210.06Z" fill="#575156"/>
<path d="M159.255 168.19L158.451 169.009L188.176 198.531L188.98 197.712L159.255 168.19Z" fill="#575156"/>
<path d="M130.824 109.519V90.585L119.779 91.5633L123.671 103.476L109.535 125.058C107.017 125.633 105.415 128.166 105.987 130.698C106.559 133.23 109.077 134.841 111.596 134.266C113.942 133.748 115.544 131.446 115.201 129.029L130.824 109.519Z" fill="#FDE1CE"/>
</g>
<defs>
<clipPath id="clip0_517_2325">
<rect width="266" height="258" fill="white"/>
</clipPath>
</defs>
</svg>
