<svg width="308" height="248" viewBox="0 0 308 248" fill="none" xmlns="http://www.w3.org/2000/svg">
<g clip-path="url(#clip0_569_1142)">
<path d="M283.947 233.348C293.221 233.348 300.738 225.857 300.738 216.617C300.738 207.377 293.221 199.887 283.947 199.887C274.674 199.887 267.156 207.377 267.156 216.617C267.156 225.857 274.674 233.348 283.947 233.348Z" fill="#F0F0F0"/>
<path d="M295.782 0H203.336C194.153 0 186.199 6.35535 184.163 15.2758L137.44 221.748C135.519 230.286 140.898 238.747 149.428 240.661C150.312 240.852 151.234 240.967 152.156 241.044L247.215 245.715C257.743 246.212 267.003 238.9 268.886 228.563L295.398 82.5813L297.357 83.1555L302.429 55.4753L300.393 54.9776L307.808 14.2421C308.999 7.69533 304.619 1.41655 298.049 0.229711C297.319 0.0382852 296.55 0 295.782 0Z" fill="#3F3D56"/>
<path d="M215.516 4.44141H204.72C198.341 4.44141 192.808 8.88249 191.464 15.0847L146.624 219.872C145.625 224.39 148.506 228.87 153.04 229.865C153.463 229.941 153.886 230.018 154.27 230.056L249.021 236.22C254.554 236.565 259.473 232.736 260.472 227.3L298.741 15.659C299.663 10.4905 296.243 5.55168 291.056 4.59455C290.48 4.47969 289.942 4.44141 289.366 4.44141H279.145C277.109 4.44141 275.341 5.81967 274.803 7.77222C274.342 9.49506 272.767 10.7202 270.961 10.7202H222.279C218.744 10.7202 215.785 7.96365 215.516 4.44141Z" fill="white"/>
<path d="M131.33 241.389C131.33 244.605 101.898 244.949 65.6652 247.208C29.4706 249.467 0 244.605 0 241.389C0 238.173 29.5858 231.741 65.6652 235.569C101.898 239.474 131.33 238.211 131.33 241.389Z" fill="#E6E6E6"/>
<path d="M53.6381 178.218C55.5209 176.916 55.9819 174.39 54.714 172.514C54.5603 172.322 54.4066 172.131 54.2529 171.939L55.8667 136.334L47.721 137.253L48.182 172.092C46.6451 173.815 46.7988 176.419 48.5278 177.912C49.9495 179.175 52.0628 179.328 53.6381 178.218Z" fill="#FDE1CE"/>
<path d="M68.5078 238.517L73.157 239.321L77.7294 221.863L71.6585 220.676L68.5078 238.517Z" fill="#FDE1CE"/>
<path d="M81.3417 245.178L66.7793 242.613L67.7783 236.985L76.7309 238.555C79.8047 239.129 81.8796 242.077 81.3417 245.178Z" fill="#2F2E41"/>
<path d="M55.791 240.814H60.5171L62.7456 222.705H55.791V240.814Z" fill="#FDE1CE"/>
<path d="M69.5839 245.179H54.791V239.475H63.8589C67.0096 239.475 69.5839 242.04 69.5839 245.179Z" fill="#2F2E41"/>
<path d="M75.4256 234.344C75.3487 234.344 75.2719 234.344 75.195 234.344L69.6621 233.885C68.6247 233.77 67.8946 232.851 68.0099 231.817C68.0099 231.779 68.0099 231.741 68.0099 231.741L73.5044 204.673L70.0463 186.488C69.9695 186.143 69.6621 185.913 69.3163 185.99C69.0473 186.028 68.8168 186.258 68.8168 186.564L63.7065 232.736C63.5912 233.732 62.7075 234.497 61.7085 234.421L56.4829 234.229C55.5224 234.153 54.7923 233.387 54.7539 232.468L55.1766 176.648L82.2649 173.279L84.1476 202.376V202.414L77.2315 232.928C77.0393 233.732 76.3093 234.344 75.4256 234.344Z" fill="#2F2E41"/>
<path d="M64.1279 113.286C69.3481 113.286 73.58 109.069 73.58 103.867C73.58 98.6659 69.3481 94.4492 64.1279 94.4492C58.9076 94.4492 54.6758 98.6659 54.6758 103.867C54.6758 109.069 58.9076 113.286 64.1279 113.286Z" fill="#FDE1CE"/>
<path d="M73.0031 180.859C71.543 180.859 70.083 180.438 68.815 179.672C64.2426 176.839 59.0555 177.949 56.3659 178.868C55.828 179.06 55.2132 178.983 54.7521 178.677C54.291 178.371 53.9452 177.873 53.9068 177.299L49.0271 133.807C48.2202 126.532 52.6004 119.679 59.5166 117.497C59.7855 117.421 60.0545 117.344 60.3235 117.267C64.6653 116.081 69.3145 116.885 73.0031 119.45C76.7686 122.053 79.1892 126.15 79.6119 130.705L83.7232 174.504C83.7616 175.078 83.5695 175.652 83.1468 176.035C81.6483 177.413 77.4602 180.859 73.0031 180.859Z" fill="#62BAF9"/>
<path d="M58.1339 143.186L47.1064 141.961C45.9153 141.846 45.0316 140.736 45.1468 139.549C45.1468 139.434 45.1853 139.32 45.2237 139.243L48.0286 128.6C48.3744 125.269 51.3714 122.819 54.7142 123.163C58.057 123.508 60.5161 126.494 60.1703 129.825C60.1703 129.863 60.1703 129.901 60.1703 129.94L60.5929 140.928C60.6314 142.153 59.7092 143.148 58.4797 143.186C58.3644 143.186 58.2491 143.186 58.1339 143.186Z" fill="#62BAF9"/>
<path d="M83.6472 176.687C85.3762 175.193 85.5299 172.59 84.0314 170.867C83.8777 170.676 83.6856 170.523 83.4935 170.37L80.7655 134.841L72.7734 136.64L77.4611 171.25C76.1547 173.126 76.6158 175.691 78.4985 176.993C80.0738 178.103 82.1871 177.988 83.6472 176.687Z" fill="#FDE1CE"/>
<path d="M69.6991 140.928C69.2381 140.507 68.9691 139.894 69.0075 139.244L69.4302 128.256C69.046 124.925 71.4666 121.9 74.8094 121.517C78.1522 121.135 81.1877 123.547 81.5719 126.877L84.3768 137.521C84.6842 138.708 83.9926 139.894 82.8014 140.201C82.6862 140.239 82.6093 140.239 82.4941 140.277L71.4666 141.502C70.8134 141.579 70.1987 141.388 69.6991 140.928Z" fill="#62BAF9"/>
<path d="M225.198 186.947C229.845 186.947 233.613 183.193 233.613 178.562C233.613 173.932 229.845 170.178 225.198 170.178C220.551 170.178 216.783 173.932 216.783 178.562C216.783 183.193 220.551 186.947 225.198 186.947Z" fill="#F0F0F0"/>
<path d="M124.721 159.955C129.369 159.955 133.136 156.202 133.136 151.571C133.136 146.94 129.369 143.187 124.721 143.187C120.074 143.187 116.307 146.94 116.307 151.571C116.307 156.202 120.074 159.955 124.721 159.955Z" fill="#F0F0F0"/>
<path d="M29.8541 75.4603C34.5014 75.4603 38.2688 71.7065 38.2688 67.0759C38.2688 62.4453 34.5014 58.6914 29.8541 58.6914C25.2068 58.6914 21.4395 62.4453 21.4395 67.0759C21.4395 71.7065 25.2068 75.4603 29.8541 75.4603Z" fill="#F0F0F0"/>
<path d="M111.466 52.1444C121.079 52.1444 128.872 44.3796 128.872 34.8012C128.872 25.2228 121.079 17.458 111.466 17.458C101.853 17.458 94.0605 25.2228 94.0605 34.8012C94.0605 44.3796 101.853 52.1444 111.466 52.1444Z" fill="#F0F0F0"/>
<path d="M177.515 13.3994C214.017 13.3994 238.724 41.6539 232.192 76.4169C225.66 111.18 190.579 138.439 154.346 137.405C118.728 136.372 95.3667 108.27 101.591 74.5409C107.893 40.8116 141.628 13.3994 177.515 13.3994Z" stroke="#E6E6E6" stroke-width="3" stroke-miterlimit="10"/>
<path d="M237.724 177.107C249.366 178.715 256.705 189.014 254.822 199.849C253.016 210.339 243.064 218.34 231.998 218.034C220.241 217.689 211.096 208.195 212.326 196.441C213.594 184.19 225.313 175.384 237.724 177.107Z" stroke="#E6E6E6" stroke-width="3" stroke-miterlimit="10"/>
<path d="M63.5514 113.593C63.3977 113.593 63.2056 113.554 63.0519 113.516H63.0135C54.7141 112.253 52.8698 107.467 52.4856 105.476C52.0629 103.409 52.524 101.418 53.5998 100.614C53.0235 98.7763 53.1003 97.13 53.8688 95.7517C55.2136 93.3398 58.1338 92.5358 58.518 92.4209C60.8618 90.6981 63.6283 91.8466 64.1278 92.0764C68.6233 90.4301 70.3523 91.8084 70.6597 92.1146C72.6577 92.4592 73.8873 93.2632 74.3099 94.4118C75.0784 96.594 72.6577 99.3505 72.5425 99.4654L72.504 99.542L68.8923 99.6951C67.5475 99.7717 66.51 100.882 66.5869 102.26C66.5869 102.337 66.5869 102.413 66.6253 102.528C66.7406 102.949 66.8558 103.409 67.0095 103.83C67.6243 105.744 68.0854 107.39 67.509 108.003C67.2401 108.233 66.8558 108.309 66.51 108.194C65.9337 108.041 65.5494 108.08 65.3573 108.271C65.0499 108.616 65.1652 109.42 65.6263 110.606C65.9337 111.372 65.78 112.214 65.2421 112.827C64.781 113.325 64.2046 113.593 63.5514 113.593Z" fill="#2F2E41"/>
<path d="M229.618 71.4023C250.981 71.4023 265.428 87.9416 261.586 108.271C257.782 128.6 237.225 144.565 216.054 143.953C195.229 143.34 181.55 126.916 185.2 107.199C188.889 87.4439 208.6 71.4023 229.618 71.4023Z" fill="#62BAF9"/>
<path d="M230.771 125.691C229.119 125.653 226.929 125.04 223.855 123.164C220.013 120.906 216.631 118.111 213.903 114.78C211.022 111.564 208.793 107.85 207.371 103.754C205.335 98.4321 206.372 95.6756 207.141 94.527C208.063 93.2253 209.293 92.1916 210.753 91.4642C211.598 91.0048 212.443 90.622 213.327 90.2774C213.404 90.2391 213.481 90.2008 213.557 90.2008C214.172 89.8945 214.825 89.8562 215.402 90.0477C216.017 90.354 216.516 90.7751 216.9 91.3111C218.284 93.1871 219.359 95.2545 220.089 97.475C220.435 98.2407 220.55 99.1213 220.474 100.002C220.243 100.882 219.705 101.686 218.975 102.337C218.821 102.49 218.706 102.605 218.591 102.758C217.822 103.524 217.63 103.754 217.63 104.175C217.669 104.979 220.32 105.745 222.203 107.927C224.085 110.109 224.585 113.095 225.43 113.287C225.853 113.402 226.122 113.249 227.121 112.636C227.275 112.559 227.39 112.445 227.544 112.368C228.35 111.755 229.311 111.411 230.272 111.334C231.194 111.449 232.077 111.755 232.769 112.253C234.882 113.402 236.803 114.818 238.494 116.464C238.994 116.924 239.339 117.498 239.532 118.149C239.647 118.723 239.455 119.374 239.032 119.91C238.994 119.987 238.955 120.063 238.878 120.14C238.379 120.944 237.802 121.671 237.149 122.399C236.15 123.624 234.805 124.619 233.307 125.232C232.539 125.576 231.655 125.73 230.771 125.691Z" fill="white"/>
</g>
<defs>
<clipPath id="clip0_569_1142">
<rect width="308" height="247.782" fill="white"/>
</clipPath>
</defs>
</svg>
