<svg width="308" height="241" viewBox="0 0 308 241" fill="none" xmlns="http://www.w3.org/2000/svg">
<g clip-path="url(#clip0_516_2057)">
<path d="M302.063 63.9196C299.005 56.8241 294.897 50.2398 289.831 44.407L120.315 42.7234L259.879 23.0605C250.855 19.4526 241.26 17.5585 231.546 17.4382C204.143 -4.53974 165.587 -5.83256 136.745 14.2212C125.562 8.41853 113.12 5.41197 100.497 5.44204C62.8406 5.44204 31.45 31.5991 24.4043 66.2948L302.063 63.9196Z" fill="#F0F0F0" fill-opacity="0.5"/>
<path d="M308.03 92.9929C308.03 83.5823 306.231 74.262 302.753 65.543L8.96447 96.4805C5.93634 101.982 3.62776 107.845 2.06872 113.919L93.0326 127.508L0 137.43C2.78828 176.695 36.3676 207.693 77.3523 207.693C98.0095 207.693 116.748 199.846 130.659 187.008C144.601 200.056 163.549 208.084 184.416 208.084C215.387 208.084 242.101 190.405 254.543 164.85C279.518 156.912 298.886 136.949 305.542 111.994L190.502 94.0752H308.03C308 93.7445 308.03 93.3837 308.03 92.9929Z" fill="#F0F0F0" fill-opacity="0.5"/>
<path d="M85.9565 240.194C123.544 240.194 154.014 235.187 154.014 229.01C154.014 222.833 123.544 217.825 85.9565 217.825C48.3691 217.825 17.8984 222.833 17.8984 229.01C17.8984 235.187 48.3691 240.194 85.9565 240.194Z" fill="#81DC7F"/>
<path d="M156.354 156.943C153.296 157.724 150.148 156.221 150.148 156.221C150.148 156.221 147.48 153.124 145.201 152.673C142.922 152.222 142.053 155.92 140.734 156.882C139.804 157.544 133.088 157.063 129.041 156.732L128.321 156.642C128.261 156.582 128.171 156.552 128.111 156.492C128.111 156.492 124.214 155.289 123.404 154.237C122.595 153.184 117.168 151.2 115.489 151.32C113.81 151.441 108.833 151.711 108.833 151.711C108.833 151.711 106.885 149.486 105.985 149.727C105.086 149.967 102.028 149.697 102.028 149.697C102.028 149.697 101.188 147.532 100.349 144.405C99.9588 142.962 98.6396 141.94 97.3804 141.248C98.5197 137.34 96.481 126.185 90.1249 124.021C88.7457 123.54 88.0262 121.976 86.8569 121.104C85.8076 120.323 84.0686 118.519 84.9081 115.212C86.1074 110.611 89.0755 103.336 89.0755 103.336L91.2942 98.8859C91.0843 99.1865 90.8445 99.4872 90.6046 99.7578C90.9044 99.3669 91.2042 99.0062 91.4741 98.6754C93.6927 99.7879 96.0912 100.449 98.5797 100.63C101.068 101.652 103.587 102.524 104.546 102.494C106.765 102.404 112.431 105.26 112.431 105.26C112.431 105.26 126.073 109.168 128.891 109.469C131.739 109.77 133.088 106.102 133.088 106.102C133.088 106.102 134.557 98.8258 131.949 96.9016C129.341 94.9774 127.812 103.817 127.812 103.817L109.943 97.4127L108.833 96.8414C109.673 95.9395 110.362 94.8872 110.842 93.7146C111.112 93.0231 111.382 92.2414 112.041 91.9107C112.221 91.8205 112.401 91.7603 112.611 91.7603C112.761 91.7603 112.941 91.7603 113.091 91.7603C116.179 91.9407 118.847 94.4061 121.935 94.4061C122.055 94.4061 122.175 94.4061 122.265 94.4061C122.865 94.4061 123.434 94.2257 123.914 93.895C124.484 93.444 124.813 92.7826 124.873 92.061C124.813 92.1512 124.784 92.2414 124.724 92.3316C124.813 91.8806 124.813 91.4296 124.724 90.9786C124.544 89.9263 123.974 88.9642 123.494 88.0322C123.344 87.8217 123.284 87.5512 123.254 87.2806C123.284 87.01 123.434 86.7394 123.644 86.5891C123.644 86.6191 123.644 86.6492 123.674 86.6793C123.914 86.4688 124.154 86.2583 124.454 86.108C125.983 85.0858 127.032 83.4923 127.332 81.6884C127.272 81.8988 127.182 82.1393 127.062 82.3498C127.512 80.8165 127.422 79.1929 126.732 77.7197C126.552 77.2988 126.283 76.938 125.923 76.6674C124.813 75.8857 123.314 76.7275 121.935 76.8177C120.736 76.9079 119.567 76.3668 118.487 75.8256C116.629 74.8935 114.8 73.9014 113.271 72.5184C111.532 70.955 110.212 68.9406 108.653 67.1967C107.094 65.4529 105.056 63.8895 102.717 63.7392C98.4598 63.4085 94.4422 67.6477 90.3647 66.2647C88.386 65.6033 87.0968 63.7693 85.7176 62.1758C84.3385 60.5823 82.4496 59.079 80.3809 59.4398C78.9418 59.6804 77.7125 60.7928 76.2435 60.7627C75.4939 60.7326 74.7744 60.4019 74.0548 60.1614C72.3159 59.5902 69.9174 59.8607 69.3177 61.6045C69.0779 62.3261 69.1678 63.1078 69.5576 63.7693C69.4676 63.8895 69.3777 64.0399 69.3177 64.1902C69.1678 64.4608 69.1079 64.7915 69.1678 65.0922C65.3602 68.5196 65.0304 74.3824 68.4483 78.2008C69.6175 79.4936 71.1166 80.4557 72.8256 80.9367C72.8855 81.1472 72.9455 81.3877 73.0055 81.5982C73.5751 84.0635 73.9049 86.8296 73.0354 88.6937C72.9755 88.8139 72.9155 88.9342 72.8555 89.0244L72.7956 89.0544L72.6757 88.9342L72.0161 88.2427C71.9861 87.5211 71.5663 85.5969 68.7781 82.0492C65.0903 77.3589 64.4008 69.602 64.4008 69.602C64.4008 69.602 63.4713 65.6033 64.4008 64.4608C65.3302 63.3183 66.8592 50.6306 66.8592 50.6306L69.4077 43.5051C69.4077 43.5051 81.7301 30.9076 76.6032 29.3742C73.1254 28.3219 68.9579 33.7037 66.6494 37.2514C65.5101 38.9952 64.7905 40.9796 64.4907 43.024L57.535 62.1457C57.535 62.1457 56.8454 64.4608 57.535 68.4595C58.2246 72.4582 59.7536 79.5236 59.7536 79.5236L63.6512 89.4453C63.6512 89.4453 65.0903 93.7146 64.9704 95.5787C64.7905 95.6989 64.1909 96.8715 63.6812 97.9539L63.2914 98.5552L63.2615 98.7957C62.9916 99.3369 62.8417 99.7277 62.8417 99.7277C62.8417 99.7277 60.6831 106.162 62.4819 110.1C64.2808 114.039 64.3708 115.873 64.3708 115.873L65.7199 121.706L66.2896 126.817L71.1466 138.873L75.6138 145.277C75.6138 145.277 75.1941 149.997 74.2647 150.659C73.3352 151.32 73.755 154.688 73.755 154.688L73.1853 163.557C73.1853 163.557 71.3864 166.203 71.2665 170.502C71.1466 174.802 70.487 176.034 70.487 176.034C70.487 176.034 70.1872 179.642 71.0267 181.296C71.8662 182.949 69.6775 184.663 69.6775 184.663L71.5364 191.097L70.8168 199.245C70.8168 199.245 71.1466 199.335 71.7162 199.485L71.5963 200.057L68.5382 215.48C68.5382 215.48 66.8892 219.719 66.8293 220.712L61.5525 230.303C61.5525 230.303 57.1153 234.722 59.214 235.143C61.3127 235.564 67.4589 231.776 67.4589 231.776C67.4589 231.776 72.5257 226.334 74.5045 225.823C76.4833 225.312 78.7019 223.899 78.0723 221.824C77.4427 219.75 75.9736 216.593 77.3828 213.255C78.2822 211.151 80.201 205.438 81.5202 201.44C81.5802 201.229 81.6701 201.019 81.7301 200.808C82.0899 200.778 82.4196 200.718 82.7494 200.598C85.9575 199.606 87.6664 200.297 87.6664 200.297L93.4229 176.996L94.6821 165.301L102.717 172.035C104.306 173.358 106.285 174.14 108.354 174.26C111.532 174.441 116.479 174.922 120.046 176.004L121.546 169.75C121.546 169.75 125.833 169.901 126.762 168.458C127.122 167.856 127.512 167.345 127.812 166.954L128.501 166.834L147.48 163.888C151.017 163.888 155.814 161.513 155.814 161.513L158.753 160.941C158.753 160.941 163.16 160.069 163.55 159.318C163.939 158.566 159.412 156.161 156.354 156.943Z" fill="url(#paint0_linear_516_2057)"/>
<path d="M70.2473 63.048C70.847 61.3643 73.1855 61.0637 74.8945 61.6349C75.5841 61.8754 76.2736 62.2062 77.0232 62.2362C78.4323 62.2663 79.6615 61.1839 81.0707 60.9434C83.0794 60.6127 84.9383 62.0859 86.2874 63.6192C87.6366 65.1526 88.9258 66.9565 90.8446 67.618C94.8022 68.9709 98.7598 64.8219 102.927 65.1526C105.206 65.333 107.185 66.8363 108.744 68.55C110.303 70.2637 111.562 72.218 113.271 73.7513C114.77 75.1043 116.569 76.0965 118.368 76.9984C119.417 77.5396 120.556 78.0507 121.726 77.9906C123.075 77.9004 124.544 77.0886 125.623 77.8403C125.953 78.1108 126.223 78.4716 126.403 78.8625C127.752 81.6586 126.673 85.3867 124.034 87.0403C123.584 87.341 123.015 87.6416 122.985 88.1828C122.985 88.4534 123.075 88.6939 123.195 88.9044C123.674 89.8364 124.214 90.7685 124.394 91.7907C124.574 92.8129 124.334 94.0155 123.494 94.6469C122.955 95.0077 122.295 95.1881 121.636 95.158C118.608 95.158 115.999 92.7528 112.971 92.5724C112.581 92.5423 112.191 92.6025 111.832 92.7528C111.202 93.0835 110.932 93.8652 110.662 94.5267C109.253 98.0443 105.775 100.48 102.058 101.141C98.34 101.803 94.4424 100.871 91.1145 99.0666C90.8746 98.9463 90.6348 98.796 90.4549 98.6156C90.185 98.2849 89.9752 97.894 89.8852 97.443C88.8659 94.1959 87.4867 90.8286 84.6684 88.9645C82.8396 87.7619 80.3511 87.1005 79.5116 85.056C79.0019 83.7632 79.3317 82.32 79.1818 80.937C78.912 78.5318 77.293 76.4572 75.0144 75.6455C74.5347 75.4951 73.995 75.3749 73.6353 74.984C73.3354 74.6232 73.1556 74.1723 73.0956 73.7213C72.6459 71.6768 72.3461 69.5422 71.7164 67.5578C71.2967 66.0245 69.5878 64.8219 70.2473 63.048Z" fill="#8E5C48"/>
<g opacity="0.1">
<path d="M123.854 93.7441C123.314 94.1049 122.654 94.2853 121.995 94.2252C118.967 94.2252 116.358 91.8199 113.33 91.6395C112.94 91.5794 112.551 91.6395 112.191 91.8199C111.561 92.1507 111.291 92.9324 111.022 93.5938C109.612 97.1115 106.135 99.5468 102.417 100.238C98.6992 100.93 94.8016 99.9677 91.5037 98.1638C91.2638 98.0435 91.0239 97.8932 90.8441 97.7128C90.5742 97.3821 90.3644 96.9612 90.2744 96.5402C89.255 93.2932 87.8759 89.9258 85.0576 88.0617C83.2288 86.8591 80.7403 86.1977 79.9008 84.1532C79.3611 82.8604 79.6909 81.4173 79.571 80.0342C79.3012 77.5989 77.6822 75.5545 75.4036 74.7427C74.9239 74.5924 74.3842 74.442 74.0244 74.0812C73.7246 73.7205 73.5447 73.2695 73.4848 72.7884C73.035 70.744 72.7352 68.6093 72.1056 66.625C71.6859 65.3021 70.3667 64.2197 70.4266 62.8066C70.3967 62.8668 70.3667 62.957 70.3367 63.0472C69.7071 64.821 71.3861 66.0237 71.8658 67.557C72.4954 69.5413 72.7952 71.7061 73.2449 73.7205C73.3049 74.2015 73.4848 74.6224 73.7846 75.0133C74.1444 75.3741 74.684 75.4943 75.1637 75.6747C77.4423 76.4865 79.0913 78.5309 79.3312 80.9663C79.4511 82.3493 79.1213 83.7924 79.661 85.0852C80.5004 87.1297 82.9589 87.7912 84.8178 88.9938C87.636 90.8578 89.0152 94.2553 90.0346 97.4723C90.1245 97.8932 90.3344 98.284 90.6042 98.6448C90.8141 98.8252 91.0239 98.9756 91.2638 99.0958C94.5917 100.9 98.4594 101.832 102.177 101.17C105.895 100.509 109.373 98.0435 110.782 94.5258C111.052 93.8644 111.291 93.0827 111.951 92.752C112.311 92.6016 112.701 92.5415 113.09 92.5716C116.118 92.752 118.727 95.1572 121.755 95.1572C122.415 95.1873 123.044 95.0069 123.614 94.6461C124.154 94.1951 124.513 93.5337 124.543 92.8422C124.423 93.203 124.183 93.5036 123.854 93.7441Z" fill="black"/>
<path d="M124.393 86.1072C123.943 86.4078 123.374 86.7085 123.344 87.2497C123.344 87.3699 123.344 87.4601 123.404 87.5804C123.644 87.3699 123.883 87.1895 124.153 87.0091C125.652 86.017 126.672 84.4536 126.972 82.6797C126.522 84.1228 125.622 85.3255 124.393 86.1072Z" fill="black"/>
</g>
<path d="M78.0716 211.481C76.6925 214.758 78.1016 217.825 78.7312 219.869C79.3608 221.914 77.2021 223.297 75.2534 223.778C73.3046 224.259 68.3576 229.611 68.3576 229.611C68.3576 229.611 62.3613 233.339 60.2926 232.918C58.2239 232.497 62.5712 228.167 62.5712 228.167L67.788 218.727C67.8479 217.765 69.4669 213.616 69.4669 213.616L72.4351 198.523L72.8248 196.508L83.3783 195.877C83.3783 195.877 82.8087 197.591 82.0592 199.936C80.8299 203.844 78.9411 209.467 78.0716 211.481Z" fill="#FDE1CE"/>
<path d="M162.41 158.746C162.05 159.468 157.733 160.31 157.733 160.31L154.854 160.881C154.854 160.881 150.117 163.226 146.699 163.226L128.141 166.112L125.652 166.503V155.95C125.652 155.95 126.912 156.07 128.68 156.251C132.638 156.612 139.204 157.062 140.133 156.401C141.453 155.469 142.292 151.861 144.511 152.282C146.729 152.703 149.338 155.74 149.338 155.74C149.338 155.74 152.396 157.213 155.394 156.461C158.392 155.71 162.769 158.025 162.41 158.746Z" fill="#FDE1CE"/>
<path opacity="0.1" d="M128.74 165.27C128.74 165.27 128.47 165.571 128.08 166.082L125.592 166.473V155.92C125.592 155.92 126.851 156.04 128.62 156.221C131.618 158.566 128.74 165.27 128.74 165.27Z" fill="black"/>
<path d="M92.8828 162.835L102.867 171.194C104.426 172.486 106.345 173.268 108.383 173.388C111.471 173.569 116.328 174.02 119.836 175.102L121.305 168.969C121.305 168.969 125.503 169.119 126.402 167.706C126.942 166.864 127.511 166.052 128.171 165.301C128.171 165.301 131.199 158.205 127.751 156.011C127.751 156.011 123.914 154.838 123.134 153.786C122.355 152.733 117.018 150.809 115.369 150.929C113.72 151.05 108.833 151.29 108.833 151.29C108.833 151.29 106.914 149.126 106.075 149.336C105.235 149.546 102.207 149.336 102.207 149.336C102.207 149.336 101.368 147.201 100.558 144.165C99.7486 141.128 94.8316 140.016 94.8316 140.016L92.8828 162.835Z" fill="#565987"/>
<path d="M92.8828 162.835L102.867 171.194C104.426 172.486 106.345 173.268 108.383 173.388C111.471 173.569 116.328 174.02 119.836 175.102L121.305 168.969C121.305 168.969 125.503 169.119 126.402 167.706C126.942 166.864 127.511 166.052 128.171 165.301C128.171 165.301 131.199 158.205 127.751 156.011C127.751 156.011 123.914 154.838 123.134 153.786C122.355 152.733 117.018 150.809 115.369 150.929C113.72 151.05 108.833 151.29 108.833 151.29C108.833 151.29 106.914 149.126 106.075 149.336C105.235 149.546 102.207 149.336 102.207 149.336C102.207 149.336 101.368 147.201 100.558 144.165C99.7486 141.128 94.8316 140.016 94.8316 140.016L92.8828 162.835Z" fill="#474141"/>
<path d="M88.4148 88.002L87.3055 88.2124H87.2455L87.0956 88.2425L85.2068 88.6033L84.6371 89.2948L84.6072 89.3249L82.7483 91.5497L81.1893 93.0831V93.1131L79.8701 94.4059L77.6215 96.6609L77.2317 97.5929L76.4222 99.6674L76.2123 100.209L73.9637 102.614L72.5246 105.681L69.1667 107.635L65.5689 105.771L63.9199 103.365L64.2797 99.9079L64.3397 99.2164L65.449 97.4426L66.4384 95.819L68.3872 93.053L72.1349 90.4974L72.7944 90.317L73.544 90.1066C73.6039 90.0164 73.6639 89.9262 73.6939 89.836C73.7539 89.7157 73.8138 89.6255 73.8738 89.5053C74.7133 87.6713 74.4134 84.9653 73.8438 82.5601C73.3941 80.7562 72.8244 79.0124 72.1049 77.2986L81.9988 75.8555C81.9988 75.8555 81.9088 77.7797 81.9088 80.7862C81.9088 81.5379 81.9088 82.3496 81.9388 83.2215C81.9988 85.9274 84.4872 87.1 86.3761 87.6111C86.8558 87.7314 87.3655 87.8516 87.8452 87.9118C88.2049 88.002 88.4148 88.002 88.4148 88.002Z" fill="#FDE1CE"/>
<path d="M72.826 89.4154C72.826 89.4154 73.2757 87.6115 69.6779 83.0415C66.0801 78.4716 65.4205 70.865 65.4205 70.865C65.4205 70.865 64.5211 66.9564 65.4205 65.814C66.32 64.6715 67.8191 52.2844 67.8191 52.2844L70.2775 45.3092C70.2775 45.3092 82.3301 32.9823 77.3232 31.479C73.9053 30.4568 69.8278 35.7183 67.5792 39.2059C66.4699 40.9196 65.7503 42.8438 65.4805 44.8582L58.6447 63.559C58.6447 63.559 57.9851 65.814 58.6447 69.7225C59.3043 73.631 60.8034 80.5461 60.8034 80.5461L64.641 90.2573C64.641 90.2573 66.6498 96.3005 65.6004 97.022L67.939 93.5645L72.826 89.4154Z" fill="#FDE1CE"/>
<path d="M132.579 106.733C132.579 106.733 131.23 110.341 128.441 110.04C125.653 109.739 112.311 105.891 112.311 105.891C112.311 105.891 106.765 103.125 104.576 103.185C102.388 103.245 92.4636 98.6149 92.4636 98.6149C92.4636 98.6149 91.7741 99.5469 90.9646 100.509C90.1251 101.561 89.1657 102.704 88.9258 102.734C88.4761 102.794 81.4904 103.786 81.4904 103.786L76.7533 101.621L76.3036 99.6672L76.0938 98.7652L77.1431 97.5927L78.5222 96.0593L81.1007 93.1129V93.0829L84.5485 89.3247L84.5785 89.2946L86.7971 88.3926L87.2169 88.2122H87.2769C87.5467 88.1822 88.5661 88.0619 89.9152 88.8436C90.8746 89.3848 91.924 89.7155 93.0033 89.8057C95.162 89.956 97.2007 90.8279 98.7897 92.3011L109.883 98.1639L127.332 104.478C127.332 104.478 128.831 95.8188 131.38 97.713C133.928 99.6071 132.579 106.733 132.579 106.733Z" fill="#FDE1CE"/>
<path opacity="0.1" d="M90.9933 100.509C90.1538 101.561 89.1944 102.704 88.9546 102.734C88.5049 102.794 81.5192 103.786 81.5192 103.786L76.7821 101.622L76.3324 99.6672L76.1225 100.208L73.8739 102.614L72.4348 105.68L69.0768 107.635L65.4791 105.771L63.8301 103.365L64.1899 99.9078C64.3697 99.4868 64.9094 98.3744 65.3591 97.4424C65.569 96.9313 65.8688 96.4502 66.1986 95.9692C66.4984 95.7587 66.7982 93.6241 66.7982 93.6241C68.1474 89.6855 72.7346 89.0841 72.7346 89.0841L73.4541 89.7757L73.7839 90.1064C73.664 90.0763 73.8139 89.8057 73.634 89.8358C73.3642 89.8959 73.2443 90.3168 72.9145 90.5273C71.0856 91.7299 68.1774 94.526 67.0381 95.879C66.7683 96.2097 66.4685 96.5104 66.1986 96.811C64.5496 98.5548 64.8495 100.87 64.8495 100.87C64.4297 102.674 68.0875 104.027 68.0875 104.027C69.1068 102.343 75.9426 97.6829 75.9426 97.6829L80.5598 92.5116C81.9689 90.0463 84.7572 88.4227 86.3162 87.641C87.0058 87.3103 87.4555 87.1299 87.4555 87.1299L89.1944 87.8815C88.7447 87.7613 88.265 87.7913 87.8153 87.9417C87.5454 88.0319 87.3056 88.1221 87.0657 88.2423C86.9758 88.2724 86.8859 88.3325 86.7959 88.3926C86.3162 88.6632 85.8665 88.994 85.4767 89.3547L81.6091 93.594C78.6409 96.8411 80.8896 102.072 85.2669 102.163H85.2968C87.9952 102.794 89.914 101.531 90.9933 100.509Z" fill="black"/>
<path opacity="0.1" d="M83.4381 195.907C83.4381 195.907 82.8684 197.621 82.1189 199.966C79.1807 200.177 74.3537 199.064 72.4648 198.553L72.8546 196.539L83.4381 195.907Z" fill="black"/>
<path d="M73.8138 90.1067L72.8544 89.1145C72.8544 89.1145 69.4066 89.5956 67.2479 93.2937C67.2479 93.2937 66.2285 96.0597 65.9287 96.2702C65.6289 96.4806 63.83 100.359 63.83 100.359C63.83 100.359 61.7013 106.643 63.4702 110.521C65.2391 114.4 65.3291 116.174 65.3291 116.174L66.6483 121.886L67.1879 126.907L71.955 138.693L76.3323 144.946C76.3323 144.946 75.9125 149.576 75.0131 150.208C74.1137 150.839 74.5334 154.146 74.5334 154.146L73.9637 162.835C73.9637 162.835 72.1948 165.421 72.1049 169.63C72.0149 173.839 71.3554 175.042 71.3554 175.042C71.3554 175.042 71.0555 178.59 71.895 180.183C72.7345 181.777 70.5758 183.49 70.5758 183.49L72.4047 189.774L71.6852 197.742C71.6852 197.742 80.1399 200.117 83.318 199.125C86.496 198.132 88.115 198.824 88.115 198.824L93.7515 176.004L95.7003 158.085C95.7003 158.085 95.8203 145.397 97.4992 141.519C98.9383 138.212 97.0495 126.426 90.5435 124.201C89.1944 123.75 88.5048 122.187 87.3355 121.345C86.2861 120.593 84.6072 118.819 85.4467 115.572C86.6159 111.062 89.5242 103.967 89.5242 103.967L91.6828 99.6375C91.6828 99.6375 89.3143 103.456 85.0269 102.494H84.9969C80.6196 102.404 78.371 97.1721 81.3392 93.925L85.2068 89.6858C85.2068 89.6858 87.3355 87.7015 88.9245 88.2126L87.1856 87.4609C87.1856 87.4609 82.3286 89.2649 80.2898 92.8427L75.6727 98.014C75.6727 98.014 68.8069 102.644 67.8175 104.358C67.8175 104.358 64.1898 103.005 64.5795 101.201C64.5795 101.201 64.2797 98.8859 65.9287 97.1421C66.2285 96.8414 66.4984 96.5107 66.7682 96.21C68.2673 94.4662 72.3447 89.8662 73.8138 90.1067Z" fill="#575156"/>
<path d="M74.3834 121.074C74.3834 121.074 73.3041 129.012 74.1136 130.635L74.3834 121.074Z" fill="#474141"/>
<path d="M75.0742 124.171L76.2435 128.711C76.2435 128.711 76.6632 125.945 75.0742 124.171Z" fill="#474141"/>
<path d="M68.1777 123.089C68.1777 123.089 70.5163 134.664 73.0347 138.152Z" fill="#474141"/>
<path d="M84.5771 137.069C84.5771 137.069 80.6196 140.827 79.0605 140.557C79.0605 140.557 85.1768 140.827 87.0956 137.58C87.0656 137.58 85.8364 136.678 84.5771 137.069Z" fill="#474141"/>
<path d="M90.0635 136.769C90.0635 136.769 84.9666 140.497 83.9473 140.827C83.9772 140.797 89.4639 139.234 90.0635 136.769Z" fill="#474141"/>
<path d="M72.8259 109.138C72.8259 109.138 70.2775 112.415 68.9883 112.024C69.0183 112.024 72.1363 112.144 72.8259 109.138Z" fill="#474141"/>
<path d="M75.7324 113.347C75.7324 113.347 81.279 105.801 83.8874 106.102C83.8874 106.102 77.5913 111.573 75.7324 113.347Z" fill="#474141"/>
<path d="M83.4085 110.581C83.4085 110.581 79.8707 112.355 80.2605 112.866C80.6502 113.377 83.4085 110.581 83.4085 110.581Z" fill="#474141"/>
<path d="M85.9578 168.578C85.9578 168.578 74.205 175.463 73.0957 175.794C73.0957 175.794 75.1344 177.327 77.0233 176.576C78.9121 175.824 85.9578 168.578 85.9578 168.578Z" fill="#474141"/>
<path d="M76.0926 182.889C76.0926 182.889 71.3555 182.408 71.5654 183.941C71.7752 185.475 76.0926 182.889 76.0926 182.889Z" fill="#474141"/>
<path opacity="0.1" d="M81.9701 75.8857C81.9701 75.8857 81.8801 77.8099 81.8801 80.8165C79.6315 82.6806 76.6334 83.3119 73.8151 82.5904C73.3654 80.7864 72.7957 79.0426 72.0762 77.3289L81.9701 75.8857Z" fill="black"/>
<path d="M76.1228 82.2895C81.1234 82.2895 85.1772 78.2243 85.1772 73.2097C85.1772 68.1951 81.1234 64.1299 76.1228 64.1299C71.1222 64.1299 67.0684 68.1951 67.0684 73.2097C67.0684 78.2243 71.1222 82.2895 76.1228 82.2895Z" fill="#FDE1CE"/>
<path opacity="0.1" d="M78.5219 78.7416C78.7918 82.4697 79.5713 86.709 82.7793 88.5731C85.1179 89.926 88.0261 89.5652 90.6045 88.8136C93.1829 88.0619 95.7013 86.8894 98.3697 86.7691C100.438 86.6789 102.477 87.19 104.516 87.3103C106.555 87.4306 108.833 87.1299 110.272 85.6567C112.371 83.5822 111.981 79.854 110.003 77.6893C108.024 75.5246 104.906 74.7429 101.967 74.803C98.3697 74.8932 94.3522 76.0056 91.5039 73.8109C89.5851 72.3376 88.8656 69.7821 87.2765 67.9781C84.5782 64.9716 72.7355 60.6421 70.2171 65.5428C69.0478 67.8278 74.3845 69.4814 75.6437 71.135C77.5925 73.7808 78.2821 75.3141 78.5219 78.7416Z" fill="black"/>
<path d="M78.7908 78.4408C79.0606 82.169 79.8401 86.4082 83.0482 88.2723C85.3867 89.6252 88.2949 89.2644 90.8733 88.5128C93.4517 87.7612 95.9702 86.5886 98.6685 86.4683C100.737 86.3782 102.746 86.8893 104.815 87.0095C106.883 87.1298 109.102 86.8291 110.571 85.3559C112.67 83.2814 112.28 79.5533 110.301 77.3885C108.323 75.2238 105.204 74.4421 102.266 74.5022C98.6685 74.5924 94.651 75.7049 91.8028 73.5101C89.8839 72.0369 89.1644 69.4813 87.5754 67.6774C84.877 64.6708 73.0343 60.3413 70.5159 65.242C69.3466 67.527 74.6833 69.1806 75.9425 70.8342C77.8614 73.4499 78.5509 74.9833 78.7908 78.4408Z" fill="#8E5C48"/>
<path opacity="0.1" d="M67.8789 104.057C68.1487 101.651 69.4679 99.4867 71.4467 98.1338Z" fill="black"/>
<path d="M101.877 151.139C101.847 151.44 101.787 151.711 101.667 151.981C101.277 153.154 100.797 154.326 100.258 155.439C101.067 155.379 101.727 154.747 102.057 153.996C102.357 153.244 102.506 152.462 102.536 151.65C102.566 151.41 102.566 151.139 102.566 150.899C102.536 150.658 102.387 149.756 101.997 149.937C101.697 150.087 101.907 150.899 101.877 151.139Z" fill="#343535"/>
<path opacity="0.1" d="M111.111 84.4238C109.642 85.8669 107.393 86.1977 105.354 86.0774C103.316 85.9571 101.247 85.446 99.2082 85.5362C96.5098 85.6565 94.0214 86.799 91.443 87.5807C88.8646 88.3624 85.9264 88.6931 83.6178 87.3402C80.4098 85.4761 79.6303 81.2068 79.3604 77.5087C79.1206 74.0812 78.431 72.5178 76.4822 69.9021C75.283 68.3086 70.366 66.7452 70.9356 64.6406C70.7857 64.821 70.6358 65.0315 70.5159 65.272C69.3466 67.557 74.6833 69.2106 75.9425 70.8642C77.8913 73.4799 78.5809 75.0433 78.8208 78.4708C79.0906 82.1989 79.8701 86.4382 83.0781 88.3023C85.4167 89.6552 88.3249 89.2944 90.9033 88.5428C93.4817 87.7911 96.0002 86.6186 98.6985 86.4983C100.767 86.4081 102.776 86.9192 104.845 87.0395C106.913 87.1598 109.132 86.8591 110.601 85.3859C111.021 84.965 111.351 84.4839 111.561 83.9427C111.411 84.0931 111.261 84.2434 111.111 84.4238Z" fill="black"/>
<path d="M67.218 111.754L66.3186 114.159H66.1387L67.218 111.754Z" fill="#474141"/>
<path opacity="0.1" d="M153.806 220.922C160.595 220.922 166.099 220.168 166.099 219.238C166.099 218.309 160.595 217.555 153.806 217.555C147.017 217.555 141.514 218.309 141.514 219.238C141.514 220.168 147.017 220.922 153.806 220.922Z" fill="#81DC7F"/>
<path opacity="0.1" d="M200.906 225.702C207.695 225.702 213.198 224.948 213.198 224.019C213.198 223.089 207.695 222.335 200.906 222.335C194.117 222.335 188.613 223.089 188.613 224.019C188.613 224.948 194.117 225.702 200.906 225.702Z" fill="#81DC7F"/>
<path opacity="0.1" d="M256.372 219.208C263.161 219.208 268.665 218.454 268.665 217.524C268.665 216.595 263.161 215.841 256.372 215.841C249.584 215.841 244.08 216.595 244.08 217.524C244.08 218.454 249.584 219.208 256.372 219.208Z" fill="#81DC7F"/>
<path opacity="0.1" d="M182.047 238.841C186.865 238.841 190.772 238.302 190.772 237.638C190.772 236.974 186.865 236.436 182.047 236.436C177.228 236.436 173.322 236.974 173.322 237.638C173.322 238.302 177.228 238.841 182.047 238.841Z" fill="#81DC7F"/>
<path opacity="0.1" d="M230.918 237.639C235.736 237.639 239.643 237.1 239.643 236.436C239.643 235.772 235.736 235.233 230.918 235.233C226.1 235.233 222.193 235.772 222.193 236.436C222.193 237.1 226.1 237.639 230.918 237.639Z" fill="#81DC7F"/>
<path d="M252.325 138.963C250.556 135.235 247.258 132.499 243.271 131.417C235.685 129.312 218.746 127.298 203.845 144.255C185.166 165.541 198.958 217.134 200.757 223.477C198.238 218.396 180.459 182.949 175.332 183.791C172.694 184.212 171.495 186.827 170.925 189.443C170.236 192.81 170.625 196.328 172.005 199.485C174.853 206.009 182.438 218.336 200.547 223.928C200.697 223.958 200.847 223.989 200.997 223.928C219.076 218.336 226.661 206.009 229.509 199.485C230.918 196.328 231.308 192.841 230.618 189.443C230.079 186.827 228.849 184.242 226.211 183.791C221.264 182.979 204.744 215.48 201.177 222.696L202.526 207.994C202.526 207.994 204.475 183.039 235.805 164.85C254.514 153.996 254.993 144.676 252.325 138.963Z" fill="#81DC7F"/>
<path d="M240.721 139.414C240.691 139.324 240.601 139.294 240.541 139.324C240.451 139.354 233.826 141.488 225.97 147.291H225.94C225.91 147.291 225.91 147.321 225.88 147.351C222.822 149.606 219.614 152.402 216.496 155.86C216.316 156.04 216.166 156.251 215.987 156.431C217.636 149.636 211.04 145.096 210.98 145.066C210.92 145.006 210.83 145.036 210.77 145.096C210.71 145.157 210.74 145.247 210.8 145.307C210.86 145.367 217.665 150.057 215.507 156.942C211.669 161.422 208.491 166.383 205.973 171.795C205.883 171.945 205.823 172.095 205.763 172.246V172.276C204.504 175.042 203.424 177.958 202.555 180.965C202.435 180.694 202.285 180.423 202.045 180.213C200.546 178.86 196.948 179.161 196.798 179.161C196.708 179.161 196.648 179.251 196.648 179.311C196.648 179.401 196.738 179.461 196.798 179.461C196.828 179.461 200.426 179.191 201.835 180.454C202.195 180.754 202.345 181.115 202.375 181.566C202.375 181.596 202.345 181.626 202.345 181.686C198.867 193.923 198.387 208.024 200.966 223.568C200.876 223.598 200.816 223.658 200.726 223.688C199.347 223.177 196.109 219.449 192.391 214.698L192.541 211.09C192.541 211 192.481 210.94 192.391 210.94C192.301 210.94 192.241 211 192.241 211.09L192.121 214.368C189.303 210.73 186.215 206.55 183.487 202.792L184.326 198.824C184.356 198.733 184.296 198.673 184.206 198.643C184.116 198.613 184.056 198.673 184.026 198.763L183.247 202.462C179.019 196.569 175.691 191.758 175.601 191.638C175.541 191.578 175.452 191.548 175.392 191.608C175.332 191.668 175.302 191.758 175.362 191.818C175.571 192.119 176.771 193.863 178.57 196.418C178.54 196.388 178.51 196.388 178.48 196.388H173.533C173.443 196.388 173.383 196.448 173.383 196.539C173.383 196.629 173.443 196.689 173.533 196.689H178.48C178.57 196.689 178.63 196.629 178.63 196.539C178.63 196.509 178.63 196.509 178.63 196.478C180.788 199.545 183.786 203.754 186.904 207.964L179.469 207.633C179.379 207.633 179.319 207.693 179.319 207.783C179.319 207.873 179.379 207.933 179.469 207.933L187.144 208.264C192.781 215.871 198.717 223.357 200.726 224.019C200.756 224.019 200.756 224.019 200.786 224.019C200.816 224.019 200.816 224.019 200.846 224.019C200.936 223.988 201.266 223.838 201.326 223.778C203.694 222.275 209.211 215.33 214.428 208.294L222.103 207.964C222.193 207.964 222.253 207.903 222.253 207.813C222.253 207.723 222.193 207.663 222.103 207.663L214.667 207.994C217.785 203.784 220.784 199.575 222.942 196.509V196.539C222.942 196.629 223.002 196.689 223.092 196.689H228.039C228.129 196.689 228.189 196.629 228.189 196.539C228.189 196.448 228.129 196.388 228.039 196.388H223.062C223.032 196.388 223.002 196.388 222.972 196.418C224.771 193.863 225.97 192.089 226.18 191.818C226.24 191.758 226.21 191.668 226.15 191.608C226.09 191.548 226 191.578 225.94 191.638C225.85 191.758 222.522 196.599 218.295 202.462L217.516 198.763C217.486 198.673 217.426 198.643 217.336 198.643C217.246 198.673 217.216 198.733 217.216 198.824L218.055 202.792C215.327 206.581 212.239 210.76 209.421 214.368L209.301 211.09C209.301 211 209.241 210.94 209.151 210.94C209.061 210.94 209.001 211 209.001 211.09L209.151 214.728C205.823 218.968 202.885 222.395 201.326 223.447C197.578 200.628 200.906 183.821 206.512 171.704C206.902 171.103 207.472 170.652 208.161 170.412C211.01 169.359 215.327 171.524 215.387 171.554C215.447 171.584 215.537 171.554 215.597 171.494C215.627 171.434 215.597 171.344 215.537 171.284C215.357 171.193 211.04 169.029 208.071 170.141C207.652 170.291 207.292 170.502 206.992 170.772C209.9 164.759 213.378 159.919 216.766 156.161C219.884 152.703 223.122 149.877 226.18 147.622C231.217 145.337 235.415 149.516 235.445 149.576C235.475 149.606 235.504 149.606 235.564 149.606C235.594 149.606 235.654 149.606 235.684 149.576C235.744 149.516 235.744 149.426 235.684 149.366C235.654 149.336 231.877 145.547 227.11 146.96C234.545 141.669 240.631 139.715 240.721 139.685C240.721 139.564 240.751 139.474 240.721 139.414Z" fill="#7C7368"/>
<path d="M235.745 233.7C236.284 233.249 236.704 232.648 236.884 231.956C237.034 231.265 236.734 230.453 236.075 230.182C235.325 229.912 234.545 230.423 233.946 230.934C233.346 231.445 232.657 232.047 231.877 231.926C232.687 231.175 233.076 230.062 232.837 228.98C232.807 228.769 232.717 228.559 232.567 228.379C232.147 227.928 231.427 228.138 230.918 228.469C229.359 229.581 228.909 231.686 228.909 233.61C228.759 232.918 228.879 232.197 228.879 231.505C228.879 230.814 228.669 230.002 228.099 229.641C227.74 229.431 227.32 229.341 226.9 229.341C226.211 229.311 225.431 229.401 224.951 229.912C224.352 230.543 224.502 231.626 225.041 232.317C225.581 233.009 226.331 233.46 227.08 233.941C227.65 234.271 228.159 234.752 228.519 235.324C228.549 235.414 228.609 235.474 228.639 235.564H233.046C234.006 235.083 234.905 234.452 235.745 233.7Z" fill="#81DC7F"/>
<path d="M158.813 217.134C159.352 216.683 159.772 216.081 159.952 215.39C160.102 214.698 159.802 213.887 159.142 213.616C158.393 213.346 157.613 213.857 157.014 214.368C156.414 214.879 155.725 215.48 154.945 215.36C155.755 214.608 156.114 213.496 155.904 212.413C155.874 212.203 155.784 211.993 155.635 211.812C155.215 211.361 154.495 211.572 153.986 211.902C152.427 213.015 151.977 215.119 151.977 217.044C151.827 216.352 151.947 215.63 151.947 214.939C151.947 214.247 151.737 213.436 151.137 213.075C150.778 212.864 150.358 212.774 149.938 212.804C149.249 212.774 148.469 212.834 147.989 213.345C147.39 213.977 147.54 215.059 148.049 215.751C148.559 216.442 149.338 216.893 150.088 217.374C150.658 217.735 151.167 218.186 151.527 218.757C151.557 218.847 151.617 218.908 151.647 218.998H156.054C157.074 218.487 158.003 217.855 158.813 217.134Z" fill="#81DC7F"/>
<path d="M184.446 233.7C184.986 233.249 185.405 232.648 185.585 231.956C185.735 231.265 185.435 230.453 184.776 230.182C184.026 229.912 183.247 230.423 182.647 230.934C182.047 231.445 181.358 232.047 180.578 231.926C181.388 231.175 181.778 230.062 181.538 228.98C181.508 228.769 181.418 228.559 181.268 228.379C180.848 227.928 180.129 228.138 179.619 228.469C178.06 229.581 177.61 231.686 177.61 233.61C177.46 232.918 177.58 232.197 177.58 231.505C177.58 230.814 177.37 230.002 176.801 229.641C176.441 229.431 176.021 229.341 175.601 229.341C174.912 229.311 174.132 229.401 173.653 229.912C173.053 230.543 173.203 231.626 173.743 232.317C174.282 233.009 175.032 233.46 175.781 233.941C176.351 234.271 176.861 234.752 177.22 235.324C177.25 235.414 177.31 235.474 177.34 235.564H181.748C182.707 235.083 183.636 234.452 184.446 233.7Z" fill="#81DC7F"/>
<path d="M257.151 200.177C257.151 200.177 258.8 202.341 256.401 205.589C254.003 208.836 251.994 211.602 252.803 213.646C252.803 213.646 256.431 207.603 259.399 207.513C262.368 207.423 260.419 203.815 257.151 200.177Z" fill="#81DC7F"/>
<path opacity="0.1" d="M257.152 200.177C257.302 200.387 257.422 200.598 257.482 200.838C260.36 204.236 261.919 207.392 259.131 207.483C256.552 207.543 253.464 212.203 252.715 213.345C252.745 213.436 252.775 213.526 252.805 213.616C252.805 213.616 256.433 207.573 259.401 207.483C262.369 207.392 260.42 203.815 257.152 200.177Z" fill="black"/>
<path d="M260.209 202.913C260.209 203.665 260.119 204.296 260.029 204.296C259.94 204.296 259.85 203.665 259.85 202.913C259.85 202.161 259.94 202.522 260.059 202.522C260.179 202.522 260.209 202.161 260.209 202.913Z" fill="#FFD037"/>
<path d="M261.259 203.844C260.6 204.205 260 204.416 259.97 204.325C259.94 204.235 260.42 203.874 261.079 203.484C261.739 203.093 261.469 203.393 261.529 203.484C261.589 203.574 261.949 203.484 261.259 203.844Z" fill="#FFD037"/>
<path d="M248.458 200.177C248.458 200.177 246.809 202.341 249.207 205.589C251.606 208.836 253.614 211.602 252.805 213.646C252.805 213.646 249.177 207.603 246.209 207.513C243.241 207.423 245.22 203.815 248.458 200.177Z" fill="#81DC7F"/>
<path opacity="0.1" d="M248.458 200.177C248.308 200.387 248.188 200.598 248.128 200.838C245.25 204.236 243.721 207.392 246.479 207.483C249.057 207.543 252.175 212.203 252.895 213.345C252.865 213.436 252.835 213.526 252.805 213.616C252.805 213.616 249.177 207.573 246.209 207.483C243.241 207.392 245.22 203.815 248.458 200.177Z" fill="black"/>
<path d="M245.398 202.912C245.398 203.664 245.488 204.295 245.578 204.295C245.668 204.295 245.758 203.694 245.758 202.912C245.758 202.131 245.668 202.522 245.548 202.522C245.428 202.522 245.398 202.161 245.398 202.912Z" fill="#FFD037"/>
<path d="M244.349 203.844C245.008 204.205 245.608 204.416 245.638 204.325C245.668 204.235 245.188 203.874 244.528 203.484C243.869 203.093 244.139 203.393 244.079 203.484C244.019 203.574 243.689 203.484 244.349 203.844Z" fill="#FFD037"/>
<path d="M245.908 213.345C245.908 213.345 250.525 213.195 251.905 212.203C253.284 211.211 258.98 210.038 259.34 211.632C259.7 213.225 266.266 219.539 261.049 219.569C255.832 219.599 248.966 218.757 247.587 217.915C246.208 217.074 245.908 213.345 245.908 213.345Z" fill="#A8A8A8"/>
<path opacity="0.2" d="M261.168 219.028C255.981 219.058 249.086 218.216 247.706 217.374C246.657 216.743 246.237 214.428 246.087 213.346H245.938C245.938 213.346 246.237 217.074 247.616 217.916C248.996 218.758 255.891 219.629 261.078 219.569C262.577 219.569 263.087 219.028 263.057 218.216C262.847 218.727 262.277 219.028 261.168 219.028Z" fill="black"/>
</g>
<defs>
<linearGradient id="paint0_linear_516_2057" x1="110.397" y1="235.167" x2="110.397" y2="29.1641" gradientUnits="userSpaceOnUse">
<stop stop-color="#808080" stop-opacity="0.25"/>
<stop offset="0.54" stop-color="#808080" stop-opacity="0.12"/>
<stop offset="1" stop-color="#808080" stop-opacity="0.1"/>
</linearGradient>
<clipPath id="clip0_516_2057">
<rect width="308" height="240.194" fill="white"/>
</clipPath>
</defs>
</svg>
