<svg width="254" height="258" viewBox="0 0 254 258" fill="none" xmlns="http://www.w3.org/2000/svg">
<g clip-path="url(#clip0_590_1856)">
<path d="M110.042 253.817H104.039L101.229 231.002H110.042V253.817Z" fill="#FDE1CE"/>
<path d="M89.6051 253.69C89.4135 254.007 89.3496 255.021 89.3496 255.338C89.3496 256.479 90.2438 257.366 91.3934 257.366H109.851C110.617 257.366 111.256 256.732 111.256 255.972V255.211C111.256 255.211 112.15 252.93 110.298 250.078C110.298 250.078 107.935 252.296 104.486 248.811L103.464 246.973L95.9918 252.36L91.8404 252.867C90.8186 253.057 90.0522 252.93 89.6051 253.69Z" fill="#2F2E41"/>
<path d="M83.2824 253.817H77.3428L74.4688 231.002H83.2824V253.817Z" fill="#FDE1CE"/>
<path d="M62.8453 253.69C62.6537 254.007 62.5898 255.021 62.5898 255.338C62.5898 256.479 63.484 257.366 64.6336 257.366H83.0912C83.8576 257.366 84.4963 256.732 84.4963 255.972V255.211C84.4963 255.211 85.3904 252.93 83.5383 250.078C83.5383 250.078 81.1752 252.296 77.7264 248.811L76.7045 246.973L69.232 252.36L65.0807 252.867C64.1227 253.057 63.2924 252.93 62.8453 253.69Z" fill="#2F2E41"/>
<path d="M110.555 110.526L116.111 124.659L111.768 237.53H99.6334L88.6483 135.686L86.0297 237.847L74.2781 237.53L61.377 124.152L69.9352 113.949L110.555 110.526Z" fill="#4F4641"/>
<path d="M84.3043 30.4203L98.866 29.4062L103.401 36.631L116.94 40.4335L111.895 75.4166L117.26 127.638C117.26 127.638 97.8442 124.913 96.4391 130.363C95.034 135.813 61.0566 124.849 61.0566 124.849L72.6805 89.169L71.6586 61.2839L68.5291 45.0599L82.7715 38.5323L84.3043 30.4203Z" fill="#E6E6E6"/>
<path d="M77.727 40.75C77.727 40.75 66.1031 40.5599 64.5065 45.3764C62.9098 50.1929 57.7365 83.655 57.7365 83.655L53.7129 98.2946L71.5957 89.4855L67.7637 83.655L80.2817 59.8893L77.727 40.75Z" fill="#E6E6E6"/>
<path d="M84.8156 94.3026C86.7316 94.3026 88.5199 93.2252 89.2863 91.4507C89.8611 90.1199 89.7973 88.8524 89.3502 87.775C89.4779 87.7116 89.6057 87.6482 89.7334 87.5848C89.5418 87.5215 89.3502 87.3947 89.1586 87.3314C88.4561 85.9371 87.1148 84.9865 85.582 84.733C83.6021 82.6416 82.3887 79.8531 82.3887 76.8111C82.3887 70.4736 87.5619 65.2134 93.8848 65.0233C93.9486 65.0233 94.0125 65.0233 94.0125 65.0233C96.8865 64.9599 99.4412 66.5443 100.91 69.016C101.74 70.4102 103.337 71.4242 105.125 71.4242C106.467 71.4242 107.744 70.8538 108.638 69.9666C110.554 68.0019 112.981 66.5443 115.664 66.1007C117.452 65.7838 119.304 65.7204 121.22 65.7838C134.185 66.4176 145.362 77.8251 145.617 90.6902C145.937 105.013 134.313 116.737 119.943 116.737C112.47 116.737 105.7 113.569 101.038 108.499C98.9303 106.281 96.0563 105.013 92.9268 105.013H92.8629C87.8812 105.013 83.8576 101.02 83.8576 96.0771C83.8576 95.8236 83.8576 95.5067 83.9215 95.2532C83.9215 94.7462 84.3047 94.3026 84.8156 94.3026Z" fill="#81DC7F"/>
<path d="M252.787 189.745C252.149 188.667 249.402 189.808 248.955 188.858C248.444 187.907 250.999 186.449 252.468 183.154C252.723 182.583 254.384 178.781 253.171 177.64C250.871 175.422 240.269 184.548 236.565 181.569C235.735 180.936 235.16 179.605 232.733 177.513C231.775 176.69 231.136 176.309 230.562 176.436C229.731 176.626 229.667 177.703 228.837 179.858C227.56 183.027 226.73 182.837 226.027 185.372C225.452 187.273 225.58 188.351 224.941 188.541C223.983 188.858 223.153 186.83 221.939 187.02C220.726 187.21 219.96 189.555 219.768 191.266C219.321 194.561 220.534 196.716 221.237 198.934C221.939 201.406 222.387 205.145 220.726 210.468L204.057 256.986C207.761 247.416 218.363 221.242 222.834 211.546C224.111 208.757 225.58 205.905 228.454 204.765C231.264 203.687 235.16 204.321 240.078 203.18C240.653 203.054 242.249 202.61 242.441 201.723C242.632 200.962 241.674 200.519 241.802 199.821C241.994 198.871 243.846 198.871 246.145 197.73C247.742 196.97 248.764 196.019 249.594 195.195C249.786 194.815 253.618 191.139 252.787 189.745Z" fill="#F2F2F2"/>
<path d="M187.323 214.208C186.621 214.208 186.365 215.855 185.79 215.855C185.152 215.792 185.216 214.144 183.938 212.497C183.747 212.18 182.342 210.278 181.384 210.532C179.595 211.039 181.064 218.771 178.51 219.721C177.935 219.911 177.168 219.848 175.38 220.418C174.678 220.672 174.294 220.799 174.23 221.179C174.103 221.623 174.614 222.003 175.38 223.017C176.594 224.601 176.274 224.918 177.296 225.996C178.063 226.819 178.637 227.073 178.573 227.453C178.446 228.023 177.232 227.833 176.977 228.467C176.721 229.101 177.679 230.115 178.446 230.749C179.915 231.889 181.32 231.953 182.661 232.27C184.066 232.65 186.046 233.474 188.217 235.819L206.42 257.366C202.779 252.803 192.88 240.065 189.367 235.122C188.345 233.664 187.323 232.143 187.643 230.432C187.898 228.721 189.367 227.073 190.197 224.284C190.325 223.967 190.581 223.08 190.133 222.7C189.814 222.383 189.303 222.7 188.984 222.446C188.537 222.066 189.112 221.179 189.175 219.721C189.239 218.707 189.048 217.947 188.92 217.313C188.92 217.186 188.281 214.208 187.323 214.208Z" fill="#F2F2F2"/>
<path d="M201.375 217.376L200.928 213.637L201.119 213.384C202.013 212.053 202.461 210.785 202.461 209.581C202.461 209.391 202.461 209.201 202.461 209.011C202.397 208.25 202.397 207.236 202.908 206.096C203.163 205.462 203.993 204.004 205.207 204.194C205.526 204.258 205.782 204.384 205.973 204.574C205.973 204.511 206.037 204.511 206.037 204.448C206.42 203.877 206.74 203.624 206.995 203.37C207.187 203.18 207.442 202.99 207.825 202.547C207.953 202.356 208.081 202.166 208.209 202.039C208.528 201.596 208.911 201.089 209.678 201.089C210.444 201.152 210.827 201.786 211.146 202.166C211.594 202.927 211.849 203.434 211.977 203.814C212.041 203.941 212.105 204.068 212.105 204.131C212.36 204.511 214.404 204.131 215.106 204.004C216.831 203.751 218.3 203.497 218.938 204.574C219.385 205.335 219.066 206.349 217.916 207.68C217.597 208.06 217.214 208.377 216.895 208.631C217.15 208.821 217.405 209.011 217.533 209.391C217.789 210.278 216.958 211.229 215.17 212.116C214.723 212.37 214.148 212.623 213.318 212.75C212.935 212.813 212.552 212.813 212.296 212.813C212.296 213.003 212.232 213.194 212.168 213.384C211.849 213.954 211.21 214.208 210.188 214.144C209.103 214.081 208.209 213.891 207.442 213.701C206.74 213.574 206.165 213.384 205.718 213.447C204.888 213.51 204.185 214.208 203.419 215.095L201.375 217.376Z" fill="#F2F2F2"/>
<path d="M203.353 195.005L199.777 196.336L199.458 196.209C197.925 195.702 196.584 195.575 195.37 195.892C195.178 195.956 194.987 196.019 194.795 196.082C194.029 196.336 193.071 196.589 191.857 196.399C191.155 196.273 189.558 195.892 189.43 194.688C189.367 194.371 189.494 194.118 189.622 193.864C189.558 193.864 189.494 193.864 189.494 193.801C188.856 193.611 188.536 193.357 188.217 193.167C187.961 192.977 187.77 192.85 187.195 192.597C186.94 192.47 186.748 192.407 186.62 192.343C186.109 192.153 185.535 191.9 185.343 191.203C185.151 190.442 185.726 189.935 186.045 189.555C186.684 188.921 187.131 188.541 187.451 188.351C187.578 188.287 187.706 188.161 187.706 188.161C188.025 187.844 187.131 186.006 186.812 185.245C186.109 183.661 185.471 182.33 186.365 181.443C187.003 180.809 188.089 180.872 189.622 181.633C190.133 181.886 190.516 182.14 190.835 182.393C190.899 182.077 191.091 181.823 191.474 181.633C192.304 181.189 193.39 181.696 194.731 183.217C195.051 183.598 195.498 184.105 195.881 184.865C196.073 185.245 196.136 185.562 196.264 185.879C196.456 185.816 196.647 185.816 196.839 185.879C197.478 186.006 197.925 186.576 198.116 187.527C198.308 188.604 198.372 189.491 198.372 190.315C198.372 191.012 198.436 191.646 198.563 192.026C198.819 192.85 199.713 193.294 200.735 193.801L203.353 195.005Z" fill="#F2F2F2"/>
<path d="M201.375 183.914L200.928 180.175L201.119 179.922C202.013 178.591 202.461 177.323 202.461 176.119C202.461 175.929 202.461 175.739 202.461 175.549C202.397 174.788 202.397 173.774 202.908 172.634C203.163 172 203.993 170.542 205.207 170.732C205.526 170.796 205.782 170.922 205.973 171.113C205.973 171.049 206.037 171.049 206.037 170.986C206.42 170.415 206.74 170.162 206.995 169.908C207.187 169.718 207.442 169.528 207.825 169.085C207.953 168.894 208.081 168.704 208.209 168.578C208.528 168.134 208.911 167.627 209.678 167.627C210.444 167.69 210.827 168.324 211.146 168.704C211.594 169.465 211.849 169.972 211.977 170.352C212.041 170.479 212.105 170.606 212.105 170.669C212.36 171.049 214.404 170.669 215.106 170.542C216.831 170.289 218.3 170.035 218.938 171.113C219.385 171.873 219.066 172.887 217.916 174.218C217.597 174.598 217.214 174.915 216.895 175.169C217.15 175.359 217.405 175.549 217.533 175.929C217.789 176.816 216.958 177.767 215.17 178.654C214.723 178.908 214.148 179.161 213.318 179.288C212.935 179.351 212.552 179.351 212.296 179.351C212.296 179.541 212.232 179.732 212.168 179.922C211.849 180.492 211.21 180.746 210.188 180.682C209.103 180.619 208.209 180.429 207.442 180.239C206.74 180.112 206.165 179.922 205.718 179.985C204.888 180.048 204.185 180.746 203.419 181.633L201.375 183.914Z" fill="#F2F2F2"/>
<path d="M205.206 256.859L204.44 256.352L203.546 256.479C203.546 256.415 203.482 256.225 203.418 255.908C203.035 254.197 201.757 249.127 200.672 241.078C199.905 235.438 199.522 229.671 199.458 223.904C199.394 218.137 199.65 213.764 199.841 210.215C200.033 207.553 200.225 205.018 200.416 202.546C200.927 195.955 201.438 189.745 201.055 182.837C200.991 181.316 200.799 178.084 198.947 174.725C197.862 172.76 196.329 170.986 194.477 169.528L195.626 168.07C197.67 169.718 199.33 171.619 200.544 173.837C202.652 177.64 202.843 181.126 202.907 182.773C203.29 189.808 202.779 196.082 202.268 202.673C202.077 205.145 201.885 207.616 201.694 210.278C201.502 213.764 201.183 218.137 201.31 223.84C201.374 229.544 201.821 235.248 202.524 240.825C203.546 248.747 204.823 253.817 205.206 255.465C205.398 256.352 205.462 256.479 205.206 256.859Z" fill="#F2F2F2"/>
<path d="M191.027 172.444C190.963 172.444 190.899 172.444 190.771 172.444C189.175 172.38 187.706 171.43 186.364 169.655C185.726 168.831 185.406 167.881 184.768 165.979C184.64 165.662 184.193 164.205 183.937 162.113C183.746 160.783 183.746 160.212 184.065 159.705C184.384 159.135 184.832 158.755 185.406 158.501C185.406 158.311 185.406 158.121 185.47 157.931C185.79 157.17 186.62 157.234 187.067 157.297C187.322 157.297 187.578 157.36 187.897 157.36C188.408 157.36 188.664 157.17 189.047 156.98C189.43 156.79 189.877 156.536 190.643 156.346C192.049 156.029 193.198 156.473 193.581 156.6C195.625 157.297 196.583 158.818 197.733 160.656C197.988 161.036 198.755 162.367 199.266 164.141C199.649 165.472 199.585 166.043 199.457 166.486C199.202 167.374 198.691 167.881 197.286 169.021C195.817 170.225 195.114 170.796 194.475 171.113C193.134 171.937 192.176 172.444 191.027 172.444Z" fill="#F2F2F2"/>
<path d="M127.544 86.7602L41.0674 70.5361L40.748 76.7469L126.522 97.0903L127.544 86.7602Z" fill="#81DC7F"/>
<path d="M42.1516 71.5507L41.1297 70.5367C41.1297 70.5367 36.5951 68.4454 36.5951 68.1285C36.5951 67.9384 29.9529 65.6569 24.9713 64.0091C22.1611 63.0585 19.2232 64.8964 18.84 67.8116L18.2013 72.3746C17.8181 75.0998 19.9258 77.5714 22.6721 77.6348L34.8707 78.1418L40.7465 76.7475L42.1516 71.5507Z" fill="#81DC7F"/>
<path d="M127.416 88.6617L127.607 87.7745L41.0672 71.3604L40.9395 72.4377L127.416 88.6617Z" fill="#4F4641"/>
<path d="M127.16 90.2459L127.416 89.3587L41.0033 73.0713L40.9395 74.1487L127.16 90.2459Z" fill="#4F4641"/>
<path d="M126.968 92.2105L127.032 90.6895L40.875 74.2754L40.9389 75.226L126.968 92.2105Z" fill="#4F4641"/>
<path d="M126.777 94.4921L126.713 93.0979L40.7475 75.543L40.6836 75.8598L126.777 94.4921Z" fill="#4F4641"/>
<path d="M126.776 95.8863L126.712 94.8723L40.8744 76.1133L40.8105 76.4302L126.776 95.8863Z" fill="#4F4641"/>
<path d="M77.0886 38.5324L81.3677 36.1875L83.2199 74.0224L82.5812 78.6488C82.5812 78.6488 71.7238 48.9259 77.0886 38.5324Z" fill="#4F4641"/>
<path d="M91.7779 26.8075C97.7391 26.8075 102.572 22.0123 102.572 16.0971C102.572 10.1819 97.7391 5.38672 91.7779 5.38672C85.8168 5.38672 80.9844 10.1819 80.9844 16.0971C80.9844 22.0123 85.8168 26.8075 91.7779 26.8075Z" fill="#FDE1CE"/>
<path d="M82.5796 22.4984L85.1343 24.5264L82.1964 13.4991C82.1964 13.4991 90.3714 13.309 91.074 8.87275C91.074 8.87275 97.5245 8.68262 99.249 8.68262C100.973 8.68262 101.74 20.0901 101.74 20.0901C101.74 20.0901 105.125 10.774 101.676 5.95749C98.2271 1.14099 99.4406 4.05624 98.738 2.34511C98.0355 0.633986 90.9462 -0.950391 86.4116 0.824111C81.8771 2.59861 81.7493 5.00687 80.3443 5.07024C78.9392 5.13362 74.0853 11.9781 78.6198 17.4918C83.1544 23.0054 82.5796 22.4984 82.5796 22.4984Z" fill="#4F4641"/>
<path d="M115.471 92.591C116.749 91.577 117.707 90.3729 118.218 89.1687L130.991 80.2962L126.584 74.4023L114.13 84.0354C112.853 84.2889 111.448 84.9226 110.17 85.9366C107.232 88.2181 106.083 91.577 107.552 93.4782C109.021 95.3795 112.533 94.8725 115.471 92.591Z" fill="#FDE1CE"/>
<path d="M66.5488 79.0925C65.5908 80.4234 65.016 81.8176 64.8883 83.1485L55.0527 95.1264L60.9285 99.626L70.2531 86.951C71.4027 86.3806 72.6162 85.3666 73.5742 84.0358C75.7457 80.9938 75.9373 77.4447 74.0213 76.1139C72.0414 74.7196 68.7203 76.0505 66.5488 79.0925Z" fill="#FDE1CE"/>
<path d="M111.384 42.6511C111.384 42.6511 114.513 37.4543 117.643 40.5597C120.133 43.0313 133.673 58.6216 139.23 65.0225C140.763 66.797 141.593 69.0151 141.593 71.36C141.593 74.9724 139.613 78.2679 136.356 79.979L118.984 89.105L114.13 81.8803L129.075 71.1699L106.146 58.7484L111.384 42.6511Z" fill="#E6E6E6"/>
<path d="M56.5217 90.2465L53.7754 98.2952L61.7588 102.415L67.8262 98.2952L71.6582 89.486L60.3537 86.2539" fill="#E6E6E6"/>
<path d="M185.662 13.4355L159.413 20.5336L163.245 37.4547C162.031 36.6308 160.498 36.1238 158.902 36.1238C154.623 36.1238 151.174 39.5461 151.174 43.7922C151.174 48.0383 154.623 51.4606 158.902 51.4606C163.181 51.4606 166.694 48.0383 166.694 43.7922C166.694 42.3346 166.247 40.9403 165.544 39.7362L162.542 26.3641L185.151 19.3294L187.195 29.2793C185.981 28.4554 184.449 27.9484 182.852 27.9484C178.573 27.9484 175.124 31.3707 175.124 35.6168C175.124 39.863 178.573 43.2852 182.852 43.2852C187.131 43.2852 190.58 39.863 190.58 35.6168C190.58 34.0958 190.133 32.7649 189.43 31.5608L185.662 13.4355Z" fill="#81DC7F"/>
<path d="M211.4 29.2158C207.185 29.2158 203.736 32.6381 203.736 36.8208C203.736 38.025 203.992 39.1023 204.503 40.1163L208.91 58.0515L211.4 57.4811L208.015 43.6653C209.037 44.1723 210.187 44.4892 211.4 44.4892C215.616 44.4892 219.064 41.067 219.064 36.8842C219.064 32.7015 215.616 29.2158 211.4 29.2158Z" fill="#81DC7F"/>
<path d="M242.632 68.7624L238.289 51.5244L235.671 52.1582L239.055 65.6571C238.034 65.2134 236.82 64.8966 235.607 64.8966C231.136 64.8966 227.432 68.3822 227.432 72.7551C227.432 77.128 231.072 80.6136 235.607 80.6136C240.141 80.6136 243.782 77.128 243.782 72.7551C243.782 71.2341 243.335 69.9032 242.632 68.7624Z" fill="#81DC7F"/>
<path d="M254 257.493C254 257.81 253.745 258 253.489 258H0V256.923H253.489C253.745 256.923 254 257.176 254 257.493Z" fill="#E6E6E6"/>
</g>
<defs>
<clipPath id="clip0_590_1856">
<rect width="254" height="258" fill="white"/>
</clipPath>
</defs>
</svg>
