<svg width="167" height="134" viewBox="0 0 167 134" fill="none" xmlns="http://www.w3.org/2000/svg">
<path fill-rule="evenodd" clip-rule="evenodd" d="M91.4232 1.80824C86.2371 -0.437555 80.3529 -0.437554 75.1668 1.80824L9.72704 30.1462C3.90699 32.6665 0.139893 38.4029 0.139893 44.7452V121.674C0.139893 127.95 5.22757 133.038 11.5035 133.038H155.086C161.362 133.038 166.45 127.95 166.45 121.674V44.7452C166.45 38.4029 162.683 32.6665 156.863 30.1462L91.4232 1.80824ZM76.973 5.97939C81.0067 4.23267 85.5833 4.23267 89.6169 5.97939L155.057 34.3173C159.214 36.1175 161.905 40.215 161.905 44.7452V88.0376H4.68535V44.7452C4.68535 40.215 7.37613 36.1175 11.5333 34.3173L76.973 5.97939ZM4.68535 90.7649V121.674C4.68535 125.44 7.73795 128.492 11.5035 128.492H155.086C158.852 128.492 161.905 125.44 161.905 121.674V90.7649H4.68535Z" fill="white"/>
<path d="M49.5289 110.015V110.999H36.857V110.015H42.5914V108.39H38.4664V103.796H47.9508V104.78H39.6695V107.39H48.0445V108.39H43.7789V110.015H49.5289ZM38.3883 114.515C38.3805 112.929 40.1851 112.022 43.1851 112.015C46.1617 112.022 47.9508 112.929 47.9664 114.515C47.9508 116.116 46.1617 117.015 43.1851 117.03C40.1851 117.015 38.3805 116.116 38.3883 114.515ZM39.6383 114.515C39.6226 115.491 40.9586 116.054 43.1851 116.046C45.3883 116.054 46.7242 115.491 46.732 114.515C46.7242 113.554 45.3883 112.983 43.1851 112.983C40.9586 112.983 39.6226 113.554 39.6383 114.515ZM55.5758 106.874C55.568 109.39 57.1851 111.921 59.2008 112.843L58.4664 113.843C56.8883 113.03 55.5836 111.374 54.9664 109.397C54.3492 111.476 53.0445 113.257 51.4664 114.093L50.6695 113.108C52.7086 112.108 54.318 109.436 54.3258 106.874V104.343H55.5758V106.874ZM57.6851 108.89V107.89H60.982V103.14H62.2008V117.061H60.982V108.89H57.6851ZM76.3883 103.14V117.03H75.2164V109.749H73.1695V116.311H72.0445V103.452H73.1695V108.733H75.2164V103.14H76.3883ZM65.0289 113.593V104.843H70.232V105.858H66.2476V112.546C68.1617 112.538 69.482 112.468 71.0289 112.155L71.1383 113.186C69.4664 113.53 68.0523 113.585 65.9195 113.593H65.0289ZM91.0601 114.28V115.311H78.3414V114.28H84.0601V111.655H79.9351V107.374H88.2476V105.186H79.9039V104.171H89.4508V108.374H81.1539V110.64H89.7789V111.655H85.2633V114.28H91.0601ZM100.373 115.921C98.3336 115.921 96.7867 114.663 96.7008 112.921H98.0601C98.1617 113.929 99.1461 114.679 100.373 114.686C101.841 114.679 102.904 113.608 102.904 112.186C102.904 110.718 101.802 109.632 100.279 109.624C99.3258 109.608 98.5836 109.905 98.1695 110.64H96.8101L97.607 104.452H103.732V105.702H98.7789L98.357 109.015H98.4664C98.9742 108.624 99.732 108.358 100.529 108.358C102.685 108.358 104.271 109.952 104.279 112.155C104.271 114.343 102.63 115.921 100.373 115.921ZM109.935 115.921C107.427 115.921 105.974 113.811 105.982 110.108C105.974 106.436 107.443 104.296 109.935 104.296C112.42 104.296 113.888 106.436 113.888 110.108C113.888 113.811 112.443 115.921 109.935 115.921ZM107.341 110.108C107.349 113.038 108.295 114.671 109.935 114.671C111.568 114.671 112.521 113.038 112.513 110.108C112.521 107.179 111.56 105.522 109.935 105.515C108.31 105.522 107.349 107.179 107.341 110.108ZM126.732 103.14V110.249H125.513V103.14H126.732ZM115.498 109.515C118.982 108.741 121.013 107.077 121.232 104.843H116.201V103.827H122.576C122.568 107.374 120.06 109.585 115.951 110.546L115.498 109.515ZM117.701 111.89V110.905H126.732V114.265H118.951V115.921H127.232V116.905H117.732V113.327H125.513V111.89H117.701Z" fill="white"/>
<path d="M41.8366 47.5557V49.3135H35.6491V50.4561C38.4616 50.6407 40.0788 51.5723 40.0964 53.128C40.0788 54.8946 38.031 55.8614 34.5241 55.8526C30.9997 55.8614 28.9167 54.8946 28.9167 53.128C28.9167 51.5723 30.5691 50.6319 33.4167 50.4561V49.3135H27.2468V47.5557H41.8366ZM27.862 45.3409C31.2107 45.1211 32.8366 44.1543 33.197 43.0557H28.653V41.2803H33.4167V39.9092H35.6316V41.2803H40.4304V43.0557H35.8425C36.1941 44.1543 37.8288 45.1211 41.1863 45.3409L40.5183 47.0459C37.5652 46.835 35.5261 45.9825 34.5241 44.6905C33.5134 45.9825 31.4743 46.835 28.5476 47.0459L27.862 45.3409ZM31.2019 53.128C31.1931 53.8663 32.2829 54.2002 34.5241 54.2002C36.7126 54.2002 37.8376 53.8663 37.8464 53.128C37.8376 52.4073 36.7126 52.0733 34.5241 52.0733C32.2829 52.0733 31.1931 52.4073 31.2019 53.128ZM56.2859 39.8741V52.0557H54.0534V49.0323H51.8913V47.2569H54.0534V45.6573H51.8913V43.8467H54.0534V39.8741H56.2859ZM42.8386 43.3194V41.544H46.2839V39.8389H48.5163V41.544H51.7331V43.3194H42.8386ZM43.6296 47.0284C43.612 45.1827 45.2029 43.8819 47.3738 43.8819C49.571 43.8819 51.153 45.1827 51.1706 47.0284C51.153 48.8741 49.571 50.1573 47.3738 50.1573C45.2029 50.1573 43.612 48.8741 43.6296 47.0284ZM45.6335 55.5713V51.0186H47.9011V53.7784H56.6198V55.5713H45.6335ZM45.7214 47.0284C45.7126 47.9512 46.3982 48.4522 47.3738 48.4522C48.3405 48.4522 49.0525 47.9512 49.0613 47.0284C49.0525 46.1319 48.3405 45.6309 47.3738 45.6221C46.3982 45.6309 45.7126 46.1319 45.7214 47.0284ZM72.9851 47.4151V49.1729H58.3601V47.4151H64.5827V46.044H60.1355V40.5596H71.2273V42.2999H62.3679V44.2862H71.3152V46.044H66.78V47.4151H72.9851ZM60.03 52.9346C60.03 51.0362 62.1394 49.9815 65.6374 49.9815C69.1091 49.9815 71.1921 51.0362 71.2097 52.9346C71.1921 54.8067 69.1091 55.8702 65.6374 55.8702C62.1394 55.8702 60.03 54.8067 60.03 52.9346ZM62.3152 52.9346C62.3064 53.7696 63.4226 54.1651 65.6374 54.1651C67.8083 54.1651 68.9509 53.7696 68.9597 52.9346C68.9509 52.1084 67.8083 51.6866 65.6374 51.6866C63.4226 51.6866 62.3064 52.1084 62.3152 52.9346ZM92.655 48.6807V50.4737H86.4323V55.8526H84.2175V50.4737H78.0652V48.6807H92.655ZM78.7859 45.9913C82.0202 45.5957 83.8132 44.0313 84.0505 42.4581H79.3835V40.7002H91.3542V42.4581H86.6872C86.9157 44.0313 88.6823 45.5957 91.9695 45.9913L91.1609 47.7491C88.3484 47.3711 86.3357 46.1758 85.3689 44.5323C84.3933 46.1758 82.3982 47.3711 79.612 47.7491L78.7859 45.9913ZM102.253 41.1397V48.8565H94.4304V41.1397H102.253ZM96.2937 55.501V50.1924H98.5612V53.6905H107.438V55.501H96.2937ZM96.6452 47.0811H100.02V42.9151H96.6452V47.0811ZM104.766 51.2471V39.8741H107.016V51.2471H104.766ZM122.925 39.8565V51.8272H120.798V39.8565H122.925ZM108.985 48.0479C111.165 47.002 112.044 44.9102 112.044 43.0206V40.9288H114.223V43.0206C114.215 44.8663 115.014 46.7032 117.071 47.6436L115.823 49.3663C114.54 48.7686 113.678 47.7579 113.151 46.5362C112.589 47.9336 111.631 49.0938 110.216 49.753L108.985 48.0479ZM112.079 55.5713V50.4209H114.329V53.7784H123.329V55.5713H112.079ZM115.612 45.3409V43.5127H117.563V40.1026H119.69V51.3526H117.563V45.3409H115.612ZM138.235 39.8565V55.8877H136.02V47.3096H133.208V45.4991H136.02V39.8565H138.235ZM125.473 52.2666V41.1924H132.944V43.003H127.706V45.6573H132.364V47.4151H127.706V50.4385C129.929 50.4209 131.705 50.3418 133.682 50.0342L133.911 51.8272C131.573 52.1788 129.481 52.2579 126.739 52.2666H125.473ZM57.9206 68.0108V69.7862H53.28V73.1963H59.5202V75.0245H44.8777V73.1963H51.0476V69.7862H46.6003V61.9815H57.7976V63.7745H48.8503V68.0108H57.9206ZM75.0769 73.2315V75.0772H60.4343V73.2315H66.6042V70.8233H62.1218V65.4444H71.1745V63.6866H62.1042V61.8936H73.3894V67.2022H64.3718V68.9952H73.7585V70.8233H68.8366V73.2315H75.0769ZM89.4734 60.8565V70.2256H87.2409V68.1866H84.2527V69.3467H76.6589V62.0342H84.2527V63.1944H87.2409V60.8565H89.4734ZM78.5046 73.7588C78.5046 71.7901 80.5964 70.6387 84.0066 70.6475C87.4255 70.6387 89.5173 71.7901 89.5261 73.7588C89.5173 75.7364 87.4255 76.8614 84.0066 76.8526C80.5964 76.8614 78.5046 75.7364 78.5046 73.7588ZM78.8913 67.5713H82.0554V63.8096H78.8913V67.5713ZM80.737 73.7588C80.737 74.6729 81.8884 75.1475 84.0066 75.1475C86.1335 75.1475 87.2849 74.6729 87.2937 73.7588C87.2849 72.8096 86.1335 72.3526 84.0066 72.3526C81.8884 72.3526 80.737 72.8096 80.737 73.7588ZM84.2527 66.376H87.2409V64.9698H84.2527V66.376ZM106.137 69.6807V71.4737H99.9148V76.8526H97.6999V71.4737H91.5476V69.6807H106.137ZM92.2683 66.9913C95.5027 66.5957 97.2956 65.0313 97.5329 63.4581H92.8659V61.7002H104.837V63.4581H100.17C100.398 65.0313 102.165 66.5957 105.452 66.9913L104.643 68.7491C101.831 68.3711 99.8181 67.1758 98.8513 65.5323C97.8757 67.1758 95.8806 68.3711 93.0945 68.7491L92.2683 66.9913ZM121.747 73.1436V74.9366H107.104V73.1436H113.221V69.5225H115.454V73.1436H121.747ZM107.456 68.169C111.077 67.6065 113.116 65.1719 113.134 62.9131V61.7706H115.524V62.9131C115.515 65.1983 117.581 67.6065 121.237 68.169L120.288 70.0323C117.475 69.5225 115.384 68.0196 114.329 66.0245C113.283 68.0108 111.2 69.5313 108.405 70.0323L107.456 68.169Z" fill="white"/>
</svg>
