<svg width="70" height="70" viewBox="0 0 70 70" fill="none" xmlns="http://www.w3.org/2000/svg">
<path d="M35.0001 5.83334C44.6542 5.83334 52.5001 13.5917 52.5001 23.1875C52.5001 36.1958 35.0001 55.4167 35.0001 55.4167C35.0001 55.4167 17.5001 36.1958 17.5001 23.1875C17.5001 13.5917 25.3459 5.83334 35.0001 5.83334ZM35.0001 17.5C33.453 17.5 31.9693 18.1146 30.8753 19.2085C29.7813 20.3025 29.1667 21.7862 29.1667 23.3333C29.1667 24.8804 29.7813 26.3642 30.8753 27.4581C31.9693 28.5521 33.453 29.1667 35.0001 29.1667C36.5472 29.1667 38.0309 28.5521 39.1249 27.4581C40.2188 26.3642 40.8334 24.8804 40.8334 23.3333C40.8334 21.7862 40.2188 20.3025 39.1249 19.2085C38.0309 18.1146 36.5472 17.5 35.0001 17.5ZM58.3334 55.4167C58.3334 61.8625 47.8917 67.0833 35.0001 67.0833C22.1084 67.0833 11.6667 61.8625 11.6667 55.4167C11.6667 51.6542 15.2251 48.3 20.7376 46.1708L22.6042 48.825C19.4542 50.1375 17.5001 51.9458 17.5001 53.9583C17.5001 57.9833 25.3459 61.25 35.0001 61.25C44.6542 61.25 52.5001 57.9833 52.5001 53.9583C52.5001 51.9458 50.5459 50.1375 47.3959 48.825L49.2626 46.1708C54.7751 48.3 58.3334 51.6542 58.3334 55.4167Z" fill="white"/>
</svg>
