<svg width="16" height="15" viewBox="0 0 16 15" fill="none" xmlns="http://www.w3.org/2000/svg">
<path d="M8 1.90039C5.25 1.90039 3 4.15039 3 6.90039C3 10.2754 7.375 14.0879 7.5625 14.2754C7.6875 14.3379 7.875 14.4004 8 14.4004C8.125 14.4004 8.3125 14.3379 8.4375 14.2754C8.625 14.0879 13 10.2754 13 6.90039C13 4.15039 10.75 1.90039 8 1.90039ZM8 12.9629C6.6875 11.7129 4.25 9.02539 4.25 6.90039C4.25 4.83789 5.9375 3.15039 8 3.15039C10.0625 3.15039 11.75 4.83789 11.75 6.90039C11.75 8.96289 9.3125 11.7129 8 12.9629ZM8 4.40039C6.625 4.40039 5.5 5.52539 5.5 6.90039C5.5 8.27539 6.625 9.40039 8 9.40039C9.375 9.40039 10.5 8.27539 10.5 6.90039C10.5 5.52539 9.375 4.40039 8 4.40039ZM8 8.15039C7.3125 8.15039 6.75 7.58789 6.75 6.90039C6.75 6.21289 7.3125 5.65039 8 5.65039C8.6875 5.65039 9.25 6.21289 9.25 6.90039C9.25 7.58789 8.6875 8.15039 8 8.15039Z" fill="white"/>
</svg>
