<svg width="16" height="16" viewBox="0 0 16 16" fill="none" xmlns="http://www.w3.org/2000/svg">
<path d="M7.52966 7.04512C8.92283 7.04512 10.0522 5.91573 10.0522 4.52256C10.0522 3.12939 8.92283 2 7.52966 2C6.13649 2 5.0071 3.12939 5.0071 4.52256C5.0071 5.91573 6.13649 7.04512 7.52966 7.04512Z" fill="white"/>
<path d="M9.14613 11.6569H11.8796V12.2036H9.14613V11.6569Z" fill="white"/>
<path fill-rule="evenodd" clip-rule="evenodd" d="M6.80326 13.6095V12.438H2.50007V9.85691C2.49755 9.61188 2.56538 9.37127 2.6955 9.16362C2.82562 8.95598 3.01258 8.79003 3.23419 8.68545C4.58065 8.06442 6.0468 7.74587 7.52957 7.75218C8.20192 7.75296 8.87312 7.80781 9.53668 7.91618V9.31413H10.3177V8.74011C10.3177 8.63655 10.3588 8.53723 10.432 8.464C10.5053 8.39077 10.6046 8.34963 10.7081 8.34963C10.8117 8.34963 10.911 8.39077 10.9843 8.464C11.0575 8.53723 11.0986 8.63655 11.0986 8.74011V9.31413H13.8321C13.9356 9.31413 14.0349 9.35527 14.1082 9.4285C14.1814 9.50174 14.2225 9.60106 14.2225 9.70462V13.6095C14.2225 13.7131 14.1814 13.8124 14.1082 13.8856C14.0349 13.9589 13.9356 14 13.8321 14H7.19374C7.09018 14 6.99086 13.9589 6.91763 13.8856C6.8444 13.8124 6.80326 13.7131 6.80326 13.6095ZM7.58423 13.219H13.4416V10.0951H11.0986V10.2591C11.0986 10.3627 11.0575 10.462 10.9843 10.5352C10.911 10.6085 10.8117 10.6496 10.7081 10.6496C10.6046 10.6496 10.5053 10.6085 10.432 10.5352C10.3588 10.462 10.3177 10.3627 10.3177 10.2591V10.0951H7.58423V13.219Z" fill="white"/>
</svg>
