<svg width="16" height="16" viewBox="0 0 16 16" fill="none" xmlns="http://www.w3.org/2000/svg">
<path d="M10.1458 2.5C9.28669 2.5 8.50804 2.661 7.8995 2.96431C7.29144 3.26762 6.79167 3.76165 6.79167 4.41667V6.33333C6.79167 6.39515 6.81227 6.45504 6.82185 6.51302C6.34222 6.39114 5.84904 6.33076 5.35417 6.33333C4.49502 6.33333 3.71637 6.49433 3.10783 6.79765C2.49977 7.10096 2 7.59498 2 8.25V12.0833C2 12.7384 2.49977 13.2324 3.10831 13.5357C3.71638 13.839 4.49502 14 5.35417 14C6.21331 14 6.99196 13.839 7.6005 13.5357C8.20808 13.2324 8.70833 12.7384 8.70833 12.0833V11.8888C9.17707 12.0155 9.66027 12.0809 10.1458 12.0833C11.005 12.0833 11.7836 11.9223 12.3922 11.619C12.9997 11.3157 13.5 10.8217 13.5 10.1667V4.41667C13.5 3.76165 13.0002 3.26762 12.3917 2.96431C11.7841 2.661 11.0055 2.5 10.1458 2.5ZM10.1458 3.45833C10.8756 3.45833 11.5254 3.6155 11.9576 3.83256C12.3902 4.04963 12.5417 4.27819 12.5417 4.41667C12.5417 4.55562 12.3902 4.78371 11.9576 5.00077C11.5258 5.21783 10.8756 5.375 10.1458 5.375C9.41606 5.375 8.76631 5.21783 8.3341 5.00077C7.90142 4.78371 7.75 4.55515 7.75 4.41667C7.75 4.27771 7.90142 4.04963 8.3341 3.83256C8.76583 3.6155 9.41606 3.45833 10.1458 3.45833ZM7.75 5.77942C7.80031 5.80721 7.84727 5.84315 7.89998 5.86902C8.50804 6.17233 9.28669 6.33333 10.1458 6.33333C11.005 6.33333 11.7836 6.17233 12.3922 5.86902C12.4444 5.84315 12.4914 5.80721 12.5417 5.77942V6.33333C12.5417 6.47229 12.3902 6.70037 11.9576 6.91744C11.5254 7.1345 10.8756 7.29167 10.1458 7.29167C9.41606 7.29167 8.76631 7.1345 8.3341 6.91744C7.90142 6.70037 7.75 6.47181 7.75 6.33333V5.77942ZM5.35417 7.29167C6.08394 7.29167 6.73369 7.44883 7.1659 7.6659C7.59858 7.88296 7.75 8.11152 7.75 8.25C7.75 8.38896 7.59858 8.61704 7.1659 8.8341C6.73369 9.05117 6.08394 9.20833 5.35417 9.20833C4.6244 9.20833 3.97465 9.05117 3.54244 8.8341C3.10975 8.61704 2.95833 8.38848 2.95833 8.25C2.95833 8.11104 3.10975 7.88296 3.54244 7.6659C3.97417 7.44883 4.6244 7.29167 5.35417 7.29167ZM12.5417 7.69608V8.25C12.5417 8.38896 12.3902 8.61704 11.9576 8.8341C11.5254 9.05117 10.8756 9.20833 10.1458 9.20833C9.65772 9.21098 9.17235 9.1351 8.70833 8.9836V8.25C8.70833 8.18819 8.68773 8.12829 8.67815 8.07031C9.12377 8.18627 9.61779 8.25 10.1458 8.25C11.005 8.25 11.7836 8.089 12.3922 7.78569C12.4444 7.75981 12.4914 7.72387 12.5417 7.69608ZM2.95833 9.61275C3.00865 9.64054 3.0556 9.67648 3.10831 9.70235C3.71638 10.0057 4.49502 10.1667 5.35417 10.1667C6.21331 10.1667 6.99196 10.0057 7.6005 9.70235C7.65273 9.67648 7.69969 9.64054 7.75 9.61275V10.1667C7.75 10.3056 7.59858 10.5337 7.1659 10.7508C6.73369 10.9678 6.08394 11.125 5.35417 11.125C4.6244 11.125 3.97465 10.9678 3.54244 10.7508C3.10975 10.5337 2.95833 10.3051 2.95833 10.1667V9.61275ZM12.5417 9.61275V10.1667C12.5417 10.3056 12.3902 10.5337 11.9576 10.7508C11.5254 10.9678 10.8756 11.125 10.1458 11.125C9.60102 11.125 9.10892 11.0483 8.70833 10.9151V9.98698C9.14821 10.1029 9.62737 10.1667 10.1458 10.1667C11.005 10.1667 11.7836 10.0057 12.3922 9.70235C12.4444 9.67648 12.4914 9.64054 12.5417 9.61275ZM2.95833 11.5294C3.00865 11.5572 3.0556 11.5931 3.10831 11.619C3.71638 11.9223 4.49502 12.0833 5.35417 12.0833C6.21331 12.0833 6.99196 11.9223 7.6005 11.619C7.65273 11.5931 7.69969 11.5572 7.75 11.5294V12.0833C7.75 12.2223 7.59858 12.4504 7.1659 12.6674C6.73369 12.8845 6.08394 13.0417 5.35417 13.0417C4.6244 13.0417 3.97465 12.8845 3.54244 12.6674C3.10975 12.4504 2.95833 12.2218 2.95833 12.0833V11.5294Z" fill="white"/>
</svg>
