<svg width="16" height="15" viewBox="0 0 16 15" fill="none" xmlns="http://www.w3.org/2000/svg">
<path d="M12.0254 5.25C12.0254 6.49313 11.0185 7.5 9.77539 7.5C9.51102 7.5 9.26352 7.44375 9.02727 7.365C9.51131 6.76638 9.77537 6.01984 9.77537 5.25C9.77537 4.48016 9.51131 3.73362 9.02727 3.135C9.26352 3.05625 9.51102 3 9.77539 3C11.0185 3 12.0254 4.00688 12.0254 5.25Z" fill="white"/>
<path d="M1.90039 10.3125C1.90039 8.81625 4.89852 8.0625 6.40039 8.0625C7.90227 8.0625 10.9004 8.81625 10.9004 10.3125V12H1.90039V10.3125Z" fill="white"/>
<path d="M6.40149 7.5C7.64413 7.5 8.65149 6.49264 8.65149 5.25C8.65149 4.00736 7.64413 3 6.40149 3C5.15885 3 4.15149 4.00736 4.15149 5.25C4.15149 6.49264 5.15885 7.5 6.40149 7.5Z" fill="white"/>
<path d="M10.7153 8.13501C11.4859 8.65813 12.0259 9.36688 12.0259 10.3119V11.9994H14.2759V10.3119C14.2759 9.08563 12.2678 8.36001 10.7153 8.13501Z" fill="white"/>
</svg>
