<svg width="292" height="72" viewBox="0 0 292 72" fill="none" xmlns="http://www.w3.org/2000/svg">
<path d="M102.806 29.656C102.806 30.0187 102.614 30.264 102.23 30.392C101.846 30.52 101.292 30.584 100.566 30.584C99.8838 30.584 99.3504 30.52 98.9664 30.392C98.5824 30.2853 98.3904 30.0507 98.3904 29.688V14.264H93.0784V10.584H98.3904V3.224H102.806V29.656ZM92.9824 23.928C92.4704 23.4587 91.9371 22.9467 91.3824 22.392C90.8491 21.8373 90.3264 21.2613 89.8144 20.664C89.3238 20.0453 88.8544 19.4053 88.4064 18.744C87.9798 18.0827 87.6171 17.4213 87.3184 16.76C86.9984 17.464 86.5824 18.1787 86.0704 18.904C85.5798 19.6293 85.0464 20.3227 84.4704 20.984C83.9158 21.6453 83.3398 22.264 82.7424 22.84C82.1451 23.416 81.5798 23.9173 81.0464 24.344C80.7264 24.5787 80.3958 24.6213 80.0544 24.472C79.7131 24.3227 79.3078 24.0027 78.8384 23.512C78.4331 23.0853 78.1451 22.712 77.9744 22.392C77.8038 22.0507 77.8678 21.7307 78.1664 21.432C78.9984 20.6853 79.8091 19.8747 80.5984 19C81.3878 18.104 82.0918 17.176 82.7104 16.216C83.3504 15.2347 83.8518 14.232 84.2144 13.208C84.5984 12.1627 84.7904 11.1067 84.7904 10.04V5.112H89.3344V9.976C89.3344 11.0213 89.5264 12.0667 89.9104 13.112C90.3158 14.136 90.8171 15.128 91.4144 16.088C92.0331 17.048 92.7158 17.9547 93.4624 18.808C94.2091 19.64 94.9344 20.3867 95.6384 21.048C95.9584 21.3467 96.0438 21.6453 95.8944 21.944C95.7664 22.2213 95.4678 22.6053 94.9984 23.096C94.5718 23.5227 94.2091 23.8427 93.9104 24.056C93.6118 24.248 93.3024 24.2053 92.9824 23.928ZM133.027 29.624C133.027 29.9867 132.835 30.2213 132.451 30.328C132.088 30.4347 131.566 30.488 130.883 30.488C130.222 30.488 129.699 30.4347 129.315 30.328C128.952 30.2213 128.771 29.9867 128.771 29.624V15.992H126.307V29.336C126.307 29.6773 126.126 29.9013 125.763 30.008C125.422 30.1147 124.91 30.168 124.227 30.168C123.566 30.168 123.054 30.1147 122.691 30.008C122.328 29.9013 122.147 29.6773 122.147 29.336V3.544H126.307V12.248H128.771V3.224H133.027V29.624ZM112.067 9.176V18.84C112.067 19.3307 112.302 19.576 112.771 19.576H119.843C120.206 19.576 120.44 19.736 120.547 20.056C120.654 20.376 120.707 20.8347 120.707 21.432C120.707 22.0507 120.654 22.52 120.547 22.84C120.44 23.16 120.206 23.32 119.843 23.32H111.715C111.288 23.32 110.819 23.16 110.307 22.84C109.795 22.52 109.358 22.1787 108.995 21.816C108.654 21.4533 108.344 21.0587 108.067 20.632C107.79 20.184 107.651 19.8 107.651 19.48V5.432H119.011C119.374 5.432 119.608 5.592 119.715 5.912C119.822 6.232 119.875 6.69066 119.875 7.288C119.875 7.90667 119.822 8.376 119.715 8.696C119.608 9.016 119.374 9.176 119.011 9.176H112.067ZM140.409 3.192H159.641V11.736C159.641 12.4827 159.449 13.0693 159.065 13.496C158.702 13.9227 158.137 14.136 157.369 14.136H144.313C143.929 14.136 143.481 13.9653 142.969 13.624C142.478 13.2827 142.052 12.92 141.689 12.536C141.369 12.216 141.07 11.864 140.793 11.48C140.537 11.0747 140.409 10.7013 140.409 10.36V3.192ZM152.889 24.536C152.889 24.8987 152.697 25.144 152.313 25.272C151.929 25.3787 151.374 25.432 150.649 25.432C149.966 25.432 149.433 25.3787 149.049 25.272C148.665 25.144 148.473 24.8987 148.473 24.536V20.152H136.441V16.664H162.937C163.364 16.664 163.63 16.8027 163.737 17.08C163.865 17.3573 163.929 17.8053 163.929 18.424C163.929 19.0427 163.865 19.4907 163.737 19.768C163.63 20.024 163.364 20.152 162.937 20.152H152.889V24.536ZM143.865 32.056C143.502 32.056 143.108 31.9173 142.681 31.64C142.254 31.3627 141.87 31.0427 141.529 30.68C141.209 30.36 140.921 30.008 140.665 29.624C140.409 29.24 140.281 28.8987 140.281 28.6V22.776H144.633V27.608C144.633 28.1627 144.878 28.44 145.369 28.44H159.257C159.62 28.44 159.844 28.6 159.929 28.92C160.036 29.2613 160.089 29.7093 160.089 30.264C160.089 30.8613 160.036 31.3093 159.929 31.608C159.844 31.9067 159.62 32.056 159.257 32.056H143.865ZM155.321 10.648V6.68H144.729V10.104C144.729 10.3387 144.772 10.488 144.857 10.552C144.942 10.616 145.07 10.648 145.241 10.648H155.321ZM192.367 18.488C192.794 18.488 193.06 18.648 193.167 18.968C193.295 19.288 193.359 19.7573 193.359 20.376C193.359 20.9947 193.295 21.464 193.167 21.784C193.06 22.0827 192.794 22.232 192.367 22.232H181.359V30.36C181.359 30.7227 181.167 30.968 180.783 31.096C180.399 31.224 179.844 31.288 179.119 31.288C178.436 31.288 177.903 31.224 177.519 31.096C177.135 30.9893 176.943 30.7547 176.943 30.392V22.232H165.871V18.488H192.367ZM186.671 16.728C185.988 16.728 185.455 16.664 185.071 16.536C184.687 16.408 184.495 16.1627 184.495 15.8V8.6C184.495 8.30133 184.431 8.10933 184.303 8.024C184.196 7.93867 184.026 7.896 183.791 7.896H169.487V4.152H184.847C185.274 4.152 185.743 4.312 186.255 4.632C186.767 4.93066 187.204 5.26133 187.567 5.624C187.908 5.96533 188.218 6.36 188.495 6.808C188.772 7.23467 188.911 7.608 188.911 7.928V15.8C188.911 16.1627 188.719 16.408 188.335 16.536C187.951 16.664 187.396 16.728 186.671 16.728ZM198.62 40.312C199.047 40.312 199.313 40.472 199.42 40.792C199.548 41.112 199.612 41.5813 199.612 42.2C199.612 42.8187 199.548 43.288 199.42 43.608C199.313 43.9067 199.047 44.056 198.62 44.056H191.772C192.092 44.696 192.583 45.304 193.244 45.88C193.927 46.456 194.663 47 195.452 47.512C196.263 48.0027 197.073 48.4613 197.884 48.888C198.716 49.2933 199.431 49.6347 200.028 49.912C200.305 50.04 200.433 50.232 200.412 50.488C200.412 50.7227 200.252 51.1387 199.932 51.736C199.761 52.056 199.612 52.312 199.484 52.504C199.377 52.696 199.271 52.8347 199.164 52.92C199.057 53.0053 198.94 53.048 198.812 53.048C198.705 53.048 198.577 53.016 198.428 52.952C197.767 52.7387 197.009 52.4507 196.156 52.088C195.324 51.704 194.481 51.256 193.628 50.744C192.775 50.232 191.964 49.6667 191.196 49.048C190.428 48.408 189.799 47.736 189.308 47.032C188.775 47.7787 188.124 48.472 187.356 49.112C186.588 49.7307 185.788 50.296 184.956 50.808C184.145 51.32 183.345 51.768 182.556 52.152C181.788 52.536 181.116 52.8667 180.54 53.144C180.369 53.2293 180.209 53.2827 180.06 53.304C179.932 53.304 179.793 53.2613 179.644 53.176C179.516 53.0693 179.367 52.9093 179.196 52.696C179.047 52.4827 178.865 52.184 178.652 51.8C178.311 51.2027 178.129 50.7653 178.108 50.488C178.087 50.2107 178.257 49.976 178.62 49.784C179.217 49.464 179.9 49.1013 180.668 48.696C181.457 48.2907 182.236 47.8533 183.004 47.384C183.772 46.8933 184.476 46.3707 185.116 45.816C185.756 45.2613 186.236 44.6747 186.556 44.056H179.228V40.312H198.62ZM202.172 55.448C202.599 55.448 202.865 55.608 202.972 55.928C203.1 56.248 203.164 56.7173 203.164 57.336C203.164 57.9547 203.1 58.424 202.972 58.744C202.865 59.0427 202.599 59.192 202.172 59.192H191.484V66.36C191.484 66.7227 191.292 66.968 190.908 67.096C190.524 67.224 189.969 67.288 189.244 67.288C188.561 67.288 188.028 67.224 187.644 67.096C187.26 66.9893 187.068 66.7547 187.068 66.392V59.192H175.676V55.448H202.172ZM229.522 64.44C229.885 64.44 230.109 64.6 230.194 64.92C230.301 65.2613 230.354 65.7093 230.354 66.264C230.354 66.8613 230.301 67.3093 230.194 67.608C230.109 67.9067 229.885 68.056 229.522 68.056H215.026C214.599 68.056 214.13 67.896 213.618 67.576C213.127 67.2773 212.711 66.9467 212.37 66.584C212.007 66.2427 211.687 65.848 211.41 65.4C211.154 64.9733 211.026 64.6107 211.026 64.312V57.496H215.378V63.736C215.378 64.2053 215.623 64.44 216.114 64.44H229.522ZM210.002 54.456C209.597 54.456 209.149 54.3067 208.658 54.008C208.167 53.688 207.741 53.3467 207.378 52.984C207.037 52.6427 206.727 52.2587 206.45 51.832C206.194 51.384 206.066 50.9787 206.066 50.616V39.96H220.882V52.024C220.882 52.7707 220.69 53.368 220.306 53.816C219.943 54.2427 219.378 54.456 218.61 54.456H210.002ZM216.626 43.544H210.322V50.2C210.322 50.648 210.546 50.872 210.994 50.872H216.626V43.544ZM229.714 58.36C229.714 58.7867 229.501 59.0533 229.074 59.16C228.647 59.2667 228.135 59.32 227.538 59.32C226.855 59.32 226.322 59.256 225.938 59.128C225.554 58.9787 225.362 58.7227 225.362 58.36V38.904H229.714V58.36ZM244.382 54.36C244.062 54.0613 243.721 53.6987 243.358 53.272C242.996 52.8453 242.633 52.3867 242.27 51.896C241.908 51.4053 241.556 50.904 241.214 50.392C240.894 49.8587 240.606 49.336 240.35 48.824C240.116 49.4 239.828 49.976 239.486 50.552C239.166 51.128 238.825 51.6827 238.462 52.216C238.1 52.728 237.726 53.2187 237.342 53.688C236.958 54.136 236.596 54.5307 236.254 54.872C235.934 55.192 235.636 55.3307 235.358 55.288C235.102 55.2453 234.676 54.9573 234.078 54.424C233.844 54.232 233.63 54.0613 233.438 53.912C233.268 53.7413 233.14 53.5813 233.054 53.432C232.969 53.2827 232.937 53.1333 232.958 52.984C232.98 52.8133 233.076 52.632 233.246 52.44C233.886 51.736 234.484 51.0107 235.038 50.264C235.593 49.496 236.084 48.7173 236.51 47.928C236.937 47.1173 237.268 46.296 237.502 45.464C237.758 44.632 237.886 43.768 237.886 42.872V39.8H242.398V42.808C242.398 43.6827 242.569 44.5787 242.91 45.496C243.252 46.392 243.668 47.256 244.158 48.088C244.649 48.8987 245.161 49.6453 245.694 50.328C246.249 50.9893 246.729 51.5333 247.134 51.96C247.412 52.2587 247.465 52.5467 247.294 52.824C247.145 53.08 246.846 53.4107 246.398 53.816C245.822 54.328 245.417 54.6267 245.182 54.712C244.948 54.776 244.681 54.6587 244.382 54.36ZM259.358 64.44C259.721 64.44 259.945 64.6 260.03 64.92C260.137 65.2613 260.19 65.7093 260.19 66.264C260.19 66.8613 260.137 67.3093 260.03 67.608C259.945 67.9067 259.721 68.056 259.358 68.056H244.158C243.732 68.056 243.262 67.896 242.75 67.576C242.26 67.2773 241.844 66.9467 241.502 66.584C241.14 66.2427 240.82 65.848 240.542 65.4C240.286 64.9733 240.158 64.6107 240.158 64.312V57.496H244.51V63.736C244.51 64.2053 244.756 64.44 245.246 64.44H259.358ZM245.406 47.832V44.088H249.278V39.224H253.374V57.944C253.374 58.3067 253.204 58.5413 252.862 58.648C252.521 58.7547 252.009 58.808 251.326 58.808C250.665 58.808 250.153 58.7547 249.79 58.648C249.449 58.5413 249.278 58.3067 249.278 57.944V47.832H245.406ZM255.422 38.904H259.614V58.264C259.614 58.6267 259.433 58.8613 259.07 58.968C258.708 59.0747 258.185 59.128 257.502 59.128C256.841 59.128 256.329 59.0747 255.966 58.968C255.604 58.8613 255.422 58.6267 255.422 58.264V38.904ZM267.764 45.016V48.92H275.988C276.351 48.92 276.586 49.08 276.692 49.4C276.799 49.72 276.852 50.1787 276.852 50.776C276.852 51.3947 276.799 51.864 276.692 52.184C276.586 52.504 276.351 52.664 275.988 52.664H267.764V55.8C267.764 56.2907 267.999 56.536 268.468 56.536H278.292C278.655 56.536 278.89 56.696 278.996 57.016C279.103 57.336 279.156 57.7947 279.156 58.392C279.156 59.0107 279.103 59.48 278.996 59.8C278.89 60.12 278.655 60.28 278.292 60.28H267.412C266.986 60.28 266.516 60.12 266.004 59.8C265.492 59.48 265.055 59.1387 264.692 58.776C264.351 58.4133 264.042 58.0187 263.764 57.592C263.487 57.1653 263.348 56.792 263.348 56.472V41.272H276.468C276.831 41.272 277.066 41.432 277.172 41.752C277.279 42.072 277.332 42.5307 277.332 43.128C277.332 43.7467 277.279 44.216 277.172 44.536C277.066 44.856 276.831 45.016 276.468 45.016H267.764ZM287.316 65.656C287.316 66.0187 287.124 66.264 286.74 66.392C286.356 66.52 285.802 66.584 285.076 66.584C284.394 66.584 283.86 66.52 283.476 66.392C283.092 66.2853 282.9 66.0507 282.9 65.688V51.992H278.516V48.248H282.9V39.224H287.316V65.656Z" fill="black"/>
<path d="M100.47 63C100.47 64.0027 100.236 64.8773 99.7664 65.624C99.2971 66.392 98.6678 67.0213 97.8784 67.512C97.1104 68.024 96.2251 68.408 95.2224 68.664C94.2198 68.92 93.1744 69.048 92.0864 69.048C90.9984 69.048 89.9531 68.92 88.9504 68.664C87.9478 68.408 87.0518 68.024 86.2624 67.512C85.4944 67.0213 84.8758 66.392 84.4064 65.624C83.9371 64.8773 83.7024 64.0027 83.7024 63C83.7024 62.168 83.8624 61.4213 84.1824 60.76C84.5238 60.0987 84.9718 59.5333 85.5264 59.064C86.0811 58.5733 86.7318 58.168 87.4784 57.848C88.2464 57.528 89.0571 57.304 89.9104 57.176V55.192H78.5184V51.704H105.014C105.441 51.704 105.708 51.8427 105.814 52.12C105.942 52.3973 106.006 52.8453 106.006 53.464C106.006 54.0827 105.942 54.5307 105.814 54.808C105.708 55.064 105.441 55.192 105.014 55.192H94.3264V57.176C95.1798 57.3253 95.9798 57.56 96.7264 57.88C97.4731 58.1787 98.1238 58.5733 98.6784 59.064C99.2331 59.5333 99.6704 60.0987 99.9904 60.76C100.31 61.4213 100.47 62.168 100.47 63ZM82.0704 43.672V40.152H89.9744V37.752H94.2304V40.152H101.622C101.985 40.152 102.22 40.2907 102.326 40.568C102.433 40.8453 102.486 41.2827 102.486 41.88C102.486 42.4987 102.433 42.9573 102.326 43.256C102.22 43.5333 101.985 43.672 101.622 43.672H94.9344C95.3398 44.0987 95.8838 44.5147 96.5664 44.92C97.2704 45.3253 97.9851 45.6987 98.7104 46.04C99.4571 46.3813 100.172 46.68 100.854 46.936C101.537 47.192 102.092 47.3947 102.518 47.544C102.838 47.6507 102.988 47.8107 102.966 48.024C102.945 48.2373 102.774 48.7067 102.454 49.432C102.305 49.7733 102.177 50.0293 102.07 50.2C101.985 50.3707 101.889 50.4987 101.782 50.584C101.697 50.648 101.59 50.6693 101.462 50.648C101.356 50.6267 101.217 50.5947 101.046 50.552C100.449 50.3813 99.7558 50.1573 98.9664 49.88C98.1984 49.6027 97.4091 49.2827 96.5984 48.92C95.8091 48.5573 95.0198 48.1413 94.2304 47.672C93.4624 47.1813 92.7798 46.648 92.1824 46.072C91.5424 46.6693 90.8171 47.2133 90.0064 47.704C89.2171 48.1733 88.4171 48.6 87.6064 48.984C86.7958 49.368 86.0171 49.6987 85.2704 49.976C84.5238 50.2533 83.8838 50.4773 83.3504 50.648C83.0091 50.7547 82.7424 50.7333 82.5504 50.584C82.3584 50.4347 82.1131 50.0293 81.8144 49.368C81.4944 48.6853 81.3131 48.2267 81.2704 47.992C81.2491 47.7573 81.4091 47.576 81.7504 47.448C82.2411 47.256 82.8278 47.032 83.5104 46.776C84.2144 46.4987 84.9291 46.2 85.6544 45.88C86.3798 45.56 87.0624 45.2187 87.7024 44.856C88.3424 44.472 88.8651 44.0773 89.2704 43.672H82.0704ZM96.1184 63C96.1184 62.1893 95.7344 61.5813 94.9664 61.176C94.1984 60.7493 93.2491 60.536 92.1184 60.536C90.9664 60.536 89.9958 60.7493 89.2064 61.176C88.4384 61.5813 88.0544 62.1893 88.0544 63C88.0544 63.8107 88.4384 64.4293 89.2064 64.856C89.9958 65.2827 90.9664 65.496 92.1184 65.496C93.2491 65.496 94.1984 65.2827 94.9664 64.856C95.7344 64.4293 96.1184 63.8107 96.1184 63ZM109.676 51.768C109.676 50.9787 109.847 50.232 110.188 49.528C110.53 48.8027 110.999 48.1733 111.596 47.64C112.194 47.1067 112.908 46.6907 113.74 46.392C114.572 46.072 115.49 45.912 116.492 45.912C117.474 45.912 118.38 46.072 119.212 46.392C120.066 46.6907 120.791 47.1067 121.388 47.64C121.986 48.1733 122.455 48.8027 122.796 49.528C123.138 50.232 123.308 50.9787 123.308 51.768C123.308 52.5573 123.138 53.3147 122.796 54.04C122.455 54.744 121.986 55.3627 121.388 55.896C120.791 56.4293 120.066 56.856 119.212 57.176C118.38 57.4747 117.474 57.624 116.492 57.624C115.49 57.624 114.572 57.4747 113.74 57.176C112.908 56.856 112.194 56.4293 111.596 55.896C110.999 55.3627 110.53 54.744 110.188 54.04C109.847 53.3147 109.676 52.5573 109.676 51.768ZM132.876 59C132.876 59.4267 132.663 59.6933 132.236 59.8C131.81 59.9067 131.298 59.96 130.7 59.96C130.018 59.96 129.484 59.896 129.1 59.768C128.716 59.6187 128.524 59.3627 128.524 59V55.384H124.78V51.864H128.524V48.984H124.78V45.464H128.524V38.904H132.876V59ZM132.62 64.44C132.983 64.44 133.207 64.6 133.292 64.92C133.399 65.2613 133.452 65.7093 133.452 66.264C133.452 66.8613 133.399 67.3093 133.292 67.608C133.207 67.9067 132.983 68.056 132.62 68.056H118.188C117.762 68.056 117.292 67.896 116.78 67.576C116.29 67.2773 115.874 66.9467 115.532 66.584C115.17 66.2427 114.85 65.848 114.572 65.4C114.316 64.9733 114.188 64.6107 114.188 64.312V59.096H118.54V63.736C118.54 64.2053 118.786 64.44 119.276 64.44H132.62ZM123.244 41.368C123.607 41.368 123.842 41.5067 123.948 41.784C124.055 42.0613 124.108 42.4987 124.108 43.096C124.108 43.7147 124.055 44.1733 123.948 44.472C123.842 44.7493 123.607 44.888 123.244 44.888H108.108V41.368H114.252V38.68H118.636V41.368H123.244ZM119.084 51.736C119.084 51.1387 118.86 50.5947 118.412 50.104C117.986 49.6133 117.346 49.368 116.492 49.368C115.639 49.368 114.988 49.6133 114.54 50.104C114.114 50.5947 113.9 51.1387 113.9 51.736C113.9 52.3547 114.114 52.92 114.54 53.432C114.988 53.9227 115.639 54.168 116.492 54.168C117.346 54.168 117.986 53.9227 118.412 53.432C118.86 52.92 119.084 52.3547 119.084 51.736ZM145.073 42.424V45.016C145.073 45.5067 145.308 45.752 145.777 45.752H159.185C159.548 45.752 159.783 45.9013 159.889 46.2C159.996 46.4773 160.049 46.9147 160.049 47.512C160.049 48.1307 159.996 48.5893 159.889 48.888C159.783 49.1653 159.548 49.304 159.185 49.304H152.561V51.864H163.249C163.676 51.864 163.943 52.0027 164.049 52.28C164.177 52.5573 164.241 53.0053 164.241 53.624C164.241 54.2427 164.177 54.6907 164.049 54.968C163.943 55.224 163.676 55.352 163.249 55.352H136.753V51.864H148.145V49.304H144.785C144.359 49.304 143.889 49.144 143.377 48.824C142.865 48.504 142.428 48.1627 142.065 47.8C141.724 47.4373 141.415 47.0427 141.137 46.616C140.86 46.168 140.721 45.784 140.721 45.464V38.872H158.865C159.228 38.872 159.463 39.0213 159.569 39.32C159.676 39.5973 159.729 40.0347 159.729 40.632C159.729 41.2507 159.676 41.7093 159.569 42.008C159.463 42.2853 159.228 42.424 158.865 42.424H145.073ZM158.705 62.84C158.705 63.8427 158.471 64.728 158.001 65.496C157.532 66.2853 156.903 66.936 156.113 67.448C155.345 67.9813 154.46 68.376 153.457 68.632C152.455 68.9093 151.409 69.048 150.321 69.048C149.233 69.048 148.188 68.9093 147.185 68.632C146.183 68.376 145.287 67.9813 144.497 67.448C143.729 66.936 143.111 66.2853 142.641 65.496C142.172 64.728 141.937 63.8427 141.937 62.84C141.937 61.8373 142.172 60.952 142.641 60.184C143.111 59.3947 143.729 58.744 144.497 58.232C145.287 57.6987 146.183 57.304 147.185 57.048C148.188 56.7707 149.233 56.632 150.321 56.632C151.409 56.632 152.455 56.7707 153.457 57.048C154.46 57.304 155.345 57.6987 156.113 58.232C156.903 58.744 157.532 59.3947 158.001 60.184C158.471 60.952 158.705 61.8373 158.705 62.84ZM154.353 62.84C154.353 62.0293 153.98 61.3893 153.233 60.92C152.487 60.4293 151.527 60.184 150.353 60.184C149.137 60.184 148.156 60.4293 147.409 60.92C146.663 61.3893 146.289 62.0293 146.289 62.84C146.289 63.6507 146.663 64.2907 147.409 64.76C148.156 65.2507 149.137 65.496 150.353 65.496C151.527 65.496 152.487 65.2507 153.233 64.76C153.98 64.2907 154.353 63.6507 154.353 62.84Z" fill="#009157"/>
<g clip-path="url(#clip0_70_647)">
<path d="M63.6738 30.3833C61.5516 26.1039 55.6617 24.9715 48.2271 26.6818C54.4797 19.2786 57.334 11.7974 54.9767 7.04152C51.2762 -0.416313 36.172 1.66873 21.2089 11.727C6.24572 21.7854 -2.85439 35.9357 0.846095 43.3858C2.96834 47.6652 8.85822 48.7976 16.2928 47.0952C10.0402 54.4983 7.18595 61.9796 9.57683 66.7354C13.2773 74.1932 28.3815 72.1081 43.3446 62.0498C58.3078 51.9915 67.3743 37.8412 63.6738 30.3833Z" fill="#009157"/>
</g>
<defs>
<clipPath id="clip0_70_647">
<rect width="64.5" height="68.612" fill="white" transform="translate(0 2.56689)"/>
</clipPath>
</defs>
</svg>
