<svg width="50" height="50" viewBox="0 0 50 50" fill="none" xmlns="http://www.w3.org/2000/svg">
<path d="M23.6364 43.1429V39.4286H8.72727V13.4286H42.2727V22.9C43.5773 22.9 44.6955 23.4571 45.6273 24.3857L46 24.7571V9.71429C46 7.67143 44.3227 6 42.2727 6H8.72727C6.67727 6 5 7.67143 5 9.71429V39.4286C5 41.4714 6.67727 43.1429 8.72727 43.1429H23.6364Z" fill="#F6A55A"/>
<path d="M45.4409 29.4L43.0182 26.9857C42.8318 26.8 42.6455 26.6143 42.2727 26.6143C41.9 26.6143 41.7136 26.8 41.5273 26.9857L39.6636 28.8429L43.5773 32.7429L45.4409 30.8857C45.8136 30.5143 45.8136 29.7714 45.4409 29.4Z" fill="#F6A55A"/>
<path d="M42.4591 33.6714L31.2773 45H27.3636V41.1L38.7318 29.7714L42.4591 33.6714Z" fill="#F6A55A"/>
<path d="M34.5439 21.2715C35.2461 20.4188 35.1241 19.1584 34.2715 18.4562C33.4188 17.754 32.1584 17.876 31.4562 18.7286L24.76 26.8598L20.54 21.7674C19.8352 20.9169 18.5744 20.7988 17.7239 21.5036C16.8734 22.2084 16.7553 23.4692 17.4601 24.3197L22.4524 30.3441C23.6545 31.7947 25.8805 31.7913 27.0781 30.337L34.5439 21.2715Z" fill="#F6A55A"/>
</svg>
