<svg width="50" height="50" viewBox="0 0 50 50" fill="none" xmlns="http://www.w3.org/2000/svg">
<path d="M45.3879 7C46.2783 7 47 7.69107 47 8.54355C47 9.39603 46.2783 10.0871 45.3879 10.0871H11.0573C9.88486 10.0871 8.93441 10.9971 8.93441 12.1198V38.9129H28.7586C29.6489 38.9129 30.3707 39.604 30.3707 40.4565C30.3707 41.3089 29.6489 42 28.7586 42H3.61207C2.72175 42 2 41.3089 2 40.4565C2 39.604 2.72175 38.9129 3.61207 38.9129H5.71027V12.0816C5.71027 9.27513 8.0864 7 11.0175 7H45.3879ZM39.2161 14.6952C40.9247 14.7009 42.5618 15.3531 43.7703 16.5096C44.9788 17.6662 45.6608 19.2333 45.6676 20.8694C45.6676 24.2636 42.7594 27.0435 39.2161 27.0435C37.5083 27.037 35.8724 26.3844 34.6651 25.2278C33.4578 24.0712 32.777 22.5046 32.771 20.8694C32.771 17.4782 35.676 14.6952 39.2161 14.6952ZM27.1059 13.1742C27.9962 13.1742 28.718 13.8653 28.718 14.7177C28.718 15.5702 27.9962 16.2613 27.1059 16.2613H21.2214C20.3311 16.2613 19.6093 15.5702 19.6093 14.7177C19.6093 13.8653 20.3311 13.1742 21.2214 13.1742H27.1059ZM15.4704 13.1742C16.3608 13.1742 17.0825 13.8653 17.0825 14.7177C17.0825 15.5702 16.3608 16.2613 15.4704 16.2613H13.7706C12.8803 16.2613 12.1586 15.5702 12.1586 14.7177C12.1586 13.8653 12.8803 13.1742 13.7706 13.1742H15.4704ZM39.2161 17.7823C37.4202 17.7823 35.9952 19.1452 35.9952 20.8694C35.9952 22.5981 37.4186 23.9565 39.2161 23.9565C41.0216 23.9565 42.4434 22.5981 42.4434 20.8694C42.4434 19.1452 41.02 17.7823 39.2161 17.7823ZM27.1059 19.3484C27.9962 19.3484 28.718 20.0395 28.718 20.8919C28.718 21.7444 27.9962 22.4355 27.1059 22.4355H13.7706C12.8803 22.4355 12.1586 21.7444 12.1586 20.8919C12.1586 20.0395 12.8803 19.3484 13.7706 19.3484H27.1059ZM43.1741 28.5871C44.3465 28.5871 45.297 29.4971 45.297 30.6198V40.4565C45.297 41.3089 44.5752 42 43.6849 42C42.7946 42 42.0728 41.3089 42.0728 40.4565V31.6742H37.2366V40.4565C37.2366 41.3089 36.5149 42 35.6246 42C34.7342 42 34.0125 41.3089 34.0125 40.4565V32.6898L30.6852 34.3754C29.7421 34.8539 28.6088 34.8524 27.6674 34.3754V34.3785L23.4005 32.2177C22.6139 31.8193 22.3129 30.8862 22.7278 30.1325C23.1435 29.3773 24.1203 29.0883 24.9085 29.4874L29.1731 31.6464L34.164 29.1243C34.8606 28.7719 35.6364 28.5875 36.4242 28.5871H43.1741Z" fill="#62BAF9"/>
</svg>
