<svg width="50" height="50" viewBox="0 0 50 50" fill="none" xmlns="http://www.w3.org/2000/svg">
<path d="M41.5625 24.8188C42.4414 25.4194 43.2251 26.1006 43.9136 26.8623C44.6021 27.624 45.1953 28.459 45.6934 29.3672C46.1914 30.2754 46.5576 31.2349 46.792 32.2456C47.0264 33.2563 47.1582 34.2891 47.1875 35.3438C47.1875 37.0869 46.8579 38.7275 46.1987 40.2656C45.5396 41.8037 44.6313 43.144 43.4741 44.2866C42.3169 45.4292 40.9766 46.3301 39.4531 46.9893C37.9297 47.6484 36.2891 47.9854 34.5312 48C33.1982 48 31.9092 47.8022 30.6641 47.4067C29.4189 47.0112 28.2764 46.4399 27.2363 45.6929C26.1963 44.9458 25.2734 44.0522 24.4678 43.0122C23.6621 41.9722 23.0396 40.8223 22.6001 39.5625H5V5.8125H10.625V3H13.4375V5.8125H33.125V3H35.9375V5.8125H41.5625V24.8188ZM7.8125 8.625V14.25H38.75V8.625H35.9375V11.4375H33.125V8.625H13.4375V11.4375H10.625V8.625H7.8125ZM21.9409 36.75C21.897 36.2959 21.875 35.8271 21.875 35.3438C21.875 34.084 22.0508 32.8608 22.4023 31.6743C22.7539 30.4878 23.2886 29.3672 24.0063 28.3125H21.875V25.5H24.6875V27.3896C25.2881 26.6426 25.9546 25.9834 26.687 25.4121C27.4194 24.8408 28.2104 24.3501 29.0601 23.9399C29.9097 23.5298 30.7959 23.2222 31.7188 23.0171C32.6416 22.812 33.5791 22.7021 34.5312 22.6875C35.9961 22.6875 37.4023 22.9292 38.75 23.4126V17.0625H7.8125V36.75H21.9409ZM34.5312 45.1875C35.8936 45.1875 37.168 44.9312 38.3545 44.4185C39.541 43.9058 40.5811 43.2026 41.4746 42.3091C42.3682 41.4155 43.0713 40.3755 43.584 39.189C44.0967 38.0024 44.3604 36.7207 44.375 35.3438C44.375 33.9814 44.1187 32.707 43.606 31.5205C43.0933 30.334 42.3901 29.2939 41.4966 28.4004C40.603 27.5068 39.563 26.8037 38.3765 26.291C37.1899 25.7783 35.9082 25.5146 34.5312 25.5C33.1689 25.5 31.8945 25.7563 30.708 26.269C29.5215 26.7817 28.4814 27.4849 27.5879 28.3784C26.6943 29.272 25.9912 30.312 25.4785 31.4985C24.9658 32.6851 24.7021 33.9668 24.6875 35.3438C24.6875 36.7061 24.9438 37.9805 25.4565 39.167C25.9692 40.3535 26.6724 41.3936 27.5659 42.2871C28.4595 43.1807 29.4995 43.8838 30.686 44.3965C31.8726 44.9092 33.1543 45.1729 34.5312 45.1875ZM35.9375 33.9375H40.1562V36.75H33.125V28.3125H35.9375V33.9375ZM10.625 25.5H13.4375V28.3125H10.625V25.5ZM16.25 25.5H19.0625V28.3125H16.25V25.5ZM16.25 19.875H19.0625V22.6875H16.25V19.875ZM10.625 31.125H13.4375V33.9375H10.625V31.125ZM16.25 31.125H19.0625V33.9375H16.25V31.125ZM24.6875 22.6875H21.875V19.875H24.6875V22.6875ZM30.3125 22.6875H27.5V19.875H30.3125V22.6875ZM35.9375 22.6875H33.125V19.875H35.9375V22.6875Z" fill="#81DC7F"/>
</svg>
