<svg width="22" height="22" viewBox="0 0 22 22" fill="none" xmlns="http://www.w3.org/2000/svg">
<path d="M6.53125 11C8.23988 11 9.625 9.61488 9.625 7.90625C9.625 6.19762 8.23988 4.8125 6.53125 4.8125C4.82262 4.8125 3.4375 6.19762 3.4375 7.90625C3.4375 9.61488 4.82262 11 6.53125 11Z" fill="#CCCCCC"/>
<path d="M10.0547 12.7188C8.84469 12.1043 7.50922 11.8594 6.53125 11.8594C4.6157 11.8594 0.6875 13.0341 0.6875 15.3828V17.1875H7.13281V16.497C7.13281 15.6806 7.47656 14.862 8.07812 14.1797C8.55809 13.6348 9.23012 13.1291 10.0547 12.7188Z" fill="#CCCCCC"/>
<path d="M14.6094 12.375C12.372 12.375 7.90625 13.7569 7.90625 16.5V18.5625H21.3125V16.5C21.3125 13.7569 16.8468 12.375 14.6094 12.375Z" fill="#CCCCCC"/>
<path d="M14.6094 11C16.6977 11 18.3906 9.30708 18.3906 7.21875C18.3906 5.13042 16.6977 3.4375 14.6094 3.4375C12.521 3.4375 10.8281 5.13042 10.8281 7.21875C10.8281 9.30708 12.521 11 14.6094 11Z" fill="#CCCCCC"/>
</svg>
