<svg width="113" height="101" viewBox="0 0 113 101" fill="none" xmlns="http://www.w3.org/2000/svg">
<path fill-rule="evenodd" clip-rule="evenodd" d="M72.3908 10.8929C73.5959 10.8929 74.5729 11.8699 74.5729 13.075L74.5729 15.9078L86.7209 15.9078L86.7209 13.0753C86.7209 11.8702 87.6978 10.8932 88.9029 10.8932C90.1081 10.8932 91.085 11.8702 91.085 13.0753L91.085 15.9078L96.5434 15.9078C100.309 15.9078 103.362 18.9608 103.362 22.7268L103.362 81.2653C103.362 85.0313 100.309 88.0843 96.5434 88.0843L16.3525 88.0843C12.5865 88.0843 9.53351 85.0313 9.53351 81.2653L9.53351 22.7268C9.53351 18.9608 12.5865 15.9078 16.3525 15.9078L21.2417 15.9078L21.2417 13.0751C21.2417 11.87 22.2187 10.893 23.4238 10.893C24.6289 10.893 25.6059 11.87 25.6059 13.0751L25.6059 15.9078L37.7539 15.9078L37.7539 13.0754C37.7539 11.8703 38.7308 10.8933 39.9359 10.8933C41.141 10.8933 42.118 11.8703 42.118 13.0754L42.118 15.9078L54.2659 15.9078L54.2659 13.0752C54.2659 11.8701 55.2428 10.8931 56.448 10.8931C57.6531 10.8931 58.63 11.8701 58.63 13.0752L58.63 15.9078L70.2088 15.9078L70.2088 13.075C70.2088 11.8699 71.1857 10.8929 72.3908 10.8929ZM12.2611 81.2653L12.2611 35.6967L100.635 35.6967L100.635 81.2653C100.635 83.5249 98.803 85.3567 96.5434 85.3567L16.3525 85.3567C14.0929 85.3567 12.2611 83.5249 12.2611 81.2653Z" fill="white"/>
</svg>
