<svg width="111" height="101" viewBox="0 0 111 101" fill="none" xmlns="http://www.w3.org/2000/svg">
<path fill-rule="evenodd" clip-rule="evenodd" d="M8.0966 0.0488281C3.84825 0.0488281 0.404297 3.49279 0.404297 7.74113V92.3565C0.404297 96.6049 3.84825 100.049 8.0966 100.049H74.7633V71.8437C74.7633 69.0115 77.0592 66.7155 79.8915 66.7155H110.661V7.74113C110.661 3.49279 107.217 0.0488281 102.968 0.0488281L8.0966 0.0488281ZM81.6395 31.2031C84.2591 33.5846 84.4522 37.6387 82.0707 40.2583L60.7294 63.7337C57.08 67.7481 50.7308 67.6315 47.2313 63.4859L33.9676 47.7736C31.684 45.0683 32.0257 41.024 34.731 38.7403C37.4363 36.4566 41.4806 36.7984 43.7643 39.5037L54.1961 51.8613L72.5843 31.6343C74.9657 29.0147 79.0199 28.8216 81.6395 31.2031Z" fill="white"/>
<path d="M110.661 71.8437L79.8915 100.049V71.8437H110.661Z" fill="white"/>
</svg>
