<svg width="375" height="100" viewBox="0 0 375 100" fill="none" xmlns="http://www.w3.org/2000/svg">
<path d="M369.76 -4.08913e-07C372.343 -1.83077e-07 374.437 2.09415 374.437 4.67742C374.437 7.26069 372.343 9.35484 369.76 9.35484L236.834 9.35483C233.432 9.35483 230.674 12.1126 230.674 15.5144L230.674 90.6451L305.459 90.6452C308.042 90.6452 310.136 92.7393 310.136 95.3226C310.136 97.9058 308.042 100 305.459 100L4.81382 100C2.23055 100 0.136393 97.9058 0.136393 95.3226C0.136394 92.7393 2.23055 90.6451 4.81382 90.6451L221.319 90.6451L221.319 15.3989C221.319 6.89431 228.214 -1.27833e-05 236.718 -1.20398e-05L369.76 -4.08913e-07ZM342.815 17.2581C347.773 17.2753 352.523 19.2517 356.029 22.7565C359.536 26.2612 361.515 31.0101 361.534 35.9677C361.534 46.2534 353.096 54.6774 342.815 54.6774C337.86 54.6577 333.114 52.6799 329.611 49.1751C326.108 45.6704 324.132 40.9229 324.115 35.9677C324.115 25.6914 332.544 17.2581 342.815 17.2581ZM303.631 18.7097C306.214 18.7097 308.308 20.8038 308.308 23.3871C308.308 25.9704 306.214 28.0645 303.631 28.0645L272.394 28.0645C269.811 28.0645 267.717 25.9704 267.717 23.3871C267.717 20.8038 269.811 18.7097 272.394 18.7097L303.631 18.7097ZM253.685 18.7097C256.268 18.7097 258.362 20.8038 258.362 23.3871C258.362 25.9704 256.268 28.0645 253.685 28.0645L244.706 28.0645C242.123 28.0645 240.029 25.9704 240.029 23.3871C240.029 20.8038 242.123 18.7097 244.706 18.7097L253.685 18.7097ZM342.815 26.6129C337.605 26.6129 333.47 30.7431 333.47 35.9677C333.47 41.2064 337.6 45.3226 342.815 45.3226C348.054 45.3226 352.179 41.2064 352.179 35.9677C352.179 30.7431 348.049 26.6129 342.815 26.6129ZM303.631 37.4193C306.214 37.4193 308.308 39.5135 308.308 42.0968C308.308 44.68 306.214 46.7742 303.631 46.7742L244.706 46.7742C242.123 46.7742 240.029 44.68 240.029 42.0968C240.029 39.5135 242.123 37.4193 244.706 37.4193L303.631 37.4193ZM354.299 59.3548C357.701 59.3548 360.459 62.1126 360.459 65.5144L360.459 95.3226C360.459 97.9059 358.365 100 355.782 100C353.198 100 351.104 97.9059 351.104 95.3226L351.104 68.7097L337.072 68.7097L337.072 95.3226C337.072 97.9059 334.978 100 332.394 100C329.811 100 327.717 97.9058 327.717 95.3226L327.717 71.7874L318.063 76.8952C315.327 78.3452 312.038 78.3405 309.307 76.8952L309.307 76.9045L296.926 70.3566C294.644 69.1495 293.771 66.3218 294.975 64.0378C296.181 61.7494 299.015 60.8738 301.302 62.0829L313.675 68.6255L328.157 60.9826C330.178 59.9149 332.429 59.3561 334.714 59.3548L354.299 59.3548Z" fill="white"/>
</svg>
