<svg width="100" height="101" viewBox="0 0 100 101" fill="none" xmlns="http://www.w3.org/2000/svg">
<path d="M33.3327 50.5846H66.666V58.918H33.3327V50.5846ZM41.666 83.918H24.9993V17.2513H54.166V38.0846H74.9993V51.0013L83.3327 42.668V33.918L58.3327 8.91797H24.9993C22.7892 8.91797 20.6696 9.79594 19.1068 11.3587C17.544 12.9215 16.666 15.0412 16.666 17.2513V83.918C16.666 86.1281 17.544 88.2477 19.1068 89.8105C20.6696 91.3733 22.7892 92.2513 24.9993 92.2513H41.666V83.918ZM33.3327 75.5846H50.416L54.166 71.8346V67.2513H33.3327V75.5846ZM84.166 54.7513C84.5827 54.7513 85.416 55.168 85.8327 55.5846L91.2493 61.0013C92.0827 61.8346 92.0827 63.5013 91.2493 64.3346L87.0827 68.5013L78.3327 59.7513L82.4993 55.5846C82.916 55.168 83.3327 54.7513 84.166 54.7513ZM84.166 71.0013L58.7493 96.418H49.9993V87.668L75.416 62.2513L84.166 71.0013Z" fill="white"/>
</svg>
