<svg width="70" height="70" viewBox="0 0 70 70" fill="none" xmlns="http://www.w3.org/2000/svg">
<path d="M34.5624 34.3872C39.2348 34.3872 43.0226 30.6472 43.0226 26.0337C43.0226 21.4202 39.2348 17.6802 34.5624 17.6802C29.89 17.6802 26.1023 21.4202 26.1023 26.0337C26.1023 30.6472 29.89 34.3872 34.5624 34.3872Z" fill="white"/>
<path d="M21.7301 26.8692H22.5832V26.1049C22.5884 23.8825 23.2154 21.7059 24.3933 19.8213C25.5711 17.9367 27.2529 16.4194 29.2483 15.4409C28.6575 14.0804 27.7094 12.9054 26.5044 12.0405C25.2995 11.1757 23.8829 10.6533 22.405 10.5289C20.927 10.4045 19.443 10.6828 18.1105 11.3341C16.778 11.9854 15.6467 12.9854 14.837 14.228C14.0272 15.4706 13.569 16.9093 13.5112 18.3913C13.4534 19.8734 13.7981 21.3434 14.5087 22.6453C15.2193 23.9471 16.2692 25.0322 17.5469 25.7853C18.8246 26.5384 20.2825 26.9314 21.7656 26.9225L21.7301 26.8692ZM46.5773 26.0338V26.7981H47.4305C48.8938 26.7834 50.3262 26.3745 51.5768 25.6144C52.8273 24.8542 53.8499 23.771 54.5367 22.4788C55.2236 21.1865 55.5494 19.733 55.4798 18.2712C55.4102 16.8094 54.9478 15.3934 54.1413 14.1722C53.3348 12.9511 52.214 11.9699 50.8969 11.332C49.5798 10.6941 48.115 10.4231 46.6569 10.5475C45.1987 10.6719 43.801 11.1871 42.611 12.0388C41.421 12.8906 40.4825 14.0474 39.8945 15.3875C41.8905 16.3622 43.5741 17.8758 44.7551 19.7571C45.936 21.6384 46.5672 23.8126 46.5773 26.0338ZM42.1873 35.2227C45.7211 35.9221 49.138 37.1189 52.3359 38.7774C52.7865 39.0249 53.1945 39.3429 53.5445 39.7194H63V33.6408C63.0017 33.4077 62.9397 33.1785 62.8207 32.9781C62.7016 32.7776 62.5301 32.6134 62.3246 32.5033C57.718 30.0938 52.5936 28.8432 47.3949 28.8598H46.2219C45.6059 31.3636 44.1893 33.5977 42.1873 35.2227ZM14.1764 43.1674C14.1731 42.2723 14.4149 41.3933 14.8754 40.6258C15.336 39.8582 15.9977 39.2313 16.7891 38.8129C19.987 37.1545 23.4039 35.9577 26.9377 35.2582C24.9454 33.6471 23.5297 31.4331 22.9031 28.9487H21.7301C16.5314 28.9321 11.407 30.1827 6.80043 32.5922C6.59491 32.7023 6.42337 32.8664 6.30434 33.0669C6.18531 33.2674 6.12331 33.4966 6.12503 33.7297V45.0869H14.1764V43.1674ZM40.7121 53.4227H51.3051V55.9109H40.7121V53.4227Z" fill="white"/>
<path d="M60.8853 43.7719H48.675V41.9945C48.675 41.5231 48.4877 41.0711 48.1544 40.7377C47.8211 40.4044 47.369 40.2172 46.8977 40.2172C46.4263 40.2172 45.9742 40.4044 45.6409 40.7377C45.3076 41.0711 45.1203 41.5231 45.1203 41.9945V43.7719H41.6723V38.742C39.3339 38.2509 36.9522 37.9949 34.5629 37.9777C28.9532 37.9544 23.4236 39.3093 18.4602 41.9234C18.2391 42.0381 18.054 42.2117 17.9254 42.425C17.7968 42.6383 17.7297 42.883 17.7315 43.132V53.1029H30.3684V63.9269C30.3684 64.3983 30.5556 64.8504 30.8889 65.1837C31.2223 65.517 31.6743 65.7042 32.1457 65.7042H60.8853C61.3567 65.7042 61.8088 65.517 62.1421 65.1837C62.4754 64.8504 62.6627 64.3983 62.6627 63.9269V45.5492C62.6627 45.0778 62.4754 44.6257 62.1421 44.2924C61.8088 43.9591 61.3567 43.7719 60.8853 43.7719ZM59.108 62.1851H33.9231V47.3265H45.1203V48.9439C45.1203 49.4153 45.3076 49.8674 45.6409 50.2007C45.9742 50.534 46.4263 50.7213 46.8977 50.7213C47.369 50.7213 47.8211 50.534 48.1544 50.2007C48.4877 49.8674 48.675 49.4153 48.675 48.9439V47.3265H59.108V62.1851Z" fill="white"/>
</svg>
