<svg width="255" height="170" viewBox="0 0 255 170" fill="none" xmlns="http://www.w3.org/2000/svg">
<path d="M194.497 101.331C195.448 118.86 161.176 154.505 118.934 141.312C99.2873 135.175 100.952 124.99 86.0123 111.566C77.1077 103.566 64.3135 97.5161 60.7552 85.8867C57.681 75.8487 59.5663 65.0597 64.8958 58.0418C76.8816 42.2596 101.079 31.4524 124.921 56.3188C148.762 81.1853 192.038 56.1205 194.497 101.331Z" fill="url(#paint0_linear_114_263)"/>
<path d="M182.508 57.3052C179.23 63.1557 172.05 63.9595 160.548 62.8477C151.898 62.0099 144.009 61.3617 135.358 56.645C129.303 53.3462 124.51 48.8825 121.012 44.5475C117.221 39.8513 111.93 34.4915 114.523 29.1665C118.088 21.852 138.703 15.6912 158.72 25.7659C180.709 36.836 185.715 51.5869 182.508 57.3052Z" fill="url(#paint1_linear_114_263)"/>
<path opacity="0.76" fill-rule="evenodd" clip-rule="evenodd" d="M62.6523 62.9256C62.6523 42.7253 79.0279 26.3501 99.2278 26.3501C119.428 26.3501 135.803 42.7253 135.803 62.9256C135.803 83.1256 119.428 99.5008 99.2278 99.5008C79.0279 99.5008 62.6523 83.1256 62.6523 62.9256ZM133.764 62.9738C133.764 47.8429 121.498 35.5771 106.368 35.5771C91.237 35.5771 78.9712 47.8429 78.9712 62.9738C78.9712 78.1043 91.237 90.3701 106.368 90.3701C121.498 90.3701 133.764 78.1043 133.764 62.9738Z" fill="url(#paint2_linear_114_263)"/>
<path opacity="0.76" d="M109.841 76.1948C112.174 76.1948 114.066 78.0864 114.066 80.4202C114.066 82.7537 112.174 84.6452 109.841 84.6452C107.507 84.6452 105.615 82.7537 105.615 80.4202C105.615 78.0864 107.507 76.1948 109.841 76.1948Z" fill="url(#paint3_linear_114_263)"/>
<path d="M199.02 71.0718C194.729 71.0718 191.25 67.5933 191.25 63.3025C191.25 59.0116 194.729 55.5332 199.02 55.5332C203.311 55.5332 206.789 59.0116 206.789 63.3025C206.789 67.5933 203.311 71.0718 199.02 71.0718Z" fill="url(#paint4_linear_114_263)"/>
<path d="M191.817 48.1669C190.409 48.1669 189.267 47.0252 189.267 45.6169C189.267 44.2086 190.409 43.0669 191.817 43.0669C193.226 43.0669 194.367 44.2086 194.367 45.6169C194.367 47.0252 193.226 48.1669 191.817 48.1669Z" fill="url(#paint5_linear_114_263)"/>
<path d="M81.7414 129.483C79.6289 129.483 77.9164 127.771 77.9164 125.658C77.9164 123.546 79.6289 121.833 81.7414 121.833C83.8539 121.833 85.5664 123.546 85.5664 125.658C85.5664 127.771 83.8539 129.483 81.7414 129.483Z" fill="url(#paint6_linear_114_263)"/>
<path fill-rule="evenodd" clip-rule="evenodd" d="M174.363 118.199C174.203 118.176 174.04 118.186 173.883 118.227C173.726 118.268 173.579 118.34 173.451 118.438C173.322 118.536 173.214 118.659 173.134 118.799C173.053 118.94 173.001 119.095 172.98 119.255L168.691 153.105C168.651 153.42 168.738 153.739 168.933 153.991C169.127 154.242 169.414 154.406 169.73 154.446C170.045 154.487 170.364 154.4 170.616 154.205C170.867 154.01 171.031 153.724 171.072 153.408L175.404 119.564C175.445 119.245 175.359 118.923 175.164 118.668C174.969 118.412 174.681 118.244 174.363 118.199Z" fill="white"/>
<path fill-rule="evenodd" clip-rule="evenodd" d="M173.74 117.679C173.969 117.618 174.208 117.605 174.442 117.638C174.908 117.703 175.329 117.95 175.615 118.324C175.9 118.698 176.026 119.169 175.967 119.636L171.634 153.479C171.575 153.944 171.333 154.366 170.963 154.653C170.592 154.94 170.123 155.068 169.658 155.008C169.194 154.949 168.772 154.708 168.485 154.337C168.198 153.967 168.07 153.498 168.129 153.033L172.418 119.184C172.448 118.949 172.525 118.722 172.643 118.516C172.761 118.311 172.919 118.131 173.107 117.987C173.295 117.844 173.51 117.739 173.74 117.679ZM174.284 118.76C174.198 118.748 174.111 118.753 174.027 118.775C173.943 118.797 173.864 118.835 173.795 118.888C173.726 118.941 173.668 119.007 173.625 119.082C173.582 119.157 173.554 119.24 173.543 119.326C173.543 119.326 173.543 119.326 173.543 119.326L169.254 153.176C169.232 153.343 169.278 153.511 169.381 153.644C169.484 153.776 169.635 153.863 169.802 153.884C169.968 153.905 170.136 153.86 170.269 153.757C170.402 153.654 170.488 153.503 170.51 153.336L174.842 119.492C174.864 119.321 174.818 119.148 174.713 119.011C174.609 118.874 174.455 118.784 174.284 118.76Z" fill="#E1E4E5"/>
<path fill-rule="evenodd" clip-rule="evenodd" d="M173.872 118.199C174.032 118.176 174.195 118.186 174.352 118.227C174.509 118.268 174.655 118.34 174.784 118.438C174.913 118.536 175.021 118.659 175.101 118.799C175.182 118.94 175.234 119.095 175.255 119.255L179.544 153.105C179.584 153.42 179.497 153.739 179.302 153.991C179.107 154.242 178.821 154.406 178.505 154.446C178.189 154.487 177.871 154.4 177.619 154.205C177.367 154.01 177.204 153.724 177.163 153.408L172.831 119.564C172.79 119.245 172.876 118.923 173.071 118.668C173.266 118.412 173.554 118.244 173.872 118.199ZM160.923 118.199C160.763 118.176 160.6 118.186 160.443 118.227C160.287 118.268 160.14 118.34 160.011 118.438C159.883 118.536 159.775 118.659 159.694 118.799C159.613 118.94 159.561 119.095 159.541 119.255L155.252 153.105C155.23 153.275 155.245 153.448 155.296 153.612C155.347 153.776 155.433 153.927 155.547 154.055C155.661 154.183 155.802 154.285 155.959 154.354C156.116 154.423 156.286 154.457 156.458 154.455C156.747 154.451 157.025 154.343 157.241 154.151C157.456 153.959 157.595 153.695 157.632 153.408L161.965 119.564C162.005 119.245 161.919 118.923 161.724 118.668C161.529 118.412 161.241 118.244 160.923 118.199ZM187.951 118.199C188.112 118.176 188.275 118.186 188.431 118.227C188.588 118.268 188.735 118.34 188.863 118.438C188.992 118.536 189.1 118.659 189.181 118.799C189.261 118.94 189.314 119.095 189.334 119.255L193.623 153.105C193.663 153.42 193.576 153.739 193.382 153.991C193.187 154.242 192.9 154.406 192.584 154.446C192.269 154.487 191.95 154.4 191.699 154.205C191.447 154.01 191.283 153.724 191.243 153.408L186.91 119.564C186.869 119.245 186.956 118.923 187.151 118.668C187.345 118.412 187.633 118.244 187.951 118.199Z" fill="white"/>
<path fill-rule="evenodd" clip-rule="evenodd" d="M174.208 118.775C174.124 118.753 174.037 118.748 173.951 118.76C173.78 118.784 173.626 118.874 173.522 119.011C173.417 119.148 173.371 119.321 173.393 119.492L177.725 153.336L177.725 153.336C177.747 153.503 177.833 153.654 177.966 153.757C178.099 153.86 178.267 153.905 178.433 153.884C178.6 153.863 178.751 153.776 178.854 153.644C178.957 153.511 179.003 153.343 178.981 153.176L178.981 153.176L174.692 119.326C174.692 119.326 174.692 119.326 174.692 119.326C174.681 119.24 174.653 119.157 174.61 119.082C174.567 119.007 174.509 118.941 174.44 118.888C174.371 118.835 174.292 118.797 174.208 118.775ZM173.793 117.638C174.027 117.605 174.266 117.618 174.495 117.679C174.725 117.739 174.94 117.844 175.128 117.987C175.316 118.131 175.474 118.311 175.592 118.516C175.71 118.722 175.787 118.949 175.817 119.184L180.106 153.033C180.106 153.033 180.106 153.033 180.106 153.033C180.165 153.498 180.037 153.967 179.75 154.337C179.463 154.708 179.041 154.949 178.577 155.008C178.112 155.068 177.643 154.94 177.272 154.653C176.902 154.366 176.66 153.944 176.601 153.48C176.601 153.48 176.601 153.479 176.601 153.479L172.268 119.636C172.209 119.169 172.335 118.698 172.62 118.324C172.906 117.95 173.327 117.703 173.793 117.638ZM188.288 118.775C188.204 118.753 188.116 118.748 188.03 118.76C187.86 118.784 187.705 118.874 187.601 119.011C187.496 119.148 187.45 119.321 187.472 119.492C187.472 119.492 187.472 119.492 187.472 119.492L191.805 153.336L191.805 153.336C191.826 153.503 191.912 153.654 192.045 153.757C192.178 153.86 192.346 153.905 192.513 153.884C192.679 153.863 192.831 153.776 192.933 153.644C193.036 153.511 193.082 153.343 193.061 153.176L193.061 153.176L188.772 119.326C188.772 119.326 188.772 119.326 188.772 119.326C188.761 119.24 188.733 119.157 188.689 119.082C188.646 119.007 188.588 118.941 188.519 118.888C188.45 118.835 188.372 118.797 188.288 118.775ZM187.872 117.638C188.107 117.605 188.346 117.618 188.575 117.679C188.804 117.739 189.019 117.844 189.207 117.987C189.396 118.131 189.553 118.311 189.672 118.516C189.79 118.722 189.866 118.949 189.896 119.184L194.185 153.033C194.244 153.498 194.116 153.967 193.83 154.337C193.543 154.708 193.121 154.949 192.656 155.008C192.191 155.068 191.722 154.94 191.352 154.653C190.981 154.366 190.74 153.944 190.681 153.48C190.68 153.48 190.68 153.479 190.68 153.479L186.348 119.636C186.288 119.169 186.415 118.698 186.7 118.324C186.985 117.95 187.406 117.703 187.872 117.638ZM160.299 117.679C160.529 117.618 160.767 117.605 161.002 117.638C161.468 117.703 161.889 117.95 162.174 118.324C162.46 118.698 162.586 119.169 162.527 119.636L158.194 153.479C158.14 153.902 157.935 154.29 157.618 154.574C157.3 154.857 156.891 155.016 156.465 155.022M154.689 153.033L158.979 119.184C158.979 119.184 158.979 119.184 158.979 119.184C159.008 118.949 159.085 118.722 159.203 118.517C159.321 118.311 159.479 118.131 159.667 117.987C159.855 117.844 160.07 117.739 160.299 117.679M160.844 118.76C160.758 118.748 160.671 118.753 160.587 118.775C160.503 118.797 160.424 118.835 160.355 118.888C160.286 118.941 160.228 119.007 160.185 119.082C160.142 119.157 160.114 119.24 160.103 119.326L155.814 153.176C155.802 153.266 155.81 153.357 155.837 153.443C155.864 153.53 155.909 153.61 155.97 153.677C156.03 153.745 156.104 153.798 156.187 153.835C156.27 153.871 156.359 153.89 156.45 153.888L156.451 153.888C156.603 153.886 156.749 153.829 156.863 153.728C156.977 153.626 157.05 153.487 157.069 153.336L161.403 119.492C161.424 119.321 161.378 119.148 161.273 119.011C161.169 118.874 161.015 118.784 160.844 118.76Z" fill="#E1E4E5"/>
<path fill-rule="evenodd" clip-rule="evenodd" d="M157.927 123.755C155.824 123.755 154.119 122.05 154.119 119.948C154.119 117.844 155.824 116.14 157.927 116.14H166.226C172.472 116.14 177.693 111.387 178.279 105.168L179.653 90.5687C180.102 85.8011 184.105 82.1577 188.894 82.1577C194.3 82.1577 198.563 86.7602 198.148 92.1509L196.723 110.675C196.155 118.056 190.001 123.755 182.598 123.755H157.927Z" fill="white"/>
<path fill-rule="evenodd" clip-rule="evenodd" d="M188.894 82.7242C184.398 82.7242 180.64 86.1451 180.218 90.6217L178.843 105.221C178.23 111.731 172.765 116.706 166.226 116.706H157.927C156.137 116.706 154.686 118.157 154.686 119.947C154.686 121.737 156.137 123.188 157.927 123.188H182.598C189.705 123.188 195.613 117.717 196.158 110.632L197.583 92.1072C197.972 87.0456 193.971 82.7242 188.894 82.7242ZM179.09 90.5154C179.566 85.4566 183.813 81.5908 188.894 81.5908C194.631 81.5908 199.153 86.4743 198.713 92.1941L197.288 110.718C196.698 118.394 190.297 124.322 182.598 124.322H157.927C155.511 124.322 153.553 122.363 153.553 119.947C153.553 117.531 155.511 115.573 157.927 115.573H166.226C172.18 115.573 177.157 111.043 177.715 105.115L179.09 90.5154Z" fill="#E1E4E5"/>
<path fill-rule="evenodd" clip-rule="evenodd" d="M154.119 119.856C154.119 119.889 154.146 119.916 154.179 119.916H178.761C186.163 119.916 192.317 114.218 192.886 106.838L194.308 88.4052C194.337 88.0267 194.343 87.6467 194.327 87.2674C194.205 84.5335 191.935 82.277 189.2 82.1654C189.072 82.1603 188.943 82.1577 188.815 82.1577C184.039 82.1577 180.046 85.7909 179.597 90.5461L178.223 105.1C177.637 111.303 172.428 116.043 166.198 116.043H157.917C155.82 116.043 154.119 117.744 154.119 119.841V119.856Z" fill="white"/>
<path d="M178.761 119.349H154.179V120.482H178.761V119.349ZM192.321 106.794C191.775 113.879 185.867 119.349 178.761 119.349V120.482C186.459 120.482 192.859 114.556 193.451 106.882L192.321 106.794ZM193.743 88.3614L192.321 106.794L193.451 106.882L194.873 88.4483L193.743 88.3614ZM193.761 87.2923C193.776 87.6487 193.771 88.0057 193.743 88.3614L194.873 88.4483C194.904 88.047 194.911 87.6441 194.893 87.2419L193.761 87.2923ZM188.815 82.7242C188.937 82.7242 189.057 82.7264 189.177 82.7315L189.224 81.599C189.087 81.5936 188.951 81.5909 188.815 81.5908V82.7242ZM180.161 90.5991C180.583 86.1349 184.331 82.7242 188.815 82.7242V81.5908C183.746 81.5908 179.51 85.4464 179.033 90.4923L180.161 90.5991ZM178.787 105.153L180.161 90.5991L179.033 90.4923L177.659 105.047L178.787 105.153ZM166.198 116.609C172.721 116.609 178.174 111.647 178.787 105.153L177.659 105.047C177.101 110.959 172.137 115.476 166.198 115.476V116.609ZM157.917 116.609H166.198V115.476H157.917V116.609ZM154.686 119.841C154.686 118.056 156.133 116.609 157.917 116.609V115.476C155.507 115.476 153.553 117.43 153.553 119.841H154.686ZM154.686 119.854V119.841H153.553V119.858L154.686 119.854ZM194.893 87.2419C194.758 84.2134 192.251 81.7226 189.224 81.599L189.177 82.7315C191.619 82.831 193.652 84.8534 193.761 87.2923L194.893 87.2419ZM154.179 119.349C154.313 119.349 154.442 119.402 154.537 119.497C154.632 119.591 154.686 119.72 154.686 119.854L153.553 119.858C153.553 120.024 153.62 120.182 153.737 120.299C153.854 120.416 154.013 120.482 154.179 120.482V119.349Z" fill="#E1E4E5"/>
<path fill-rule="evenodd" clip-rule="evenodd" d="M151.504 141.492C151.504 141.492 153.625 145.776 151.886 147.126C150.145 148.476 145.545 151.007 145.545 151.007L157.731 150.241L155.022 140.897L151.504 141.492Z" fill="#F8AE9D"/>
<path fill-rule="evenodd" clip-rule="evenodd" d="M156.523 145.368C156.14 145.551 156.77 147.273 155.421 147.152C154.072 147.031 153.225 145.252 152.23 145.367C151.235 145.482 150.604 147.274 148.71 148.522C146.816 149.77 144.008 151.259 144.196 152.514C144.384 153.769 148.803 154.105 151.042 153.689C153.28 153.274 154.325 152.374 155.778 152.446C157.23 152.518 158.143 152.34 158.598 151.408C159.053 150.475 156.966 145.157 156.523 145.368ZM169.861 103.734C166.171 103.899 145.637 108.44 141.907 109.212C138.176 109.984 135.022 114.159 137.867 118.993C141.062 124.421 149.306 139.833 151.308 143.308C152.298 145.027 157.296 144.063 156.122 141.177C153.934 135.796 152.918 122.279 147.338 117.351C147.338 117.351 166.102 120.617 174.208 116.876C180.099 114.156 178.766 103.336 169.861 103.734Z" fill="#3F6F3E"/>
<path fill-rule="evenodd" clip-rule="evenodd" d="M144.124 80.7049C144.124 80.7049 144.166 78.5116 143.116 76.9428C142.066 75.3739 142.024 73.7074 141.23 73.7621C140.435 73.8165 141.222 77.6899 141.222 77.6899C141.222 77.6899 140.214 77.3046 139.489 76.8175C138.765 76.3302 136.568 73.9281 136.055 74.3537C135.185 75.079 136.586 79.1703 137.35 79.9883C138.116 80.8063 141.896 83.0925 141.896 83.0925L153.029 94.3083L154.694 88.3543L144.124 80.7049Z" fill="#F8AE9D"/>
<path fill-rule="evenodd" clip-rule="evenodd" d="M166.392 79.7146C164.676 83.6951 161.534 91.0074 160.238 93.1891C158.615 95.9213 156.054 97.1251 153.057 95.0979C152.43 94.6737 150.629 93.1902 150.629 93.1902C150.896 90.5937 151.866 88.4234 153.538 86.6784L154.673 87.6179C154.673 87.6179 157.894 79.3616 160.485 74.5789C162.729 70.4408 169.004 73.6632 166.392 79.7146ZM173.81 64.2636V67.7857L176.396 65.7032C176.396 65.7032 177.191 62.3284 177.838 59.822C178.243 58.2504 179.231 52.9311 175.254 53.1801C171.996 47.4373 162.508 50.9917 162.433 58.0079C162.342 66.4467 162.416 69.7322 162.416 69.7322C167.781 70.0402 170.801 69.2644 173.81 64.2636Z" fill="#3F6F3E"/>
<path fill-rule="evenodd" clip-rule="evenodd" d="M176.451 70.9696C176.451 70.9696 174.045 70.4046 173.962 66.462C173.879 62.5194 173.937 61.1736 173.937 61.1736L168.637 61.0781C168.637 61.0781 168.579 65.4721 168.578 67.0613C168.576 70.9257 165.734 71.2424 165.734 71.2424C165.734 71.2424 166.22 74.4305 171.023 74.7008C174.772 74.9119 176.451 70.9696 176.451 70.9696Z" fill="#F8AE9D"/>
<path fill-rule="evenodd" clip-rule="evenodd" d="M175.173 59.205C177.537 59.1135 177.151 62.5747 174.695 62.5699C174.695 62.5699 173.269 67.4869 168.316 67.4869C164.294 67.4869 164.032 61.7562 163.996 60.6129C163.956 59.394 163.951 55.3897 163.951 55.3897L175.265 55.3843L175.173 59.205Z" fill="#F8AE9D"/>
<path fill-rule="evenodd" clip-rule="evenodd" d="M175.355 59.1826C174.376 59.3441 174.495 59.9929 174.228 59.9363C172.875 59.6484 167.399 60.0281 166.694 57.0165C165.816 58.8978 165.602 59.3605 163.67 59.8654V54.3523L175.89 53.1802C175.89 53.1802 175.7 59.1254 175.355 59.1826Z" fill="#3F6F3E"/>
<path fill-rule="evenodd" clip-rule="evenodd" d="M175.914 70.5659C172.894 72.4155 169.403 73.0935 166.154 71.085C160.851 81.5417 159.529 94.018 160.805 107.807C168.538 110.869 175.037 110.267 180.57 106.767L175.914 70.5659Z" fill="#81DC7F"/>
<path fill-rule="evenodd" clip-rule="evenodd" d="M138.285 141.664C138.285 141.664 138.349 146.706 134.194 148.592C130.042 150.477 127.083 150.363 127.46 151.82C127.837 153.278 138.644 153.219 139.654 152.079C140.514 151.11 142.384 142.081 142.899 142.771L138.285 141.664Z" fill="#F8AE9D"/>
<path fill-rule="evenodd" clip-rule="evenodd" d="M141.302 148.784C140.665 148.326 140.13 150.968 138.4 150.234C136.671 149.499 138.035 147.071 136.946 146.623C135.858 146.175 133.756 148.583 130.964 149.168C128.173 149.753 125.906 150.265 125.262 151.352C124.707 152.286 125.262 152.584 125.262 152.584C125.262 152.584 127.95 153.926 129.62 154.222C132.045 154.651 139.056 154.936 139.824 154.154C140.296 153.674 141.62 149.014 141.302 148.784ZM181.421 102.175C181.421 102.175 186.784 113.503 179.247 117.393C171.957 121.154 150.134 116.705 150.134 116.705C150.134 116.705 150.524 119.845 150.134 122.645C149.116 129.958 144.272 142.142 143.247 143.673C141.83 145.79 137.513 144.193 137.432 142.43C137.351 140.668 140.686 118.153 141.193 113.86C141.698 109.566 143.291 108.942 147.945 107.769C149.014 107.499 161.656 104.357 162.814 104.449C172.765 105.236 181.421 102.175 181.421 102.175Z" fill="#3F6F3E"/>
<path fill-rule="evenodd" clip-rule="evenodd" d="M175.783 70.5745C170.782 86.9565 167.783 110.182 183.401 106.141C175.105 90.8657 186.383 83.9903 183.827 76.0955C182.953 73.3965 175.848 70.3625 175.783 70.5745ZM166.419 70.9703C164.511 75.7569 163.594 79.5125 162.738 86.5383C162.024 92.39 162.381 104.465 162.381 104.465L160.023 104.929C160.023 104.929 158.337 86.2734 158.9 83.8713C159.846 79.8406 160.487 77.4855 161.736 73.8008C162.424 71.7784 166.419 70.9703 166.419 70.9703Z" fill="#3F6F3E"/>
<path fill-rule="evenodd" clip-rule="evenodd" d="M174.733 89.1724C174.733 89.1724 171.653 86.0895 170.587 85.7316C169.521 85.3738 163.68 84.9439 163.719 85.7526C163.764 86.6187 167.523 86.5688 167.87 86.995C168.218 87.4208 168.701 90.7375 170.015 91.0648C171.326 91.3918 174.044 92.3596 174.044 92.3596L186.144 98.6114L184.854 92.3602L174.733 89.1724Z" fill="#F8AE9D"/>
<path fill-rule="evenodd" clip-rule="evenodd" d="M184 76.1186C187.67 81.2982 190.804 89.1884 192.007 92.2643C193.209 95.3405 191.996 99.9803 186.707 99.0694C186.077 98.9609 185.053 98.5625 185.053 98.5625C183.109 95.8966 182.767 93.6079 183.493 91.5701L184.177 91.8589C184.177 91.8589 178.921 82.5415 177.637 80.0436C175.493 75.8724 180.767 71.5546 184 76.1186Z" fill="#3F6F3E"/>
<path d="M168.799 153.931C168.359 153.931 167.932 153.781 167.589 153.506C167.245 153.231 167.006 152.847 166.91 152.417L156.479 105.625C156.209 104.415 157.13 103.267 158.369 103.267C158.81 103.267 159.237 103.417 159.581 103.692C159.924 103.968 160.164 104.352 160.259 104.782L170.688 151.575C170.958 152.784 170.038 153.931 168.799 153.931ZM87.8639 153.931C88.3039 153.931 88.7308 153.781 89.0742 153.506C89.4175 153.231 89.6568 152.847 89.7526 152.417L100.185 105.623C100.454 104.414 99.5346 103.267 98.2959 103.267C97.8559 103.267 97.4289 103.417 97.0856 103.692C96.7422 103.967 96.503 104.351 96.4072 104.781L85.9749 151.575C85.7054 152.784 86.6251 153.931 87.8639 153.931Z" fill="white"/>
<path fill-rule="evenodd" clip-rule="evenodd" d="M96.7297 103.25C97.1736 102.894 97.7255 102.7 98.2944 102.7H98.2945C99.8959 102.7 101.085 104.183 100.737 105.746L100.737 105.746L90.3042 152.54C90.1804 153.095 89.8711 153.592 89.4272 153.948C88.9833 154.304 88.4314 154.498 87.8624 154.498C86.261 154.498 85.072 153.014 85.4203 151.451L85.4203 151.451L95.8527 104.657C95.9764 104.102 96.2858 103.605 96.7297 103.25ZM98.2945 103.833C97.9833 103.833 97.6814 103.939 97.4386 104.134C97.1958 104.328 97.0266 104.6 96.9588 104.904L96.9588 104.904L86.5265 151.698C86.336 152.553 86.9863 153.364 87.8624 153.364C88.1736 153.364 88.4755 153.258 88.7183 153.063C88.9611 152.869 89.1303 152.597 89.198 152.293L89.7511 152.417L89.198 152.293L99.6303 105.499C99.8209 104.645 99.1705 103.833 98.2945 103.833M158.368 103.833C157.491 103.833 156.839 104.645 157.03 105.502L167.462 152.293C167.53 152.597 167.699 152.869 167.942 153.064C168.184 153.258 168.486 153.364 168.798 153.364C169.674 153.364 170.324 152.553 170.134 151.698L159.705 104.905C159.637 104.601 159.468 104.329 159.225 104.134C158.982 103.939 158.679 103.833 158.368 103.833ZM155.924 105.748C155.576 104.184 156.765 102.7 158.368 102.7C158.937 102.7 159.489 102.894 159.934 103.25C160.378 103.606 160.687 104.103 160.811 104.659L171.24 151.451C171.588 153.014 170.399 154.498 168.798 154.498C168.229 154.498 167.677 154.304 167.233 153.948C166.789 153.592 166.479 153.095 166.356 152.54L155.924 105.748Z" fill="#E1E4E5"/>
<path fill-rule="evenodd" clip-rule="evenodd" d="M87.5859 103.353V101.593C87.5859 100.583 88.1019 99.7644 88.736 99.7593H168.646C169.283 99.7593 169.796 100.583 169.796 101.593V103.353C169.796 104.368 169.28 105.187 168.646 105.187H166.107C165.597 105.187 165.108 105.389 164.748 105.75C164.387 106.11 164.185 106.599 164.185 107.109C164.184 107.185 164.169 107.261 164.14 107.331C164.11 107.402 164.067 107.466 164.013 107.52C163.958 107.574 163.894 107.617 163.823 107.646C163.752 107.675 163.677 107.689 163.6 107.689H91.6716C91.5176 107.689 91.3699 107.628 91.2609 107.519C91.1519 107.41 91.0906 107.263 91.0905 107.109C91.0905 106.856 91.0408 106.606 90.9441 106.373C90.8475 106.14 90.7059 105.928 90.5274 105.749C90.3489 105.571 90.137 105.429 89.9037 105.333C89.6705 105.236 89.4205 105.186 89.1681 105.187H88.736C88.0985 105.187 87.5859 104.368 87.5859 103.353Z" fill="white"/>
<path d="M88.7362 99.7595L88.7317 99.1929H88.7362V99.7595ZM88.1529 101.593V103.353H87.0195V101.593H88.1529ZM88.7405 100.326C88.6858 100.327 88.5518 100.365 88.4033 100.601C88.26 100.829 88.1529 101.178 88.1529 101.593H87.0195C87.0195 100.998 87.1706 100.433 87.4437 99.9981C87.7117 99.5711 88.1526 99.1974 88.7317 99.1929L88.7405 100.326ZM168.646 100.326H88.7362V99.1929H168.646V100.326ZM169.229 101.593C169.229 101.178 169.122 100.827 168.979 100.598C168.832 100.362 168.699 100.326 168.646 100.326V99.1929C169.23 99.1929 169.672 99.5691 169.94 99.9973C170.213 100.433 170.363 100.999 170.363 101.593H169.229ZM169.229 103.353V101.593H170.363V103.353H169.229ZM168.646 104.62C168.698 104.62 168.831 104.585 168.979 104.349C169.122 104.121 169.229 103.771 169.229 103.353H170.363C170.363 103.95 170.212 104.517 169.938 104.952C169.67 105.379 169.228 105.753 168.646 105.753V104.62ZM166.107 104.62H168.646V105.753H166.107V104.62ZM163.6 107.123C163.603 107.123 163.606 107.122 163.609 107.121C163.611 107.12 163.613 107.119 163.614 107.117C163.616 107.116 163.617 107.115 163.617 107.113C163.618 107.113 163.618 107.112 163.618 107.109H164.751C164.751 107.748 164.232 108.256 163.6 108.256V107.123ZM91.6719 107.123H163.6V108.256H91.6719V107.123ZM91.6574 107.109C91.6574 107.112 91.6577 107.113 91.6583 107.114C91.6586 107.115 91.6597 107.117 91.6614 107.118C91.6627 107.12 91.6643 107.121 91.6662 107.122C91.668 107.122 91.6699 107.123 91.6719 107.123V108.256C91.3676 108.256 91.0757 108.135 90.8605 107.92C90.6452 107.705 90.5242 107.413 90.5241 107.109H91.6574ZM88.7362 104.62H89.1683V105.753H88.7362V104.62ZM88.1529 103.353C88.1529 103.772 88.2597 104.122 88.4025 104.35C88.5495 104.584 88.6816 104.62 88.7362 104.62V105.753C88.1534 105.753 87.7106 105.38 87.442 104.951C87.1691 104.516 87.0195 103.949 87.0195 103.353H88.1529ZM90.5241 107.109C90.5241 106.931 90.489 106.755 90.4209 106.59C90.3527 106.426 90.2529 106.276 90.127 106.15C90.0011 106.024 89.8516 105.925 89.6871 105.857C89.5226 105.788 89.3464 105.753 89.1683 105.753V104.62C89.4952 104.62 89.8189 104.684 90.1208 104.809C90.4228 104.935 90.6972 105.118 90.9284 105.349C91.1595 105.58 91.3428 105.854 91.4679 106.156C91.593 106.458 91.6574 106.782 91.6574 107.109H90.5241ZM166.107 105.753C165.747 105.753 165.403 105.896 165.148 106.15C164.894 106.405 164.751 106.749 164.751 107.109H163.618C163.618 106.449 163.88 105.816 164.347 105.349C164.814 104.882 165.447 104.62 166.107 104.62V105.753Z" fill="#E1E4E5"/>
<path d="M134.049 14.4502H89.7057C86.5761 14.4502 84.0391 16.9872 84.0391 20.1169V76.5237C84.0391 79.6533 86.5761 82.1904 89.7057 82.1904H134.049C137.179 82.1904 139.716 79.6533 139.716 76.5237V20.1169C139.716 16.9872 137.179 14.4502 134.049 14.4502Z" fill="white"/>
<path fill-rule="evenodd" clip-rule="evenodd" d="M89.706 15.0166C86.8893 15.0166 84.606 17.3 84.606 20.1166V76.5235C84.606 79.3401 86.8893 81.6235 89.706 81.6235H134.05C136.866 81.6235 139.15 79.3401 139.15 76.5235V20.1166C139.15 17.3 136.866 15.0166 134.05 15.0166H89.706ZM83.4727 20.1166C83.4727 16.6741 86.2634 13.8833 89.706 13.8833H134.05C137.492 13.8833 140.283 16.6741 140.283 20.1166V76.5235C140.283 79.9661 137.492 82.7568 134.05 82.7568H89.706C86.2634 82.7568 83.4727 79.9661 83.4727 76.5235V20.1166Z" fill="#E1E4E5"/>
<mask id="mask0_114_263" style="mask-type:alpha" maskUnits="userSpaceOnUse" x="83" y="13" width="58" height="70">
<path d="M84.0391 14.4502H139.716V82.1904H84.0391V14.4502Z" fill="white"/>
<path fill-rule="evenodd" clip-rule="evenodd" d="M83.4727 14.45C83.4727 14.137 83.7264 13.8833 84.0393 13.8833H139.716C140.029 13.8833 140.283 14.137 140.283 14.45V82.1902C140.283 82.5031 140.029 82.7568 139.716 82.7568H84.0393C83.7264 82.7568 83.4727 82.5031 83.4727 82.1902V14.45ZM84.606 15.0166V81.6235H139.15V15.0166H84.606Z" fill="white"/>
</mask>
<g mask="url(#mask0_114_263)">
<path d="M124.948 56.9497H98.8818C97.7864 56.9497 96.8984 57.8377 96.8984 58.933C96.8984 60.0284 97.7864 60.9164 98.8818 60.9164H124.948C126.044 60.9164 126.932 60.0284 126.932 58.933C126.932 57.8377 126.044 56.9497 124.948 56.9497Z" fill="white"/>
<path fill-rule="evenodd" clip-rule="evenodd" d="M98.882 57.5166C98.0996 57.5166 97.4654 58.1509 97.4654 58.9333C97.4654 59.7157 98.0996 60.35 98.882 60.35H124.949C125.731 60.35 126.365 59.7157 126.365 58.9333C126.365 58.1509 125.731 57.5166 124.949 57.5166H98.882ZM96.332 58.9333C96.332 57.525 97.4737 56.3833 98.882 56.3833H124.949C126.357 56.3833 127.499 57.525 127.499 58.9333C127.499 60.3416 126.357 61.4833 124.949 61.4833H98.882C97.4737 61.4833 96.332 60.3416 96.332 58.9333Z" fill="#E1E4E5"/>
<path d="M124.665 48.4497H99.1651C97.9133 48.4497 96.8984 49.4645 96.8984 50.7164C96.8984 51.9682 97.9133 52.983 99.1651 52.983H124.665C125.917 52.983 126.932 51.9682 126.932 50.7164C126.932 49.4645 125.917 48.4497 124.665 48.4497Z" fill="white"/>
<path fill-rule="evenodd" clip-rule="evenodd" d="M99.1654 49.0166C98.2265 49.0166 97.4654 49.7777 97.4654 50.7166C97.4654 51.6555 98.2265 52.4166 99.1654 52.4166H124.665C125.604 52.4166 126.365 51.6555 126.365 50.7166C126.365 49.7777 125.604 49.0166 124.665 49.0166H99.1654ZM96.332 50.7166C96.332 49.1518 97.6006 47.8833 99.1654 47.8833H124.665C126.23 47.8833 127.499 49.1518 127.499 50.7166C127.499 52.2814 126.23 53.55 124.665 53.55H99.1654C97.6006 53.55 96.332 52.2814 96.332 50.7166Z" fill="#E1E4E5"/>
<path d="M119.565 64.5996H104.265C103.013 64.5996 101.998 65.6144 101.998 66.8663C101.998 68.1181 103.013 69.1329 104.265 69.1329H119.565C120.817 69.1329 121.831 68.1181 121.831 66.8663C121.831 65.6144 120.817 64.5996 119.565 64.5996Z" fill="white"/>
<path fill-rule="evenodd" clip-rule="evenodd" d="M104.265 65.1665C103.326 65.1665 102.565 65.9277 102.565 66.8665C102.565 67.8054 103.326 68.5665 104.265 68.5665H119.565C120.504 68.5665 121.265 67.8054 121.265 66.8665C121.265 65.9277 120.504 65.1665 119.565 65.1665H104.265ZM101.432 66.8665C101.432 65.3017 102.7 64.0332 104.265 64.0332H119.565C121.13 64.0332 122.398 65.3017 122.398 66.8665C122.398 68.4313 121.13 69.6999 119.565 69.6999H104.265C102.7 69.6999 101.432 68.4313 101.432 66.8665Z" fill="#E1E4E5"/>
<path fill-rule="evenodd" clip-rule="evenodd" d="M111.915 20.6831C117.705 20.6831 122.398 25.3768 122.398 31.1664C122.398 36.9564 117.705 41.6498 111.915 41.6498C106.125 41.6498 101.432 36.9564 101.432 31.1664C101.432 25.3768 106.125 20.6831 111.915 20.6831ZM112.057 26.3498C109.318 26.3498 107.098 28.5697 107.098 31.3081C107.098 34.0465 109.318 36.2664 112.057 36.2664C114.795 36.2664 117.015 34.0465 117.015 31.3081C117.015 28.5697 114.795 26.3498 112.057 26.3498Z" fill="#81DC7F"/>
</g>
<path fill-rule="evenodd" clip-rule="evenodd" d="M60.0818 140.194H60.7655C60.9307 140.194 61.0639 140.328 61.0639 140.492V141.176C61.0639 141.341 60.9296 141.475 60.7655 141.475H60.0818C60.0028 141.474 59.927 141.443 59.8711 141.387C59.8152 141.331 59.7836 141.255 59.7832 141.176V140.492C59.7831 140.453 59.7908 140.414 59.8058 140.378C59.8208 140.342 59.8428 140.309 59.8705 140.281C59.8983 140.253 59.9312 140.231 59.9675 140.216C60.0038 140.201 60.0426 140.194 60.0818 140.194ZM62.4525 140.194H63.1362C63.2999 140.194 63.4345 140.328 63.4345 140.492V141.176C63.4345 141.341 63.2999 141.475 63.1362 141.475H62.4525C62.3734 141.474 62.2977 141.443 62.2418 141.387C62.1858 141.331 62.1542 141.255 62.1539 141.176V140.492C62.1539 140.328 62.2884 140.194 62.4525 140.194ZM64.8248 140.194H65.5085C65.6723 140.194 65.8069 140.328 65.8069 140.492V141.176C65.8069 141.341 65.6723 141.475 65.5085 141.475H64.8248C64.7458 141.474 64.67 141.443 64.6141 141.387C64.5582 141.331 64.5266 141.255 64.5262 141.176V140.492C64.5261 140.453 64.5338 140.414 64.5488 140.378C64.5638 140.342 64.5858 140.309 64.6135 140.281C64.6413 140.253 64.6742 140.231 64.7105 140.216C64.7468 140.201 64.7856 140.194 64.8248 140.194ZM67.1955 140.194H67.8792C68.0432 140.194 68.1775 140.328 68.1775 140.492V141.176C68.1775 141.341 68.0432 141.475 67.8792 141.475H67.1955C67.1162 141.475 67.0401 141.443 66.9839 141.387C66.9277 141.331 66.8959 141.255 66.8954 141.176V140.492C66.8963 140.413 66.9283 140.337 66.9844 140.282C67.0405 140.226 67.1163 140.194 67.1955 140.194Z" fill="#E1E4E5"/>
<path fill-rule="evenodd" clip-rule="evenodd" d="M98.8906 138.267H100.855C101.083 138.267 101.302 138.357 101.463 138.518C101.625 138.679 101.716 138.897 101.717 139.125V141.091C101.716 141.204 101.694 141.316 101.651 141.42C101.607 141.525 101.544 141.62 101.464 141.699C101.384 141.779 101.289 141.842 101.184 141.885C101.08 141.928 100.968 141.95 100.855 141.95H98.8906C98.6633 141.949 98.4457 141.858 98.2851 141.697C98.1245 141.536 98.0339 141.319 98.0332 141.091V139.125C98.0339 138.898 98.1245 138.68 98.2851 138.519C98.4457 138.358 98.6633 138.268 98.8906 138.267Z" fill="url(#paint7_linear_114_263)"/>
<path fill-rule="evenodd" clip-rule="evenodd" d="M62.5403 142.779H63.2239C63.388 142.779 63.5223 142.914 63.5223 143.077V143.763C63.5223 143.927 63.388 144.061 63.2239 144.061H62.5403C62.4611 144.061 62.3852 144.03 62.3293 143.974C62.2733 143.918 62.2418 143.842 62.2416 143.763V143.079C62.2414 143.039 62.249 143 62.2639 142.964C62.2788 142.928 62.3008 142.895 62.3285 142.867C62.3563 142.839 62.3893 142.817 62.4256 142.802C62.462 142.787 62.5009 142.779 62.5403 142.779ZM64.9109 142.779H65.5946C65.7586 142.779 65.8929 142.914 65.8929 143.077V143.763C65.8929 143.927 65.7586 144.061 65.5946 144.061H64.9109C64.8318 144.061 64.7561 144.029 64.7002 143.973C64.6442 143.918 64.6126 143.842 64.6123 143.763V143.079C64.612 143.039 64.6196 143 64.6345 142.964C64.6494 142.928 64.6714 142.895 64.6992 142.867C64.7269 142.839 64.7599 142.817 64.7963 142.802C64.8326 142.787 64.8716 142.779 64.9109 142.779ZM67.2816 142.779H67.9655C68.1307 142.779 68.2653 142.914 68.2653 143.077V143.763C68.2653 143.927 68.1307 144.061 67.9655 144.061H67.2816C67.2025 144.061 67.1269 144.029 67.071 143.973C67.0151 143.917 66.9836 143.842 66.9832 143.763V143.079C66.9832 142.914 67.1178 142.779 67.2816 142.779ZM64.8256 137.417H65.5093C65.6731 137.417 65.8076 137.551 65.8076 137.715V138.399C65.8076 138.564 65.6731 138.697 65.5093 138.697H64.8256C64.7466 138.697 64.6708 138.666 64.6149 138.61C64.559 138.554 64.5274 138.478 64.527 138.399V137.715C64.5269 137.676 64.5346 137.637 64.5496 137.601C64.5646 137.564 64.5866 137.532 64.6143 137.504C64.6421 137.476 64.675 137.454 64.7113 137.439C64.7475 137.424 64.7864 137.417 64.8256 137.417ZM67.1963 137.417H67.88C68.044 137.417 68.1783 137.551 68.1783 137.715V138.399C68.1783 138.564 68.044 138.697 67.88 138.697H67.1963C67.117 138.697 67.0409 138.666 66.9847 138.61C66.9285 138.554 66.8967 138.478 66.8962 138.399V137.715C66.8971 137.636 66.9291 137.56 66.9852 137.504C67.0413 137.449 67.1171 137.417 67.1963 137.417ZM45.7581 93.1965H46.7297C46.9649 93.1965 47.1538 93.3878 47.1538 93.6207V94.5923C47.1538 94.8274 46.9629 95.0164 46.7297 95.0164H45.7581C45.6458 95.016 45.5382 94.9711 45.4587 94.8917C45.3793 94.8122 45.3344 94.7046 45.334 94.5923V93.6207C45.3339 93.565 45.3448 93.5098 45.366 93.4583C45.3873 93.4067 45.4186 93.3599 45.458 93.3205C45.4974 93.2811 45.5442 93.2499 45.5957 93.2286C45.6472 93.2073 45.7024 93.1964 45.7581 93.1965ZM49.127 93.1965H50.0985C50.3317 93.1965 50.5227 93.3878 50.5227 93.6207V94.5923C50.5227 94.8274 50.3317 95.0164 50.0985 95.0164H49.127C49.0146 95.016 48.907 94.9711 48.8275 94.8917C48.7481 94.8122 48.7033 94.7046 48.7028 94.5923V93.6207C48.7028 93.3878 48.8941 93.1965 49.127 93.1965ZM52.4981 93.1965H53.4699C53.7028 93.1965 53.8941 93.3878 53.8941 93.6207V94.5923C53.8941 94.8274 53.7028 95.0164 53.4699 95.0164H52.4981C52.3857 95.016 52.2781 94.9711 52.1986 94.8917C52.1192 94.8122 52.0744 94.7046 52.0739 94.5923V93.6207C52.0738 93.565 52.0847 93.5098 52.106 93.4583C52.1273 93.4067 52.1585 93.3599 52.1979 93.3205C52.2373 93.2811 52.2841 93.2499 52.3356 93.2286C52.3871 93.2073 52.4423 93.1964 52.4981 93.1965ZM55.8669 93.1965H56.8387C57.0716 93.1965 57.2629 93.3878 57.2629 93.6207V94.5923C57.2629 94.8274 57.0716 95.0164 56.8387 95.0164H55.8669C55.7543 95.0164 55.6462 94.9718 55.5664 94.8923C55.4866 94.8128 55.4415 94.7049 55.4411 94.5923V93.6207C55.4422 93.5083 55.4875 93.4008 55.5672 93.3215C55.6468 93.2422 55.7545 93.1973 55.8669 93.1965ZM59.2363 93.1965H60.2079C60.4427 93.1965 60.634 93.3878 60.634 93.6207V94.5923C60.6339 94.6481 60.6228 94.7033 60.6013 94.7549C60.5798 94.8064 60.5484 94.8532 60.5088 94.8926C60.4692 94.932 60.4223 94.9632 60.3706 94.9845C60.319 95.0057 60.2637 95.0165 60.2079 95.0164H59.2363C59.1239 95.016 59.0163 94.9712 58.9368 94.8918C58.8573 94.8123 58.8125 94.7046 58.8122 94.5923V93.6207C58.8122 93.3878 59.0031 93.1965 59.2363 93.1965ZM49.2505 96.8702H50.2223C50.4552 96.8702 50.6465 97.0612 50.6465 97.2944V98.2679C50.6465 98.5008 50.4552 98.6921 50.2223 98.6921H49.2505C49.1381 98.6919 49.0303 98.6472 48.9508 98.5677C48.8714 98.4882 48.8267 98.3804 48.8266 98.2679V97.2964C48.8263 97.2405 48.837 97.1851 48.8581 97.1334C48.8792 97.0817 48.9104 97.0346 48.9498 96.995C48.9892 96.9554 49.0361 96.924 49.0877 96.9026C49.1393 96.8812 49.1946 96.8702 49.2505 96.8702ZM52.6193 96.8702H53.5912C53.8241 96.8702 54.0153 97.0612 54.0153 97.2944V98.2679C54.0153 98.5008 53.8241 98.6921 53.5912 98.6921H52.6193C52.507 98.6916 52.3994 98.6468 52.3199 98.5674C52.2405 98.4879 52.1956 98.3803 52.1952 98.2679V97.2964C52.1948 97.2405 52.2056 97.1851 52.2267 97.1334C52.2479 97.0817 52.2791 97.0346 52.3185 96.995C52.358 96.9554 52.4048 96.924 52.4565 96.9026C52.5081 96.8812 52.5634 96.8702 52.6193 96.8702ZM55.9885 96.8702H56.9603C57.1952 96.8702 57.3864 97.0612 57.3864 97.2944V98.2679C57.3864 98.5008 57.1952 98.6921 56.9603 98.6921H55.9885C55.8761 98.6916 55.7685 98.6468 55.689 98.5674C55.6096 98.4879 55.5647 98.3803 55.5643 98.2679V97.2964C55.5643 97.0612 55.7556 96.8702 55.9885 96.8702ZM52.4981 89.25H53.4699C53.7028 89.25 53.8941 89.4413 53.8941 89.6742V90.6457C53.8941 90.8809 53.7028 91.0699 53.4699 91.0699H52.4981C52.3857 91.0694 52.2781 91.0246 52.1986 90.9451C52.1192 90.8657 52.0744 90.7581 52.0739 90.6457V89.6742C52.0738 89.6184 52.0847 89.5632 52.106 89.5117C52.1273 89.4602 52.1585 89.4134 52.1979 89.374C52.2373 89.3346 52.2841 89.3033 52.3356 89.2821C52.3871 89.2608 52.4423 89.2499 52.4981 89.25ZM55.8669 89.25H56.8387C57.0716 89.25 57.2629 89.4413 57.2629 89.6742V90.6457C57.2629 90.8809 57.0716 91.0699 56.8387 91.0699H55.8669C55.7543 91.0699 55.6462 91.0252 55.5664 90.9457C55.4866 90.8662 55.4415 90.7583 55.4411 90.6457V89.6742C55.4422 89.5617 55.4875 89.4543 55.5672 89.3749C55.6468 89.2956 55.7545 89.2507 55.8669 89.25ZM199.23 126.603H199.986C200.169 126.603 200.316 126.751 200.316 126.933V127.688C200.316 127.871 200.167 128.018 199.986 128.018H199.23C199.143 128.018 199.059 127.983 198.998 127.921C198.936 127.86 198.901 127.776 198.901 127.688V126.933C198.901 126.889 198.909 126.846 198.926 126.806C198.942 126.766 198.966 126.73 198.997 126.699C199.028 126.669 199.064 126.644 199.104 126.628C199.144 126.611 199.187 126.603 199.23 126.603ZM201.851 126.603H202.606C202.788 126.603 202.936 126.751 202.936 126.933V127.688C202.936 127.871 202.788 128.018 202.606 128.018H201.851C201.763 128.018 201.68 127.983 201.618 127.921C201.556 127.86 201.521 127.776 201.521 127.688V126.933C201.521 126.751 201.67 126.603 201.851 126.603ZM204.473 126.603H205.229C205.41 126.603 205.558 126.751 205.558 126.933V127.688C205.558 127.871 205.41 128.018 205.229 128.018H204.473C204.385 128.018 204.302 127.983 204.24 127.921C204.178 127.86 204.143 127.776 204.143 127.688V126.933C204.143 126.889 204.151 126.846 204.168 126.806C204.184 126.766 204.209 126.73 204.239 126.699C204.27 126.669 204.306 126.644 204.346 126.628C204.386 126.611 204.429 126.603 204.473 126.603ZM207.093 126.603H207.849C208.03 126.603 208.179 126.751 208.179 126.933V127.688C208.179 127.871 208.03 128.018 207.849 128.018H207.093C207.005 128.018 206.921 127.984 206.859 127.922C206.797 127.86 206.762 127.776 206.762 127.688V126.933C206.763 126.751 206.912 126.603 207.093 126.603ZM209.714 126.603H210.469C210.652 126.603 210.801 126.751 210.801 126.933V127.688C210.801 127.871 210.652 128.018 210.469 128.018H209.714C209.532 128.018 209.384 127.87 209.384 127.688V126.933C209.384 126.751 209.532 126.603 209.714 126.603ZM201.947 129.46H202.703C202.884 129.46 203.033 129.609 203.033 129.79V130.547C203.033 130.729 202.884 130.877 202.703 130.877H201.947C201.86 130.877 201.776 130.842 201.714 130.781C201.652 130.719 201.617 130.635 201.617 130.547V129.792C201.617 129.748 201.625 129.705 201.642 129.665C201.658 129.625 201.682 129.588 201.713 129.557C201.744 129.526 201.78 129.502 201.82 129.485C201.861 129.469 201.904 129.46 201.947 129.46ZM204.567 129.46H205.323C205.504 129.46 205.653 129.609 205.653 129.79V130.547C205.652 130.635 205.618 130.718 205.556 130.78C205.494 130.842 205.41 130.877 205.323 130.877H204.567C204.48 130.877 204.396 130.842 204.334 130.78C204.272 130.718 204.238 130.635 204.237 130.547V129.792C204.237 129.748 204.245 129.705 204.262 129.665C204.278 129.625 204.302 129.588 204.333 129.557C204.364 129.526 204.4 129.502 204.44 129.485C204.481 129.469 204.524 129.46 204.567 129.46ZM207.188 129.46H207.943C208.126 129.46 208.275 129.609 208.275 129.79V130.547C208.274 130.635 208.239 130.719 208.177 130.781C208.115 130.843 208.031 130.877 207.943 130.877H207.188C207.1 130.877 207.016 130.842 206.955 130.78C206.893 130.718 206.858 130.635 206.857 130.547V129.792C206.857 129.609 207.006 129.46 207.188 129.46ZM204.473 123.533H205.229C205.41 123.533 205.558 123.682 205.558 123.863V124.619C205.558 124.802 205.41 124.949 205.229 124.949H204.473C204.385 124.948 204.302 124.914 204.24 124.852C204.178 124.79 204.143 124.706 204.143 124.619V123.863C204.143 123.82 204.151 123.777 204.168 123.737C204.184 123.697 204.209 123.66 204.239 123.63C204.27 123.599 204.306 123.575 204.346 123.558C204.386 123.542 204.429 123.533 204.473 123.533ZM207.093 123.533H207.849C208.03 123.533 208.179 123.682 208.179 123.863V124.619C208.179 124.802 208.03 124.949 207.849 124.949H207.093C207.005 124.949 206.921 124.914 206.859 124.852C206.797 124.79 206.762 124.707 206.762 124.619V123.863C206.763 123.776 206.798 123.692 206.86 123.63C206.922 123.569 207.006 123.534 207.093 123.533Z" fill="#E1E4E5"/>
<path d="M64.7261 31.3243C64.5199 32.1486 64.7933 33.0054 65.2443 33.725C65.5631 34.2336 66.0085 33.672 66.6582 33.5819C67.6632 33.4414 68.2995 32.3775 68.5168 29.7858C68.6177 27.8932 68.5701 26.9485 68.4647 26.7834C68.0893 26.1918 67.1237 25.9937 66.3627 26.0509" fill="#3F6F3E"/>
<path fill-rule="evenodd" clip-rule="evenodd" d="M66.5502 143.967C66.5502 143.967 66.489 147.86 68.8913 149.242C71.2934 150.625 75.015 153.193 75.015 153.193L60.8574 153.671L61.2609 143.933L66.5502 143.967Z" fill="#F8AE9D"/>
<path fill-rule="evenodd" clip-rule="evenodd" d="M60.3647 148.256L60.1343 154.57H63.4227L63.6482 153.757C63.6482 153.757 64.8861 153.706 65.6015 154.057C66.3577 154.429 66.4594 154.609 66.4594 154.609L76.8901 154.631C76.8901 154.631 77.4049 152.591 74.2253 151.114C71.0458 149.638 68.7306 147.543 68.2906 147.328C67.8478 147.112 66.9541 146.99 66.3249 147.498C65.6953 148.005 65.1975 149.34 63.7715 149.381C61.936 149.435 60.8815 147.189 60.3647 148.256ZM56.2988 80.4482C56.2988 80.4482 60.1629 113.237 60.2831 115.516C60.4035 117.795 59.0421 121.729 59.0684 125.992C59.095 130.256 59.5657 145.282 59.5657 145.282L68.0897 145.421C68.0897 145.421 71.6722 118.267 71.711 114.196C71.7493 110.124 72.0779 80.8404 72.0779 80.8404L56.2988 80.4482Z" fill="#3F6F3E"/>
<path fill-rule="evenodd" clip-rule="evenodd" d="M45.8721 143.284L44.2109 153.372L50.3349 153.341L50.5287 143.125L45.8721 143.284Z" fill="#F8AE9D"/>
<path fill-rule="evenodd" clip-rule="evenodd" d="M44.7878 147.74C44.6185 147.776 44.4663 147.869 44.3553 148.002C44.2444 148.135 44.181 148.301 44.1753 148.475L44.1115 150.413C43.2315 151.392 42.8229 154.248 42.7909 154.481C42.7893 154.492 42.7888 154.502 42.7892 154.513C42.864 155.903 52.0038 155.876 52.6849 154.551C52.7018 154.516 52.7067 154.476 52.6988 154.437C52.6268 153.989 52.1284 151.095 51.143 150.322L51.1359 148.406C51.1354 148.235 51.0787 148.07 50.9746 147.934C50.8705 147.799 50.7248 147.702 50.5599 147.657L49.2257 147.298C48.3306 145.989 47.1106 146.036 46.0651 147.462L44.7878 147.74ZM48.8797 80.7571C48.8797 80.7571 46.151 103.128 46.1878 107.411C46.2249 111.696 47.0279 113.577 45.8852 116.65C44.7425 119.723 43.7681 144.253 43.7681 144.253L52.2177 144.957C52.2177 144.957 57.6155 118.709 58.2025 115.07C58.7896 111.43 66.0444 80.4482 66.0444 80.4482L48.8797 80.7571Z" fill="#3F6F3E"/>
<path fill-rule="evenodd" clip-rule="evenodd" d="M91.0129 40.5349C91.0129 40.5349 90.3074 36.6033 90.561 35.8072C90.7778 35.1192 92.8257 34.127 92.8257 34.127C92.8257 34.127 96.3875 28.5003 97.1669 29.0732C97.801 29.5376 95.312 33.6858 95.312 33.6858C95.312 33.6858 97.5817 36.0673 97.55 37.1315C97.5186 38.1962 93.8454 41.5285 93.8454 41.5285L91.0129 40.5349ZM54.4043 41.4585C54.4043 41.4585 56.7503 40.908 56.8316 37.064C56.9129 33.2203 56.8557 31.9085 56.8557 31.9085L62.4172 31.815C62.4172 31.815 62.4733 36.099 62.4742 37.6483C62.4765 41.0216 64.9817 41.9331 64.9817 41.9331C64.9817 41.9331 64.7734 45.6216 60.0914 45.8848C56.4358 46.0908 54.4043 41.4585 54.4043 41.4585Z" fill="#F8AE9D"/>
<path fill-rule="evenodd" clip-rule="evenodd" d="M56.3444 29.9657C54.0394 29.8765 54.4154 33.251 56.8099 33.2464C56.8099 33.2464 59.3834 38.4207 63.4234 38.4343C65.3697 38.4405 66.0052 36.7071 66.5886 35.4901C67.1719 34.2732 67.6001 32.4528 67.6358 31.3385C67.674 30.1502 67.6788 26.2458 67.6788 26.2458L56.2548 26.2407L56.3444 29.9657Z" fill="#F8AE9D"/>
<path fill-rule="evenodd" clip-rule="evenodd" d="M65.0693 41.7042C65.0693 41.7042 71.0606 43.5744 72.5045 45.8085C77.1554 49.8945 82.9723 55.5056 82.9723 55.5056C82.9723 55.5056 88.5123 41.601 90.3233 40.0158C91.5626 38.9312 94.0316 40.2722 94.4918 41.6506C95.0828 43.4212 91.2884 53.8053 89.4963 58.7098C89.1489 59.6601 88.8769 60.4044 88.7265 60.8408C87.6337 64.0113 84.9749 65.8297 81.7395 63.8144C80.4353 63.0023 76.5539 60.3407 73.2426 57.9278C73.1908 60.4628 73.1035 63.1338 73.0207 65.6708C72.8193 71.8338 72.6439 77.2047 73.0655 77.9025C75.154 81.3618 72.377 83.7364 63.1831 84.6088C53.9895 85.4811 45.8329 84.7669 47.3131 80.1505C47.6216 79.1886 47.6177 77.1183 47.4638 74.4283C46.5631 74.3803 45.6631 74.321 44.7639 74.2504C40.9267 73.9481 38.0891 72.2993 37.6933 68.0173C37.4162 65.0191 43.1285 50.9422 45.2708 46.3137C45.7717 45.2308 46.5466 44.5565 47.4244 44.2202C47.6287 43.9924 47.8588 43.832 48.1174 43.747C49.6908 43.2282 55.3323 40.8581 55.3323 40.8581L62.0433 45.2489L65.0693 41.7042ZM46.8422 66.4831L46.8271 66.5222L46.8459 66.5244L46.8422 66.4831Z" fill="#81DC7F"/>
<path fill-rule="evenodd" clip-rule="evenodd" d="M61.7326 70.1987C61.7326 70.1987 63.7797 69.787 64.6175 69.1294C65.4551 68.4718 67.992 68.0068 67.992 68.0068L67.1806 69.7162C67.1806 69.7162 73.3983 69.1325 73.5457 69.7457C73.693 70.3591 71.8944 71.026 71.8944 71.026C71.8944 71.026 71.0076 72.6827 70.1491 73.6429C69.3367 74.5515 65.3007 74.4433 63.8857 73.8764C62.6631 73.3865 61.334 73.6313 61.334 73.6313L61.7326 70.1987Z" fill="#F8AE9D"/>
<path d="M56.9718 26.3999C57.3086 26.8408 57.9025 26.938 58.3918 27.025C59.0494 27.1423 59.3747 27.3862 59.7161 28.0413C59.9323 28.4598 60.1485 28.9182 60.5352 29.1449C60.8503 29.3305 60.8407 28.861 60.8874 28.4983C60.8917 28.4643 60.8983 28.4307 60.9073 28.3977C60.9823 28.1079 61.29 28.1566 61.3793 28.4425C61.4612 28.7015 61.6366 28.9208 61.8595 29.0429C61.8958 29.0627 61.9346 29.0803 61.9732 29.0726C62.0256 29.0653 62.0667 29.0154 62.1007 28.9706C62.1718 28.8774 62.2423 28.759 62.3151 28.6337C62.5557 28.2201 63.015 28.3651 63.2839 28.7612C63.4524 29.008 63.6525 29.2619 63.9279 29.3194C64.0166 29.3392 64.1282 29.3242 64.169 29.237C64.2214 29.1299 64.1395 29.0228 64.1531 28.9134C64.1645 28.8111 64.2078 28.7663 64.2554 28.6791C64.4418 28.3428 64.8739 28.3306 65.1371 28.6108C65.3207 28.8063 65.5117 28.9933 65.7095 29.1724C65.7936 29.2472 65.9166 29.3217 66.0007 29.2472C66.0464 29.2072 66.0577 29.1401 66.0668 29.0752C66.1146 28.7587 66.16 28.4425 66.2079 28.126C66.2351 27.9492 66.3286 27.7174 66.4878 27.7625C66.5651 27.7849 66.6105 27.867 66.6538 27.9418C66.7062 28.0365 67.6412 29.1151 67.6597 29.033C67.8053 28.4201 68.1034 27.8622 68.249 27.2494C69.1911 23.3059 65.0111 20.1349 61.8185 20.1176C61.1087 20.1125 60.4602 20.1244 59.7705 20.2913C59.0356 20.4706 58.2598 20.7554 57.5931 21.1563C56.6578 21.7167 55.9501 22.7356 56.1322 23.9514" fill="#3F6F3E"/>
<path d="M59.5678 25.125C60.018 25.6398 60.1373 26.3643 60.1789 27.0488C60.241 28.0807 60.1571 29.1526 59.6848 30.0689C59.5502 30.3295 59.4508 31.6201 59.2434 31.5487C59.1774 31.5266 59.1884 30.5256 59.0139 29.9864C58.7447 29.1506 57.5046 28.8318 56.9464 29.36C56.0547 30.2003 56.5778 31.2212 56.8733 31.8564C57.0501 32.2398 57.3303 32.6699 57.3788 33.0756C57.4383 33.595 57.4561 35.4873 57.1206 35.9288C56.8404 36.2988 56.5424 34.511 56.2888 34.1588C54.4108 31.5354 52.61 24.8553 55.8165 23.4063C56.3041 23.1859 57.8091 23.072 58.2659 23.353" fill="#3F6F3E"/>
<defs>
<linearGradient id="paint0_linear_114_263" x1="153.535" y1="206.406" x2="89.4274" y2="-82.8239" gradientUnits="userSpaceOnUse">
<stop stop-color="white"/>
<stop offset="1" stop-color="#EEEEEE"/>
</linearGradient>
<linearGradient id="paint1_linear_114_263" x1="160.424" y1="95.2223" x2="131.205" y2="-36.0764" gradientUnits="userSpaceOnUse">
<stop stop-color="white"/>
<stop offset="1" stop-color="#EEEEEE"/>
</linearGradient>
<linearGradient id="paint2_linear_114_263" x1="97.6681" y1="140.513" x2="99.9237" y2="-53.2255" gradientUnits="userSpaceOnUse">
<stop stop-color="white"/>
<stop offset="1" stop-color="#EEEEEE"/>
</linearGradient>
<linearGradient id="paint3_linear_114_263" x1="109.66" y1="89.3834" x2="109.921" y2="67.0018" gradientUnits="userSpaceOnUse">
<stop stop-color="white"/>
<stop offset="1" stop-color="#EEEEEE"/>
</linearGradient>
<linearGradient id="paint4_linear_114_263" x1="190.919" y1="87.5524" x2="191.398" y2="46.3994" gradientUnits="userSpaceOnUse">
<stop stop-color="white"/>
<stop offset="1" stop-color="#EEEEEE"/>
</linearGradient>
<linearGradient id="paint5_linear_114_263" x1="189.158" y1="53.5763" x2="189.316" y2="40.0689" gradientUnits="userSpaceOnUse">
<stop stop-color="white"/>
<stop offset="1" stop-color="#EEEEEE"/>
</linearGradient>
<linearGradient id="paint6_linear_114_263" x1="77.7532" y1="137.598" x2="77.9892" y2="117.337" gradientUnits="userSpaceOnUse">
<stop stop-color="white"/>
<stop offset="1" stop-color="#EEEEEE"/>
</linearGradient>
<linearGradient id="paint7_linear_114_263" x1="99.7964" y1="136.201" x2="99.91" y2="145.957" gradientUnits="userSpaceOnUse">
<stop stop-color="white"/>
<stop offset="1" stop-color="#EEEEEE"/>
</linearGradient>
</defs>
</svg>
