<svg width="95" height="25" viewBox="0 0 95 25" fill="none" xmlns="http://www.w3.org/2000/svg">
<path d="M13.3281 3.36681C13.3789 3.42851 13.417 3.49974 13.4401 3.57637C13.5062 3.78081 13.6996 3.90859 13.7251 4.12325C13.7251 4.19481 13.8218 4.22037 13.8727 4.25614C13.9235 4.29192 13.8727 4.39925 13.9897 4.49636C14.1067 4.59347 13.9897 4.6037 13.9897 4.67525L14.1373 4.76725C14.3608 5.09111 14.478 5.47701 14.4726 5.87103C14.4671 6.26506 14.3392 6.64753 14.1067 6.96499C14.0241 7.0535 13.9601 7.15779 13.9185 7.27166C13.8777 7.31255 13.7963 7.35855 13.7556 7.39944C13.7149 7.44032 13.8116 7.50165 13.8625 7.56809C13.6436 7.62431 13.6182 7.80832 13.4554 7.93099H13.2772C13.1632 8.0283 13.0386 8.11231 12.9057 8.18143C12.865 8.22231 12.8752 8.32965 12.8803 8.36543C12.6428 8.54293 12.3517 8.63314 12.0559 8.62098C12.0152 8.62098 11.9795 8.73853 11.9388 8.74364C11.7149 8.74364 11.4299 8.74364 11.2264 8.77431C11.1348 8.74875 11.0788 8.68232 10.9872 8.65165C10.8982 8.66941 10.8065 8.66941 10.7175 8.65165C10.569 8.579 10.4139 8.52079 10.2544 8.47786C10.1577 8.4523 9.98975 8.53919 9.89306 8.47786C9.60459 8.25044 9.35084 7.98182 9.13989 7.68054C9.02793 7.51187 8.84472 7.46077 8.77857 7.28699C8.77857 7.21544 8.80402 7.10299 8.71241 7.07744C8.52921 7.02122 8.60554 6.90367 8.59028 6.79634C8.55649 6.69511 8.50089 6.60262 8.42743 6.52545C8.37145 6.42323 8.42743 6.26989 8.38672 6.13189C8.38672 6.09611 8.42234 6.05522 8.41725 6.01945C8.35109 5.80989 8.45796 5.58502 8.41725 5.40613C8.41452 5.2832 8.43171 5.16064 8.46814 5.04325C8.57448 4.78482 8.71299 4.54095 8.88035 4.31747C8.88035 4.2817 8.88035 4.21015 8.88035 4.17948C8.88035 4.14881 8.96687 4.13347 9.00758 4.09259C9.06313 3.90807 9.15102 3.73499 9.26711 3.58148C9.41978 3.38726 9.67423 3.21859 9.8727 3.01926C10.0251 2.90647 10.1605 2.7722 10.2747 2.6206C10.3154 2.57971 10.4579 2.6206 10.4986 2.6206C10.6208 2.49794 10.7989 2.51839 10.9261 2.43661C11.0533 2.35483 11.0228 2.53372 11.1551 2.48261C11.2325 2.46892 11.3056 2.43744 11.3689 2.39061C11.4961 2.34461 11.6386 2.43661 11.776 2.46216C11.9233 2.44811 12.0708 2.48606 12.1933 2.56949C12.3816 2.69215 12.8243 2.65127 12.9007 2.8966C12.977 3.14193 13.2264 3.19815 13.3281 3.36681Z" fill="#BD1339"/>
<path d="M20.8194 6.18812C20.8238 6.08723 20.8083 5.98645 20.7736 5.89167C20.7736 5.77922 20.8499 5.65657 20.8092 5.50324C20.7838 5.46235 20.7278 5.41634 20.738 5.38056C20.802 5.15134 20.8227 4.91212 20.799 4.67525C20.7845 4.61874 20.7604 4.56513 20.7278 4.51679C20.7278 4.48102 20.7278 4.41458 20.7583 4.34813C20.7516 4.15322 20.7102 3.9611 20.6362 3.78082C20.5983 3.70554 20.5676 3.62681 20.5446 3.5457C20.5446 3.50481 20.4682 3.4537 20.4733 3.41792C20.4766 3.12717 20.4283 2.83817 20.3308 2.56438C20.2647 2.22705 19.9441 2.01239 19.8219 1.66995C19.8219 1.63417 19.9339 1.66995 19.9644 1.66995C20.2436 1.88591 20.4512 2.18169 20.5598 2.51839C20.6056 2.63594 20.5853 2.73815 20.6362 2.82504C20.819 3.0973 20.9197 3.41674 20.9263 3.74503C20.9263 3.78081 20.9873 3.74503 21.0128 3.80125C20.9975 3.84947 20.9975 3.90125 21.0128 3.94947C21.1756 4.12836 21.0789 4.31747 21.1095 4.50658C21.1224 4.56276 21.1448 4.61633 21.1756 4.66502C21.1756 4.70079 21.0891 4.79279 21.084 4.82346C21.1493 4.90906 21.1966 5.00717 21.2228 5.11175C21.2491 5.21634 21.2538 5.3252 21.2367 5.43167C21.3843 5.49812 21.3181 5.69745 21.3537 5.85078C21.3626 5.86643 21.3751 5.8797 21.3902 5.88948C21.4052 5.89927 21.4224 5.90527 21.4402 5.907C21.4878 5.85042 21.5225 5.78417 21.542 5.71279C21.5753 5.44978 21.5753 5.18358 21.542 4.92057C21.5139 4.87134 21.5013 4.81473 21.5059 4.75817C21.5104 4.70161 21.5319 4.64776 21.5675 4.60369C21.5013 4.60369 21.486 4.51168 21.4606 4.47079C21.3486 4.01591 21.3028 3.50481 21.1654 3.03971C21.1864 3.02423 21.2023 3.0029 21.2112 2.97838C21.0832 2.5615 20.9126 2.159 20.7023 1.77728C20.6769 1.70061 20.5598 1.61372 20.5039 1.53706V1.46551C20.6569 1.5157 20.7857 1.6214 20.8652 1.76195C21.0483 1.9853 21.1865 2.24219 21.2723 2.51839C21.3588 2.75349 21.486 3.00393 21.542 3.22881C21.5919 3.3659 21.6642 3.4937 21.7558 3.60703C21.7803 3.71595 21.7906 3.82765 21.7863 3.93926C21.8321 4.20503 21.9135 4.45036 21.9644 4.72125C22.0247 4.909 22.0247 5.11105 21.9644 5.2988C21.8779 5.60546 22.0764 5.93767 22.1578 6.20345C22.1709 6.26256 22.1722 6.32369 22.1618 6.38334C22.1513 6.44298 22.1292 6.49995 22.0967 6.551C22.0967 6.58166 22.1425 6.63278 22.1374 6.66856C22.0814 6.79633 22.1374 6.91389 22.1018 7.05188C22.0662 7.08255 22.1425 7.16944 22.1018 7.23077C22.0611 7.29211 22.0356 7.25632 21.9949 7.28187C21.9542 7.30743 21.9949 7.49655 21.9949 7.59877C21.8932 7.79299 21.944 8.05364 21.7558 8.19164C21.6896 8.19164 21.6845 8.24786 21.6438 8.27342C21.6031 8.29897 21.6998 8.32454 21.7252 8.36543C21.7507 8.40632 21.6591 8.36543 21.6184 8.41143C21.5776 8.45742 21.7405 8.56474 21.7659 8.60563C21.715 8.88163 21.5115 9.11675 21.5166 9.44897C21.5166 9.52052 21.486 9.62274 21.4708 9.68919C21.4097 9.85785 21.2927 9.97539 21.2265 10.1389C21.2265 10.2105 21.084 10.2156 21.0738 10.2872C20.9873 10.3741 20.9975 10.5172 20.9415 10.6501C20.8855 10.7829 20.8041 10.6909 20.7278 10.7472C20.6696 10.8624 20.6251 10.9843 20.5955 11.1101C20.5039 11.2685 20.3868 11.4423 20.2952 11.6212C20.1778 11.8569 20.0153 12.0671 19.8168 12.2396C19.7664 12.2393 19.717 12.2535 19.6744 12.2805C19.5916 12.4738 19.4414 12.6301 19.252 12.72C19.2163 12.72 19.1705 12.8631 19.1349 12.8887C19.005 13.01 18.8673 13.1227 18.7227 13.226C18.6566 13.226 18.6209 13.2771 18.5497 13.1494C18.3203 13.5423 18.02 13.889 17.6642 14.1716C17.4912 14.2738 17.3131 14.2636 17.196 14.3811C16.8594 14.6848 16.5023 14.9649 16.1273 15.2193C16.1019 15.2193 15.9848 15.388 15.9848 15.388C15.8576 15.388 15.9289 15.4136 15.8169 15.388C15.8169 15.388 15.8169 15.5873 15.6541 15.618C15.3233 15.6844 15.2367 16.0678 15.2113 16.2262C15.1859 16.3847 15.1401 16.2518 15.1044 16.2876C15.0688 16.3233 15.1044 16.3642 15.0535 16.3949C14.9083 16.5127 14.7784 16.6484 14.6668 16.7987C14.6312 16.8293 14.6057 16.7987 14.565 16.7987C14.448 16.9295 14.355 17.08 14.2902 17.2433C14.1643 17.5582 13.9928 17.8527 13.7813 18.1173C13.7304 18.1786 13.8983 18.4035 13.8882 18.4751C13.878 18.5466 13.7457 18.6029 13.6999 18.7051C13.6541 18.9708 13.6439 19.2673 13.5981 19.5433C13.5572 19.7811 13.5765 20.0253 13.6541 20.2537C13.6668 20.475 13.6668 20.6969 13.6541 20.9182C13.6541 21.0817 13.7762 21.2555 13.7559 21.4293C13.7559 21.6695 13.71 21.6388 13.7559 21.8381C13.7394 21.9431 13.7394 22.05 13.7559 22.155C13.7559 22.3084 13.7253 22.4055 13.7151 22.5639C13.6698 22.6055 13.6334 22.6559 13.6083 22.7121C13.5582 23.1013 13.3637 23.4573 13.0637 23.7088C12.8958 23.8161 12.7533 23.9797 12.5548 23.9643C12.3807 24.0286 12.2107 24.1037 12.0459 24.1892C11.7944 24.261 11.5301 24.275 11.2724 24.2301C11.1242 24.2096 10.982 24.158 10.8548 24.0788C10.7277 23.9996 10.6186 23.8944 10.5345 23.7701C10.4124 23.6372 10.2037 23.6832 10.1274 23.4788C10.1274 23.3919 9.92893 23.351 9.90348 23.3101C9.76294 23.1562 9.64317 22.9843 9.54726 22.799C9.47092 22.5895 9.54725 22.4464 9.4302 22.2419C9.33351 22.1193 9.2928 22.0324 9.19611 21.9097C9.09942 21.787 9.22664 21.5059 9.12995 21.3424C9.05603 21.2927 8.99917 21.2213 8.96711 21.1379C8.93525 20.9452 8.88759 20.7554 8.82462 20.5706C8.7788 20.1921 8.7788 19.8094 8.82462 19.4308C8.82462 19.39 8.71774 19.3337 8.72283 19.2928C8.774 19.0075 8.80462 18.7188 8.81444 18.4291C8.84497 18.2706 8.81443 18.1429 8.97728 18.01C8.97728 18.01 8.90604 17.9538 8.91622 17.9129C8.97667 17.7005 9.01922 17.4833 9.04344 17.2638C9.04344 17.2229 9.13504 17.1973 9.14013 17.1615C9.10217 16.9314 9.10217 16.6966 9.14013 16.4664C9.14013 16.3847 9.35896 16.2671 9.40476 16.1955C9.39612 16.0989 9.41371 16.0018 9.45565 15.9144C9.45565 15.8838 9.5269 15.9144 9.56761 15.8633C9.60832 15.8122 9.56761 15.7713 9.56761 15.7356C9.56761 15.6129 9.79152 15.526 9.80679 15.4493C9.89009 15.2277 10.0106 15.0219 10.163 14.8411C10.1997 14.7387 10.2511 14.6423 10.3157 14.5549C10.3513 14.5242 10.3717 14.5549 10.3768 14.5191C10.3793 14.4697 10.3793 14.4203 10.3768 14.3709C10.4582 14.284 10.5651 14.2022 10.5854 14.0949C10.6308 13.9809 10.6925 13.8741 10.7686 13.778C10.9224 13.6805 11.0542 13.5516 11.1554 13.3998C11.2317 13.3078 11.3233 13.3282 11.4047 13.2414C11.4862 13.1545 11.5523 12.95 11.6388 12.8274C11.8269 12.6094 12.0425 12.417 12.28 12.2549C12.4705 12.1424 12.6676 12.0416 12.8704 11.9534C13.0587 11.8154 13.1655 11.5547 13.3436 11.4423C13.5218 11.3298 13.5828 11.3503 13.6948 11.2685C13.8067 11.1867 13.8933 11.0283 14.0612 10.9925C14.2144 10.97 14.3635 10.9252 14.5039 10.8596C14.7177 10.7318 14.6312 10.6961 14.8449 10.5632C15.0266 10.4386 15.2171 10.3276 15.4149 10.231C15.4578 10.2022 15.4886 10.1585 15.5014 10.1083C15.68 9.92492 15.884 9.7683 16.107 9.64319C16.1731 9.64319 16.2546 9.70963 16.3309 9.64319C16.4072 9.57675 16.2902 9.52563 16.3309 9.45918C16.4368 9.33275 16.5507 9.21325 16.6719 9.1014C16.7126 9.1014 16.7991 9.13207 16.8652 9.1014C16.9314 9.07074 16.9161 9.00429 16.9568 8.97363C16.9975 8.94296 16.9161 8.82542 16.9568 8.75897C16.9975 8.69253 17.0535 8.56986 17.1248 8.54942C17.196 8.52897 17.3741 8.42163 17.3589 8.35008C17.3644 8.27801 17.3879 8.2085 17.427 8.14781C17.4661 8.08712 17.5196 8.03718 17.5828 8.00253C17.5799 7.96852 17.5799 7.93433 17.5828 7.90032C17.6591 7.80832 17.7355 7.75209 17.8169 7.6652C17.8983 7.57831 17.8678 7.38921 17.9187 7.2921C18.0945 7.14495 18.2207 6.94678 18.28 6.72477C18.28 6.61744 18.1985 6.45899 18.2494 6.35677C18.3003 6.25455 18.4326 6.25456 18.4428 6.18812C18.4407 6.04025 18.4236 5.89298 18.3919 5.74856C18.3919 5.64123 18.5242 5.55945 18.5141 5.44701C18.5155 5.15687 18.5019 4.86686 18.4734 4.57814C18.5751 4.57814 18.5853 4.49636 18.6006 4.42991C18.5442 4.20615 18.4745 3.98597 18.3919 3.77058C18.3919 3.62747 18.5039 3.50992 18.4988 3.36681C18.4625 3.2303 18.3797 3.11092 18.2647 3.02949C18.1629 2.8966 18.2291 2.69727 18.1935 2.51839C18.1578 2.3395 18.0204 2.19639 17.995 1.97662C17.995 1.86417 17.8525 1.86928 17.8067 1.75173C17.7634 1.59513 17.7395 1.43377 17.7354 1.27129C17.7354 1.19462 17.6133 1.20996 17.5573 1.15885C17.4301 0.954403 17.4759 0.530179 17.2011 0.433069C17.2265 0.295071 17.0993 0.269522 17.0586 0.151968C17.1459 0.149963 17.2317 0.174838 17.3045 0.223265C17.3773 0.271692 17.4335 0.341349 17.4657 0.422853C17.4657 0.463741 17.5828 0.484188 17.6133 0.489299C17.6947 0.581298 17.6896 0.795958 17.7762 0.852179C17.8627 0.908401 18.0611 0.908404 18.1019 1.03107C18.1426 1.15373 18.3105 1.3275 18.3767 1.48594C18.377 1.53809 18.3911 1.58922 18.4174 1.63417C18.5293 1.73128 18.5395 1.84372 18.6209 1.9306C18.8092 2.15549 18.9975 2.37528 18.911 2.67683C18.855 2.80971 19.023 2.77392 19.0739 2.8557C19.2011 3.06525 19.1502 3.34126 19.313 3.52015C19.3241 3.86261 19.4073 4.19881 19.5573 4.50658C19.4862 4.67608 19.4552 4.85981 19.4667 5.04337C19.4782 5.22693 19.5318 5.40532 19.6235 5.56457C19.6235 5.56457 19.7202 5.56457 19.7303 5.51857C19.7609 5.3499 20.0713 5.28856 20.0204 5.20679C19.9353 4.96495 19.8756 4.71486 19.8423 4.46058C19.8727 4.18543 19.8727 3.90774 19.8423 3.63259L19.766 3.50993C19.7173 3.35655 19.7017 3.1945 19.7202 3.03459C19.7202 2.95793 19.6489 2.90682 19.6286 2.83015C19.6082 2.75349 19.6286 2.72794 19.654 2.69216C19.6794 2.65638 19.8118 2.72794 19.8728 2.74327C19.9339 2.75861 19.8728 2.88638 19.9034 2.92726C20.0051 3.09593 20.1527 3.16237 20.1833 3.35147V3.48948C20.2361 3.68512 20.2989 3.87789 20.3715 4.06703C20.3715 4.17948 20.2901 4.33791 20.3308 4.45546C20.4602 4.74534 20.5043 5.06632 20.4581 5.38056C20.4326 5.51345 20.6056 5.6259 20.5598 5.72301C20.514 5.82012 20.5598 5.83545 20.5191 5.93256C20.4784 6.02967 20.4428 5.98366 20.4377 6.01944C20.5344 6.21877 20.3919 6.53055 20.3614 6.6941C20.3614 6.72988 20.4682 6.76567 20.4886 6.63789C20.509 6.51011 20.6362 6.56632 20.7023 6.54588C20.749 6.50003 20.7839 6.4436 20.8043 6.38134C20.8247 6.31908 20.8298 6.25281 20.8194 6.18812ZM21.4911 6.87811C21.4911 6.69922 21.5776 6.57145 21.5471 6.36701C21.5166 6.16256 21.3435 6.36701 21.2418 6.36701C21.2739 6.56944 21.2362 6.7768 21.1349 6.95477C21.0942 7.01611 21.0637 7.18988 21.1603 7.17454C21.2017 7.17804 21.2433 7.17304 21.2827 7.15984C21.322 7.14664 21.3583 7.12551 21.3892 7.09777C21.4202 7.07003 21.4452 7.03625 21.4627 6.99848C21.4802 6.96071 21.4899 6.91976 21.4911 6.87811ZM21.2214 7.82364C21.2407 7.78913 21.2477 7.74906 21.2412 7.71003C21.2347 7.671 21.2152 7.63535 21.1858 7.60899C21.0993 7.55277 20.9873 7.60898 20.9364 7.73165C20.8855 7.85431 20.9364 7.98209 21.0586 7.97187C21.0891 7.98209 21.1807 7.88497 21.2214 7.82364Z" fill="#0087CB"/>
<path d="M19.379 1.93582C19.5232 2.08911 19.6464 2.26099 19.7454 2.44693V2.51849C19.5164 2.71782 19.3128 2.38559 19.2365 2.19137C19.1574 1.98592 19.036 1.79955 18.8803 1.64449C18.8783 1.61044 18.8783 1.57632 18.8803 1.54227C18.7988 1.45028 18.692 1.3225 18.7988 1.27139C18.9057 1.22028 18.9159 1.33782 19.0024 1.38893C19.1551 1.56271 19.1805 1.78249 19.379 1.93582Z" fill="#0087CB"/>
<path d="M20.351 1.05087C20.351 1.08659 20.295 1.14272 20.2899 1.17843C20.1647 1.07287 20.058 0.946963 19.9744 0.805957C19.9292 0.797046 19.8882 0.773781 19.8573 0.739621C19.8268 0.739621 19.8573 0.698804 19.8573 0.663086C19.9591 0.663086 20.0354 0.744726 20.122 0.805957C20.2085 0.867188 20.1932 0.805957 20.2237 0.805957C20.2618 0.834739 20.2929 0.871658 20.3149 0.914026C20.3369 0.956393 20.3492 1.00313 20.351 1.05087Z" fill="#0087CB"/>
<path d="M6.19349 7.39939C6.22942 7.42781 6.26188 7.46041 6.29018 7.4965C6.31417 7.5104 6.34137 7.51772 6.36906 7.51772C6.39676 7.51772 6.42396 7.5104 6.44794 7.4965C6.49883 7.4965 6.54463 7.63961 6.60061 7.63961C6.65659 7.63961 6.72275 7.81338 6.794 7.87471C6.86524 7.93604 6.90087 7.95649 6.94667 7.98715C7.00487 8.07533 7.0695 8.15905 7.14005 8.2376C7.18585 8.29894 7.26727 8.27849 7.32325 8.27849C7.37923 8.27849 7.46575 8.46759 7.53699 8.55959C7.56244 8.55959 7.60824 8.6516 7.60824 8.68226C7.66256 8.72926 7.7204 8.77198 7.78126 8.81004C7.78126 8.84071 7.78127 8.89692 7.82198 8.92758C8.03803 9.19338 8.23853 9.47155 8.42247 9.76069C8.42537 9.78958 8.42537 9.81869 8.42247 9.84758C8.58627 10.0624 8.73587 10.2878 8.87031 10.5222C8.91611 10.6142 8.95682 10.7625 9.00262 10.88C9.04842 10.9976 9.09931 10.9771 9.14511 11.0384C9.22611 11.1652 9.27825 11.3083 9.29778 11.4576C9.29778 11.5138 9.25707 11.6825 9.16038 11.5905C9.06369 11.4985 9.04842 11.2889 8.92629 11.1918C8.91788 11.1438 8.89874 11.0984 8.87031 11.0589C8.81942 10.9976 8.72781 11.0027 8.70746 10.9158C8.6871 10.8289 8.62095 10.7574 8.57006 10.696C8.44284 10.5222 8.26472 10.4507 8.11714 10.2718C8.10253 10.2695 8.08758 10.2706 8.07347 10.2751C8.05935 10.2795 8.04644 10.2871 8.03571 10.2974C8.00518 10.3536 7.92375 10.4353 8.00009 10.5273C8.07642 10.6193 8.14767 10.7062 8.27998 10.7727C8.4123 10.8391 8.37667 11.0078 8.42247 11.156C8.4677 11.2198 8.52689 11.2722 8.5955 11.3093C8.67183 11.3707 8.64639 11.4576 8.71764 11.5547C8.71764 11.5802 8.68711 11.6058 8.68202 11.6364C8.67693 11.6671 8.83468 11.708 8.90593 11.8C8.96191 11.7489 9.03824 11.8 9.08913 11.8716C9.00262 11.9533 9.02297 12.0147 8.99244 12.0964C8.96191 12.1782 9.1044 12.3673 9.22654 12.4338C9.34867 12.5002 9.29778 12.5871 9.36903 12.6484C9.44027 12.7098 9.54715 12.7506 9.61839 12.8733C9.68964 12.996 9.58277 12.9551 9.55223 13.0113C9.5217 13.0675 9.64893 13.134 9.69982 13.1698C9.74722 13.2095 9.78103 13.2631 9.7965 13.3231C9.71508 13.3231 9.55732 13.2362 9.48099 13.226C9.40465 13.2158 9.3385 13.0931 9.23672 13.0727C9.13494 13.0522 9.18074 13.1442 9.14003 13.1391L8.99244 13.1084C8.93646 13.1084 8.80415 12.9551 8.74817 12.9449C8.69219 12.9347 8.60059 13.0522 8.53443 13.042C8.425 13.0318 8.3182 13.0024 8.21892 12.9551C8.13246 12.9214 8.04903 12.8804 7.96955 12.8324C7.91866 12.8324 7.93393 12.7404 7.88304 12.7098C7.83215 12.6791 7.73546 12.6791 7.68457 12.6484C7.49628 12.5309 7.31816 12.2702 7.17567 12.1833L6.86016 12.0198C6.79909 11.984 6.75837 11.9022 6.68713 11.8767C6.4683 11.8 6.29018 11.662 6.03573 11.5905C5.58554 11.5299 5.12982 11.6512 4.76858 11.9278C4.74194 11.9204 4.71379 11.9204 4.68715 11.9278C4.59682 11.9931 4.50154 12.0512 4.40217 12.1016C4.2664 12.1782 4.12523 12.2449 3.97978 12.3009C3.93907 12.3264 3.93398 12.4082 3.89327 12.4338C3.85256 12.4593 3.71516 12.4747 3.65409 12.5155C3.59302 12.5564 3.58793 12.6178 3.53195 12.6587C3.42004 12.7546 3.29492 12.8338 3.16045 12.8938C2.85804 12.9741 2.55019 13.0322 2.23935 13.0675C2.05614 13.0675 1.92383 13.2209 1.64902 13.2209C1.23482 13.2648 0.817822 13.1695 0.463285 12.95C0.38695 12.8835 0.37168 12.7098 0.325879 12.6791C0.17321 12.5769 0.188481 12.3776 0.147769 12.2293C0.0968792 12.1987 -0.00490507 12.1884 0.00018393 12.1016C0.0583793 11.6884 0.235224 11.3012 0.509084 10.9873C0.565063 10.8749 0.70247 10.8289 0.712648 10.6807C0.827332 10.5187 0.953164 10.365 1.08923 10.2207C1.11976 10.1645 1.08923 10.0725 1.08923 10.0214C1.35402 9.62749 1.66122 9.26412 2.00525 8.93782C2.09176 8.85604 2.15283 8.74359 2.28515 8.72826C2.33604 8.72826 2.38692 8.72826 2.41746 8.67715C2.47332 8.56287 2.56432 8.46969 2.677 8.41138C2.97725 8.20183 3.2317 7.90027 3.57775 7.83383C3.63373 7.83383 3.66427 7.75206 3.72025 7.7265C3.77623 7.70094 3.878 7.7265 3.92889 7.7265C4.18843 7.60895 4.43779 7.3585 4.68715 7.32272C4.74313 7.29717 4.77367 7.24095 4.79911 7.24606C5.03321 7.24606 5.30801 7.05695 5.53193 7.27673C5.64477 7.25176 5.76145 7.24976 5.87507 7.27083C5.9887 7.2919 6.09696 7.3356 6.19349 7.39939ZM7.98992 9.92936C7.99237 9.90045 7.99237 9.87138 7.98992 9.84247C7.88814 9.78113 7.84233 9.60224 7.71002 9.56647C7.71002 9.56647 7.63368 9.59203 7.63368 9.62269C7.63797 9.77918 7.68555 9.93137 7.77108 10.0622C7.80162 9.94979 7.87795 9.95491 7.92884 10.0622C7.96276 10.0256 7.98416 9.97905 7.98992 9.92936Z" fill="#2E9647"/>
<path d="M52.462 17.1359H46.3044V17.9537H49.3578V21.787H43.4545V22.523H49.7445V24.184H41.6683V20.2025H47.5512V19.5483H41.5869V17.9537H44.5639V17.1359H38.5335V15.5055H52.462V17.1359Z" fill="#231F20"/>
<path fill-rule="evenodd" clip-rule="evenodd" d="M49.2102 11.8817C49.2147 12.3258 49.1116 12.7643 48.9099 13.1595C48.7112 13.5499 48.438 13.8972 48.1059 14.1817C47.7368 14.4629 47.3218 14.6774 46.8794 14.8155C45.8986 15.1118 44.8527 15.1118 43.8718 14.8155C43.4291 14.6857 43.0135 14.4761 42.6454 14.1971C42.3032 13.9316 42.022 13.5951 41.821 13.2106C41.6169 12.8035 41.5139 12.3528 41.5207 11.8971C41.5128 11.4369 41.614 10.9814 41.8159 10.5682C42.0072 10.1702 42.2855 9.8208 42.6301 9.54601C42.9847 9.25215 43.3925 9.03 43.8311 8.89179C44.8132 8.59206 45.8617 8.59206 46.8438 8.89179C47.2895 9.03162 47.7053 9.25346 48.0702 9.54601C48.4193 9.82025 48.7027 10.1695 48.8997 10.5682C49.1075 10.9744 49.2141 11.4251 49.2102 11.8817ZM47.4239 11.8817L47.4243 11.8659C47.4416 12.107 47.3933 12.3484 47.2845 12.5641C47.1751 12.7812 47.0086 12.9642 46.8031 13.0931C46.3635 13.3607 45.8564 13.4956 45.3425 13.4815C44.8206 13.5006 44.306 13.3539 43.8718 13.0624C43.6813 12.9321 43.5268 12.7556 43.4227 12.5491C43.3186 12.3426 43.2683 12.113 43.2764 11.8817C43.2664 11.6459 43.3157 11.4112 43.4197 11.1995C43.5238 10.9878 43.6793 10.8059 43.8718 10.6704C44.3023 10.3695 44.8184 10.2171 45.3425 10.236C45.8634 10.224 46.3746 10.3779 46.8031 10.6755C46.9996 10.8076 47.1596 10.9874 47.2682 11.1983C47.3743 11.4046 47.4279 11.6339 47.4243 11.8659L47.4239 11.8613V11.8817Z" fill="#231F20"/>
<path d="M33.0985 18.015L31.9128 19.2826L28.6151 16.0524C28.2084 16.7877 27.684 17.4507 27.0629 18.015C26.5126 18.5161 25.9104 18.9565 25.2665 19.3286L24.1113 18.0099C24.7189 17.7123 25.2796 17.3265 25.7754 16.865C26.2129 16.4627 26.593 16.0018 26.9052 15.4953C27.1893 15.0398 27.407 14.5459 27.5515 14.0284C27.681 13.5485 27.7477 13.0537 27.75 12.5564V10.2718H29.5718V12.2293C29.5721 12.5951 29.5483 12.9605 29.5006 13.3231C29.4497 13.6706 29.3886 14.008 29.3123 14.3453L33.0985 18.015Z" fill="#231F20"/>
<path d="M36.8694 23.6372H35.1443V14.882H31.5464V13.2157H35.1341V8.77936H36.8593L36.8694 23.6372Z" fill="#231F20"/>
<path d="M53.1796 18.2041H67.0929V16.5532H53.1796V18.2041Z" fill="#231F20"/>
<path d="M62.3296 24.184H64.0701V19.119H56.1058V20.7801H62.3296V24.184Z" fill="#231F20"/>
<path d="M56.1719 15.7048H64.0344V14.0488H57.892V13.2822H63.7444V11.616H57.892V10.926H63.9377V9.27511H56.1719V15.7048Z" fill="#231F20"/>
<path fill-rule="evenodd" clip-rule="evenodd" d="M74.8943 16.3693H68.2786V9.5716H70.0038V11.5342H73.1539V9.5716H74.8943V16.3693ZM73.1539 14.7184V13.1851H70.0038V14.7184H73.1539Z" fill="#231F20"/>
<path d="M79.7696 24.1841H71.8053V20.0952H77.6068V19.2468H71.7493V17.5959H79.3828V21.6848H73.6272V22.5332H79.7849L79.7696 24.1841Z" fill="#231F20"/>
<path d="M79.9019 17.1155H78.192V15.5362H75.4134V13.9007H78.2073V12.7302H75.4134V11.1049H78.2073V8.80494H79.9172L79.9019 17.1155Z" fill="#231F20"/>
<path d="M89.3267 19.2826L90.5176 18.0661L86.7517 14.3044C86.832 13.9792 86.8948 13.6499 86.94 13.318C86.9922 12.9592 87.0177 12.597 87.0163 12.2344V10.2258H85.1741V12.5615C85.1733 13.0525 85.1048 13.541 84.9706 14.0131C84.8278 14.523 84.6173 15.0112 84.3446 15.4646C84.0294 15.9643 83.6494 16.4197 83.2149 16.819C82.7085 17.287 82.144 17.6873 81.5355 18.0099L82.6856 19.3337C83.3439 18.967 83.9585 18.5263 84.5176 18.0201C85.1374 17.4532 85.654 16.7821 86.0443 16.037L89.3267 19.2826Z" fill="#231F20"/>
<path d="M92.3394 23.627H94.0799V8.77936H92.3394V23.627Z" fill="#231F20"/>
</svg>
